<?xml version="1.0" encoding="utf-8"?>
<!-- Generator: Adobe Illustrator 21.0.0, SVG Export Plug-In . SVG Version: 6.00 Build 0)  -->
<svg version="1.1" id="Layer_1" xmlns="http://www.w3.org/2000/svg" xmlns:xlink="http://www.w3.org/1999/xlink" x="0px" y="0px"
	 viewBox="0 0 200 100" style="enable-background:new 0 0 200 100;" xml:space="preserve">
<style type="text/css">
	.st0{fill:#6FF34D;}
	.st1{opacity:0.9;}
	.st2{opacity:0.7;}
	.st3{opacity:0.5;}
	.st4{opacity:0.2;}
</style>
<g>
	<g>
		<path class="st0" d="M163.2,77.2c5.2-8.2,10.4-16.5,15.6-24.7c0.9-1.4,0.9-3.5,0-4.9c-5.2-8.2-10.4-16.5-15.6-24.7
			c-3.3-5.3-11.8-0.4-8.4,4.9c5.2,8.2,10.4,16.5,15.6,24.7c0-1.6,0-3.3,0-4.9c-5.2,8.2-10.4,16.5-15.6,24.7
			C151.5,77.6,159.9,82.5,163.2,77.2L163.2,77.2z"/>
	</g>
	<g class="st1">
		<path class="st0" d="M129.7,77.2c5.2-8.2,10.4-16.5,15.6-24.7c0.9-1.4,0.9-3.5,0-4.9c-5.2-8.2-10.4-16.5-15.6-24.7
			c-3.3-5.3-11.8-0.4-8.4,4.9c5.2,8.2,10.4,16.5,15.6,24.7c0-1.6,0-3.3,0-4.9c-5.2,8.2-10.4,16.5-15.6,24.7
			C118,77.6,126.4,82.5,129.7,77.2L129.7,77.2z"/>
	</g>
	<g class="st2">
		<path class="st0" d="M95.5,77.2c5.2-8.2,10.4-16.5,15.6-24.7c0.9-1.4,0.9-3.5,0-4.9c-5.2-8.2-10.4-16.5-15.6-24.7
			c-3.3-5.3-11.8-0.4-8.4,4.9c5.2,8.2,10.4,16.5,15.6,24.7c0-1.6,0-3.3,0-4.9C97.5,55.8,92.3,64,87.1,72.3
			C83.8,77.6,92.2,82.5,95.5,77.2L95.5,77.2z"/>
	</g>
	<g class="st3">
		<path class="st0" d="M63.2,77.2c5.2-8.2,10.4-16.5,15.6-24.7c0.9-1.4,0.9-3.5,0-4.9C73.6,39.3,68.4,31,63.2,22.8
			c-3.3-5.3-11.8-0.4-8.4,4.9C60,36,65.2,44.2,70.4,52.5c0-1.6,0-3.3,0-4.9C65.2,55.8,60,64,54.8,72.3
			C51.4,77.6,59.8,82.5,63.2,77.2L63.2,77.2z"/>
	</g>
	<g class="st4">
		<path class="st0" d="M29.7,77.2c5.2-8.2,10.4-16.5,15.6-24.7c0.9-1.4,0.9-3.5,0-4.9C40.1,39.3,34.9,31,29.7,22.8
			c-3.3-5.3-11.8-0.4-8.4,4.9c5.2,8.2,10.4,16.5,15.6,24.7c0-1.6,0-3.3,0-4.9C31.7,55.8,26.5,64,21.3,72.3
			C18,77.6,26.4,82.5,29.7,77.2L29.7,77.2z"/>
	</g>
</g>
</svg>
