<?xml version="1.0" encoding="utf-8"?>
<!-- Generator: Adobe Illustrator 21.0.0, SVG Export Plug-In . SVG Version: 6.00 Build 0)  -->
<svg version="1.1" id="Layer_1" xmlns="http://www.w3.org/2000/svg" xmlns:xlink="http://www.w3.org/1999/xlink" x="0px" y="0px"
	 viewBox="0 0 34 34" style="enable-background:new 0 0 34 34;" xml:space="preserve">
<style type="text/css">
	.st0{fill:#6FF34D;}
	.st1{fill:#181718;}
</style>
<g>
	<path class="st0" d="M28.6,34H5.4c-3,0-5.4-2.4-5.4-5.4V5.4C0,2.4,2.4,0,5.4,0h23.2c3,0,5.4,2.4,5.4,5.4v23.2
		C34,31.6,31.6,34,28.6,34z"/>
</g>
<g>
	<g>
		<path class="st1" d="M6.4,17.6c2.2,2.3,4.4,4.5,6.6,6.8c0.6,0.6,1.6,0.6,2.1,0c4.3-4.5,8.5-9,12.8-13.5c1.3-1.4-0.8-3.5-2.1-2.1
			c-4.3,4.5-8.5,9-12.8,13.5c0.7,0,1.4,0,2.1,0c-2.2-2.3-4.4-4.5-6.6-6.8C7.2,14.1,5.1,16.2,6.4,17.6L6.4,17.6z"/>
	</g>
</g>
</svg>
