<?xml version="1.0" encoding="utf-8"?>
<!-- Generator: Adobe Illustrator 21.0.0, SVG Export Plug-In . SVG Version: 6.00 Build 0)  -->
<svg version="1.1" id="Layer_1" xmlns="http://www.w3.org/2000/svg" xmlns:xlink="http://www.w3.org/1999/xlink" x="0px" y="0px"
	 viewBox="0 0 34 34" style="enable-background:new 0 0 34 34;" xml:space="preserve">
<style type="text/css">
	.st0{fill:#9E9E9E;}
</style>
<g>
	<g>
		<path class="st0" d="M27.8,33.8H6.2c-3.4,0-6-2.6-6-6V6.2c0-3.4,2.6-6,6-6h21.6c3.4,0,6,2.6,6,6v21.6
			C33.8,31.2,31.2,33.8,27.8,33.8z M6.2,2.2c-2.2,0-4,1.8-4,4v21.6c0,2.2,1.8,4,4,4h21.6c2.2,0,4-1.8,4-4V6.2c0-2.2-1.8-4-4-4
			C27.8,2.2,6.2,2.2,6.2,2.2z"/>
	</g>
</g>
<g>
	<g>
		<path class="st0" d="M6.4,17.6c2.2,2.3,4.4,4.5,6.6,6.8c0.6,0.6,1.6,0.6,2.1,0c4.3-4.5,8.5-9,12.8-13.5c1.3-1.4-0.8-3.5-2.1-2.1
			c-4.3,4.5-8.5,9-12.8,13.5c0.7,0,1.4,0,2.1,0c-2.2-2.3-4.4-4.5-6.6-6.8C7.2,14.1,5.1,16.2,6.4,17.6L6.4,17.6z"/>
	</g>
</g>
</svg>
