<?xml version="1.0" encoding="utf-8"?>
<!-- Generator: Adobe Illustrator 21.0.0, SVG Export Plug-In . SVG Version: 6.00 Build 0)  -->
<svg version="1.1" id="Layer_1" xmlns="http://www.w3.org/2000/svg" xmlns:xlink="http://www.w3.org/1999/xlink" x="0px" y="0px"
	 viewBox="0 0 450 490" style="enable-background:new 0 0 450 490;" xml:space="preserve">
<style type="text/css">
	.st0{fill:#F4E414;}
	.st1{fill:#FFFFFF;}
</style>
<path class="st0" d="M6.4,159.6v170.8c0,25.2,13.5,48.6,35.3,61.2l148,85.4c21.9,12.6,48.8,12.6,70.6,0l147.9-85.4
	c21.9-12.6,35.3-35.9,35.3-61.2V159.6c0-25.2-13.5-48.6-35.3-61.2L260.3,13c-21.9-12.6-48.8-12.6-70.6,0l-148,85.4
	C19.9,111,6.4,134.3,6.4,159.6z"/>
<g>
	<g>
		<path class="st1" d="M208.5,119c0,19.7,0,39.3,0,59c0,31.1,0,62.3,0,93.4c0,7.2,0,14.4,0,21.6c0,8.6,7.6,16.9,16.5,16.5
			s16.5-7.2,16.5-16.5c0-19.7,0-39.3,0-59c0-31.1,0-62.3,0-93.4c0-7.2,0-14.4,0-21.6c0-8.6-7.6-16.9-16.5-16.5
			C216.1,102.9,208.5,109.7,208.5,119L208.5,119z"/>
	</g>
</g>
<circle class="st1" cx="225" cy="354" r="21.5"/>
</svg>
