<?xml version="1.0" encoding="utf-8"?>
<!-- Generator: Adobe Illustrator 21.0.0, SVG Export Plug-In . SVG Version: 6.00 Build 0)  -->
<svg version="1.1" id="Layer_1" xmlns="http://www.w3.org/2000/svg" xmlns:xlink="http://www.w3.org/1999/xlink" x="0px" y="0px"
	 viewBox="0 0 450 490" style="enable-background:new 0 0 450 490;" xml:space="preserve">
<style type="text/css">
	.st0{fill:#6FF34D;}
	.st1{fill:#FFFFFF;}
</style>
<path class="st0" d="M6.4,159.6v170.8c0,25.2,13.5,48.6,35.3,61.2l148,85.4c21.9,12.6,48.8,12.6,70.6,0l147.9-85.4
	c21.9-12.6,35.3-35.9,35.3-61.2V159.6c0-25.2-13.5-48.6-35.3-61.2L260.3,13c-21.9-12.6-48.8-12.6-70.6,0l-148,85.4
	C19.9,111,6.4,134.3,6.4,159.6z"/>
<g>
	<path class="st1" d="M196.6,305.2c-1-12-0.1-22.4,2.7-31.1c2.8-8.7,6.6-16.4,11.4-23.1c4.8-6.7,10.2-12.8,16.1-18.1
		c5.9-5.3,11.4-10.6,16.6-16c5.2-5.3,9.5-11.1,13-17.1c3.5-6.1,5.2-13.1,5.2-21.2c0-10.7-3.2-19.4-9.6-26.3
		c-6.4-6.8-17.5-10.2-33.4-10.2c-9.6,0-19.5,1.9-29.5,5.7c-10,3.8-18.5,7.8-25.5,12.1l-11.6-26c10.1-6.3,20.8-11.1,32.2-14.6
		c11.3-3.5,25.3-5.2,41.9-5.2c11.8,0,22.2,1.6,31.1,4.7c8.9,3.1,16.4,7.4,22.4,12.8c6,5.4,10.5,11.8,13.6,19.2
		c3,7.4,4.5,15.2,4.5,23.7c0,11.3-1.8,21-5.4,29.1c-3.6,8.1-8.1,15.2-13.4,21.5c-5.3,6.3-11.1,12.1-17.4,17.4
		c-6.3,5.3-12.1,10.9-17.3,16.8c-5.3,5.9-9.8,12.5-13.4,19.7c-3.6,7.2-5.4,16-5.4,26.4H196.6z M188.7,353.3c0-7,2.2-12.5,6.7-16.6
		c4.5-4.1,10.3-6.1,17.5-6.1c7.2,0,13.1,2.1,17.5,6.1c4.5,4.1,6.7,9.6,6.7,16.6c0,6.5-2.2,11.9-6.7,16.3c-4.5,4.3-10.3,6.5-17.5,6.5
		c-7.2,0-13.1-2.2-17.5-6.5C190.9,365.2,188.7,359.8,188.7,353.3z"/>
</g>
</svg>
