<?xml version="1.0" encoding="utf-8"?>
<!-- Generator: Adobe Illustrator 21.0.0, SVG Export Plug-In . SVG Version: 6.00 Build 0)  -->
<svg version="1.1" id="Layer_1" xmlns="http://www.w3.org/2000/svg" xmlns:xlink="http://www.w3.org/1999/xlink" x="0px" y="0px"
	 viewBox="0 0 450 490" style="enable-background:new 0 0 450 490;" xml:space="preserve">
<style type="text/css">
	.st0{fill:#6FF34D;}
</style>
<g>
	<g>
		<path class="st0" d="M8.7,165.2c0,42.8,0,85.6,0,128.4c0,18.8-2,39.5,4.6,57.4c6.4,17.6,18.6,32.1,34.7,41.5
			c4.8,2.8,9.6,5.5,14.4,8.3c40.3,23.2,80.5,46.5,120.8,69.7c26.3,15.2,56.4,15.7,82.9,0.4c17.5-10.1,35-20.2,52.5-30.3
			c22.4-13,44.9-25.9,67.3-38.9c5.3-3,10.6-6.1,15.8-9.1c14.7-8.6,26.5-21.5,33.2-37.2c8.1-18.9,6.4-39.4,6.4-59.5
			c0-27.1,0-54.1,0-81.2c0-16.5,0.1-33,0-49.5c-0.2-20-7.7-39.4-21.5-53.9c-6.5-6.9-14.4-12-22.5-16.7
			C356.4,71.1,315.6,47.6,274.8,24c-4.5-2.6-9-5.4-13.7-7.8C239.5,5,213.9,4.6,191.8,14.8c-15,6.9-29.1,16.4-43.3,24.6
			C125,53,101.5,66.6,77.9,80.1c-15.2,8.8-33,16.8-45.7,29.2C17.2,124,8.9,144.3,8.7,165.2c-0.1,9.7,14.9,9.7,15,0
			c0.2-19.8,9.4-38.9,25.4-50.7c4.7-3.5,10-6.2,15-9.1c20.1-11.6,40.2-23.2,60.2-34.8c20.2-11.7,40.5-23.4,60.7-35
			c5.3-3.1,10.7-6.5,16.4-8.8c18.2-7.2,38.4-5.5,55.4,4.1c37.4,21.2,74.4,43,111.6,64.4c15.1,8.7,33,16.6,44.1,30.4
			c9.3,11.5,13.8,25.8,13.8,40.4c0,6.3,0,12.6,0,18.9c0,45.5,0,91,0,136.5c0,25-11.5,46.3-33.4,58.9c-16.7,9.7-33.5,19.3-50.2,29
			c-22.2,12.8-44.3,25.6-66.5,38.4c-6,3.5-12.1,7-18.1,10.5c-13.1,7.6-28.1,11.1-43.2,8.6c-17.6-3-33.8-14.8-49.1-23.6
			c-23.1-13.3-46.1-26.6-69.2-39.9c-13.7-7.9-27.5-15.7-41.2-23.8c-15.7-9.2-26.7-24.4-30.5-42.2c-1.4-6.8-1.2-13.7-1.2-20.6
			c0-46.5,0-93,0-139.4c0-4,0-8.1,0-12.1C23.7,155.6,8.7,155.6,8.7,165.2z"/>
	</g>
	<g>
		<path class="st0" d="M82.5,266.5c30.9,23.9,61.9,47.9,92.8,71.8c4.4,3.4,8.8,6.8,13.2,10.2c4.8,3.7,12.3,5.4,17,0
			c18.5-21.7,37-43.3,55.5-65c29.5-34.5,58.9-69,88.4-103.4c6.7-7.9,13.4-15.7,20.2-23.6c4.2-4.9,4.8-12.1,0-17
			c-4.3-4.3-12.7-4.9-17,0c-18.5,21.7-37,43.3-55.5,65c-29.5,34.5-58.9,69-88.4,103.4c-6.7,7.9-13.4,15.7-20.2,23.6
			c5.7,0,11.3,0,17,0c-30.9-23.9-61.9-47.9-92.8-71.8c-4.4-3.4-8.8-6.8-13.2-10.2c-5.1-4-12-5-17,0
			C78.4,253.6,77.4,262.5,82.5,266.5L82.5,266.5z"/>
	</g>
</g>
</svg>
