<?xml version="1.0" encoding="utf-8"?>
<!-- Generator: Adobe Illustrator 21.0.0, SVG Export Plug-In . SVG Version: 6.00 Build 0)  -->
<svg version="1.1" id="Layer_1" xmlns="http://www.w3.org/2000/svg" xmlns:xlink="http://www.w3.org/1999/xlink" x="0px" y="0px"
	 viewBox="0 0 21 15" style="enable-background:new 0 0 21 15;" xml:space="preserve">
<style type="text/css">
	.st0{fill:#6FF34D;}
</style>
<g>
	<path class="st0" d="M20.5,5.8c0-0.4,0-0.9-0.1-1.5c-0.1-0.6-0.1-1.2-0.2-1.6c-0.1-0.5-0.4-1-0.8-1.4C19,0.9,18.5,0.7,18,0.6
		c-1.7-0.2-4.1-0.3-7.5-0.3C7.2,0.4,4.7,0.5,3,0.6C2.5,0.7,2,0.9,1.6,1.3C1.2,1.7,1,2.1,0.9,2.7c-0.1,0.5-0.2,1-0.3,1.6
		C0.6,4.9,0.5,5.4,0.5,5.8c0,0.4,0,1,0,1.7s0,1.3,0,1.7c0,0.4,0,0.9,0.1,1.5c0.1,0.6,0.1,1.2,0.2,1.6c0.1,0.5,0.4,1,0.8,1.4
		C2,14.1,2.5,14.3,3,14.4c1.7,0.2,4.1,0.3,7.5,0.3c3.3,0,5.8-0.1,7.5-0.3c0.5-0.1,1-0.3,1.4-0.6c0.4-0.4,0.7-0.8,0.8-1.4
		c0.1-0.5,0.2-1,0.3-1.6c0.1-0.6,0.1-1.1,0.1-1.5c0-0.4,0-1,0-1.7S20.5,6.2,20.5,5.8L20.5,5.8z M14.5,8.1l-5.7,3.6
		c-0.1,0.1-0.2,0.1-0.4,0.1c-0.1,0-0.2,0-0.3-0.1c-0.2-0.1-0.4-0.3-0.4-0.6V3.9c0-0.3,0.1-0.5,0.4-0.6c0.3-0.1,0.5-0.1,0.7,0
		l5.7,3.6c0.2,0.1,0.3,0.3,0.3,0.6C14.8,7.8,14.7,8,14.5,8.1L14.5,8.1z M14.5,8.1"/>
</g>
</svg>
