<?xml version="1.0" encoding="utf-8"?>
<!-- Generator: Adobe Illustrator 21.0.0, SVG Export Plug-In . SVG Version: 6.00 Build 0)  -->
<svg version="1.1" id="Layer_1" xmlns="http://www.w3.org/2000/svg" xmlns:xlink="http://www.w3.org/1999/xlink" x="0px" y="0px"
	 viewBox="0 0 32 32" style="enable-background:new 0 0 32 32;" xml:space="preserve">
<style type="text/css">
	.st0{fill:#9E9E9E;}
	.st1{fill:#677763;}
	.st2{fill:#606060;}
</style>
<g>
	<path class="st0" d="M16,31.8C7.3,31.8,0.2,24.7,0.2,16S7.3,0.2,16,0.2S31.8,7.3,31.8,16S24.7,31.8,16,31.8z M16,8.2
		c-4.3,0-7.8,3.5-7.8,7.8s3.5,7.8,7.8,7.8s7.8-3.5,7.8-7.8S20.3,8.2,16,8.2z"/>
</g>
<g>
	<path class="st1" d="M8.2,16c0.2,2,1.1,3.9,2.6,5.2c1.4,1.3,3.3,2.1,5.2,2.1s3.8-0.7,5.2-2.1c1.4-1.3,2.4-3.2,2.6-5.2
		c0.2,2-0.5,4.2-2,5.8c-1.5,1.6-3.6,2.5-5.8,2.5s-4.3-0.9-5.8-2.5C8.7,20.2,8,18,8.2,16z"/>
</g>
<path class="st2" d="M8.2,16c0.2,2,1.1,3.9,2.6,5.2c1.4,1.3,3.3,2.1,5.2,2.1s3.8-0.7,5.2-2.1c1.4-1.3,2.4-3.2,2.6-5.2
	c0.2,2-0.5,4.2-2,5.8c-1.5,1.6-3.6,2.5-5.8,2.5s-4.3-0.9-5.8-2.5C8.7,20.2,8,18,8.2,16z"/>
</svg>
