<?xml version="1.0" encoding="utf-8"?>
<!-- Generator: Adobe Illustrator 21.0.0, SVG Export Plug-In . SVG Version: 6.00 Build 0)  -->
<svg version="1.1" id="Layer_1" xmlns="http://www.w3.org/2000/svg" xmlns:xlink="http://www.w3.org/1999/xlink" x="0px" y="0px"
	 viewBox="0 0 1280 698" style="enable-background:new 0 0 1280 698;" xml:space="preserve">
<style type="text/css">
	.st0{fill:#080808;}
	.st1{opacity:3.000000e-02;fill:url(#SVGID_1_);enable-background:new    ;}
	.st2{opacity:0.2;fill:url(#SVGID_2_);enable-background:new    ;}
	.st3{opacity:0.5;}
	.st4{fill:#60D142;}
	.st5{opacity:0.3;fill:url(#SVGID_3_);enable-background:new    ;}
	.st6{fill:url(#SVGID_4_);}
	.st7{fill:url(#SVGID_5_);}
	.st8{opacity:0.3;fill:url(#SVGID_6_);enable-background:new    ;}
	.st9{fill:url(#SVGID_7_);}
	.st10{opacity:0.3;fill:url(#SVGID_8_);enable-background:new    ;}
	.st11{fill:url(#SVGID_9_);}
	.st12{opacity:0.3;fill:url(#SVGID_10_);enable-background:new    ;}
	.st13{opacity:0.3;fill:url(#SVGID_11_);enable-background:new    ;}
	.st14{opacity:0.3;fill:url(#SVGID_12_);enable-background:new    ;}
	.st15{opacity:0.3;fill:url(#SVGID_13_);enable-background:new    ;}
	.st16{opacity:0.3;fill:url(#SVGID_14_);enable-background:new    ;}
	.st17{opacity:0.3;fill:url(#SVGID_15_);enable-background:new    ;}
	.st18{opacity:0.3;fill:url(#SVGID_16_);enable-background:new    ;}
	.st19{opacity:0.3;fill:url(#SVGID_17_);enable-background:new    ;}
	.st20{fill:#DCDCDC;}
	.st21{fill:url(#SVGID_18_);}
	.st22{fill:#95F47A;}
	.st23{fill:#CAFFBB;}
	.st24{fill:url(#SVGID_19_);}
	.st25{fill:url(#SVGID_20_);}
	.st26{fill:url(#SVGID_21_);}
	.st27{fill:url(#SVGID_22_);}
	.st28{fill:url(#SVGID_23_);}
	.st29{fill:url(#SVGID_24_);}
	.st30{fill:url(#SVGID_25_);}
	.st31{fill:url(#SVGID_26_);}
	.st32{fill:url(#SVGID_27_);}
	.st33{fill:url(#SVGID_28_);}
	.st34{fill:url(#SVGID_29_);}
	.st35{fill:url(#SVGID_30_);}
	.st36{fill:#6FF34D;}
	.st37{fill:#45CE20;}
	.st38{fill:#40B718;}
	.st39{fill:#FFFFFF;}
	.st40{opacity:0.29;}
	.st41{fill:url(#SVGID_31_);}
	.st42{fill:url(#SVGID_32_);}
	.st43{fill:url(#SVGID_33_);}
	.st44{fill:url(#SVGID_34_);}
	.st45{fill:url(#SVGID_35_);}
	.st46{fill:url(#SVGID_36_);}
	.st47{fill:url(#SVGID_37_);}
	.st48{fill:url(#SVGID_38_);}
	.st49{fill:url(#SVGID_39_);}
</style>
<rect x="-30" class="st0" width="1340" height="712"/>
<radialGradient id="SVGID_1_" cx="637.2355" cy="371.7048" r="710.0542" gradientTransform="matrix(1 0 0 -1 0 698)" gradientUnits="userSpaceOnUse">
	<stop  offset="0" style="stop-color:#FFFFFF"/>
	<stop  offset="0.6282" style="stop-color:#FFFFFF;stop-opacity:0"/>
</radialGradient>
<path class="st1" d="M1210.5,376.5c-0.7-0.4-1.5-0.8-2.2-1.1l-44.6,25.9l-86-49.7l44.8-26c-0.7-0.4-1.3-0.8-2-1.3l-44.9,26.1
	l-86-49.7l51.7-30c-0.6-0.5-1.3-0.9-1.9-1.4l-51.9,30.2l-86-49.7l47.9-27.8c-0.8-0.3-1.7-0.7-2.5-1l-47.5,27.6l-86-49.7l34.3-19.9
	c-0.8-0.4-1.5-0.7-2.3-1.1l-34.1,19.8l-86-49.7l33.4-19.4c-0.7-0.4-1.3-0.9-2-1.3L723,146.8l-86-49.7l44-25.5
	c-0.6-0.4-1.2-0.9-1.8-1.4L634.8,96l-7.2-4.1c-0.7,0.4-1.4,0.8-2.1,1.2l7.2,4.1l-85.5,49.7l-6.6-3.8c-0.7,0.4-1.4,0.8-2.1,1.3
	l6.6,3.8l-85.5,49.7l-6.2-3.6c-0.7,0.4-1.4,0.8-2.1,1.2l6.2,3.6L372,248.8l-6.6-3.8c-0.7,0.4-1.4,0.8-2.1,1.2l6.6,3.8l-85.4,49.7
	l-3.3-1.9c-0.7,0.4-1.4,0.9-2,1.3l3.2,1.9l-85.5,49.7l-3-1.7c-0.7,0.4-1.4,0.8-2.2,1.2l3,1.8l-85.5,49.7l-9.8-5.6
	c-0.8,0.4-1.6,0.7-2.3,1.1l0,0l10,5.8l-29.2,17c0.7,0.4,1.4,0.8,2.1,1.2l29.2-17l86,49.7l-35.1,20.4c0.6,0.4,1.3,0.9,1.9,1.3
	l35.4-20.6l86,49.7L243.2,528c0.7,0.4,1.4,0.8,2.2,1.2l40.1-23.3l86,49.7l-39.3,22.9c0.7,0.4,1.4,0.8,2.1,1.2l39.4-22.9l86,49.7
	L419,630.2c0.7,0.4,1.3,0.8,2,1.3l40.9-23.7l86,49.7l-39.3,22.8c0.8,0.4,1.6,0.7,2.4,1.1l39.1-22.7l15.2,8.8
	c0.6-0.5,1.2-0.9,1.8-1.4l-15-8.6l85.5-49.7l86,49.7l-17.7,10.3c0.5,0.5,1.1,1,1.6,1.5l18.2-10.6l26,15c0.7-0.4,1.5-0.8,2.2-1.2
	l-26-15l85.5-49.7l30.2,17.5c0.7-0.4,1.5-0.8,2.2-1.2l-30.4-17.5l85.5-49.7l32.8,18.9c0.7-0.4,1.4-0.8,2.1-1.2l-32.7-18.9l85.5-49.7
	l33.4,19.3c0.7-0.4,1.5-0.8,2.2-1.2l-33.5-19.3l85.5-49.7l37.5,21.7c0.7-0.4,1.5-0.8,2.2-1.1l-37.6-21.7l85.5-49.7l44.3,25.6
	c0.8-0.4,1.5-0.7,2.3-1.1l-44.5-25.7L1210.5,376.5z M1073.5,351.6L988,401.3l-86-49.7l85.5-49.7L1073.5,351.6z M550.5,351.6
	l85.5-49.7l86,49.7l-85.5,49.7L550.5,351.6z M634.4,402.5l-85.5,49.7l-86-49.7l85.5-49.7L634.4,402.5z M724.1,352.9l86,49.7
	l-85.5,49.7l-86-49.7L724.1,352.9z M726.2,351.6l85.5-49.7l86,49.7l-85.5,49.7L726.2,351.6z M724.1,350.4L638,300.7l85.5-49.7
	l86,49.7L724.1,350.4z M636,299.5l-86-49.7l85.4-49.7l86,49.7L636,299.5z M633.9,300.7l-85.5,49.7l-86-49.7l85.5-49.7L633.9,300.7z
	 M546.3,351.6l-85.5,49.7l-86-49.7l85.5-49.7L546.3,351.6z M458.7,402.5l-85.5,49.7l-86-49.7l85.5-49.7L458.7,402.5z M460.8,403.7
	l86,49.7l-85.5,49.7l-86-49.7L460.8,403.7z M549,454.6l86,49.7L549.5,554l-86-49.7L549,454.6z M551.1,453.4l85.5-49.7l86,49.7
	l-85.5,49.7L551.1,453.4z M724.7,454.6l86,49.7L725.2,554l-86-49.7L724.7,454.6z M726.8,453.4l85.5-49.7l86,49.7l-85.5,49.7
	L726.8,453.4z M814.4,402.5l85.5-49.7l86,49.7l-85.5,49.7L814.4,402.5z M899.3,251.1l86,49.7l-85.5,49.7l-86-49.7L899.3,251.1z
	 M811.1,200.2l86,49.7l-85.5,49.7l-86-49.7L811.1,200.2z M809,198.9l-85.5,49.7l-86-49.7l85.5-49.7L809,198.9z M634.8,98.4l86,49.7
	l-85.5,49.6l-86-49.7L634.8,98.4z M547.3,149.3l86,49.7l-85.5,49.7l-86-49.7L547.3,149.3z M459.7,200.2l86,49.7l-85.5,49.7l-86-49.7
	L459.7,200.2z M372.1,251.1l86,49.7l-85.5,49.7l-86-49.7L372.1,251.1z M284.5,301.9l86,49.7L285,401.3l-86-49.7L284.5,301.9z
	 M111.5,402.5l85.4-49.7l86,49.7l-85.4,49.7L111.5,402.5z M199.7,453.4l85.4-49.7l86,49.7l-85.4,49.7L199.7,453.4z M373.8,554
	l-86-49.7l85.5-49.7l86,49.7L373.8,554z M462,604.9l-86-49.7l85.5-49.7l86,49.7L462,604.9z M550.1,655.8l-86-49.7l85.5-49.7l86,49.7
	L550.1,655.8z M551.7,555.2l85.5-49.7l86,49.7l-85.5,49.7L551.7,555.2z M725.8,655.8l-86-49.7l85.5-49.7l86,49.7L725.8,655.8z
	 M813.4,604.9l-86-49.7l85.5-49.7l86,49.7L813.4,604.9z M901,554l-86-49.7l85.5-49.7l86,49.7L901,554z M988.5,503.1l-86-49.7
	l85.5-49.7l86,49.7L988.5,503.1z M1076.1,452.2l-86-49.7l85.5-49.7l86,49.7L1076.1,452.2z"/>
<radialGradient id="SVGID_2_" cx="635.9361" cy="371.6816" r="710.2432" gradientTransform="matrix(1 0 0 -1 0 698)" gradientUnits="userSpaceOnUse">
	<stop  offset="0" style="stop-color:#6FF34D"/>
	<stop  offset="0.3132" style="stop-color:#6FF34D;stop-opacity:0"/>
</radialGradient>
<path class="st2" d="M1213.4,371.8l-50.8,29.5l-86-49.7l85.5-49.7l49.1,28.3c0.4-0.6,0.8-1.2,1.2-1.7l-48.2-27.8l51-29.6
	c-0.7-0.4-1.4-0.9-2-1.3l-51.1,29.7l-86-49.7l52.8-30.7c-0.7-0.4-1.4-0.8-2.1-1.2l-52.9,30.7l-86-49.7l50.9-29.6
	c-0.7-0.4-1.5-0.8-2.2-1.2l-50.8,29.5l-86-49.7l48.9-28.4c-0.7-0.4-1.4-0.8-2.1-1.2l-48.9,28.4l-86-49.7l51.8-30
	c-0.7-0.4-1.3-0.9-2-1.3l-52,30.2l-86-49.7L784.2,11c-0.6-0.5-1.2-0.9-1.9-1.4L721.4,45l-29.3-16.9c-0.2,0.7-0.5,1.4-0.8,2l28,16.1
	L633.8,96l-86-49.7l33.6-19.5c-0.6-0.5-1.2-0.9-1.8-1.4l-34,19.6l-33.3-19.2c-0.8,0.4-1.6,0.7-2.4,1.1l33.6,19.4L458,96l-46.4-26.8
	c-0.8,0.4-1.6,0.7-2.3,1.1L456,97.2l-85.5,49.7L324.1,120c-0.7,0.4-1.3,0.9-2,1.3l46.3,26.7l-85.5,49.7l-40.8-23.5
	c-0.6,0.4-1.3,0.9-1.9,1.3l40.6,23.4l-85.5,49.7l-33.6-19.4c-0.6,0.4-1.3,0.9-1.9,1.3l33.4,19.3l-85.5,49.7L78,282.3
	c-0.7,0.4-1.4,0.8-2.1,1.2l29.7,17.2l-40.8,23.7c0.6,0.5,1.2,0.9,1.8,1.4l41.2-24l86,49.7l-85.5,49.7L69,378.5
	c-0.5,0.5-1.1,1-1.7,1.5l38.9,22.5l-39.1,22.7c0.5,0.5,1.1,1,1.6,1.5l39.6-23l86,49.7l-53.2,30.9c0.6,0.4,1.3,0.9,1.9,1.3l53.4-31
	l86,49.7L226.3,537c0.7,0.4,1.4,0.8,2.2,1.2l56.2-32.7l86,49.7l-53.4,31c0.7,0.4,1.5,0.8,2.2,1.2l53.3-31l86,49.7l-48.6,28.2
	l2.2,1.1l48.5-28.2l86,49.7l-43.8,25.4c0.8,0.4,1.5,0.8,2.3,1.2l43.6-25.4l42.1,24.3c0.5-0.5,1-1,1.5-1.5l-41.6-24l85.5-49.7
	l86,49.7L679.3,682c0.6,0.4,1.2,0.9,1.9,1.4l43.5-25.3l33.5,19.3c0.7-0.4,1.3-0.9,2-1.3L726.9,657l85.5-49.7l32,18.5
	c0.7-0.4,1.4-0.8,2.1-1.2l-32.1-18.5l85.5-49.7l34.6,20c0.7-0.4,1.5-0.8,2.2-1.2l-34.7-20l85.5-49.7l39,22.5
	c0.8-0.4,1.5-0.8,2.2-1.2l-39.2-22.6l85.5-49.7l45.2,26.1c0.7-0.4,1.5-0.8,2.2-1.1l-45.3-26.2l85.5-49.7l47.7,27.6
	c0.7-0.4,1.4-0.8,2.1-1.3l-47.7-27.5l50-29.1C1214.3,372.9,1213.8,372.3,1213.4,371.8z M1160,300.7l-85.5,49.7l-86-49.7L1074,251
	L1160,300.7z M545.3,351.6l-85.5,49.7l-86-49.7l85.5-49.7L545.3,351.6z M461.3,300.7l85.5-49.7l86,49.7l-85.5,49.7L461.3,300.7z
	 M547.3,352.9l86,49.7l-85.5,49.7l-86-49.7L547.3,352.9z M549.5,351.6l85.5-49.7l86,49.7l-85.5,49.7L549.5,351.6z M637,300.7
	l85.5-49.7l86,49.7l-85.4,49.7L637,300.7z M723.1,352.9l86,49.7l-85.5,49.7l-86-49.7L723.1,352.9z M725.2,351.6l85.5-49.7l86,49.7
	l-85.5,49.7L725.2,351.6z M812.8,300.7l85.5-49.7l86,49.7l-85.5,49.7L812.8,300.7z M810.6,299.5l-86-49.7l85.5-49.7l86,49.7
	L810.6,299.5z M722.5,248.6l-86-49.7l85.5-49.7l86,49.7L722.5,248.6z M720.4,249.8L635,299.5l-86-49.7l85.4-49.7L720.4,249.8z
	 M546.8,248.6l-86-49.7l85.5-49.7l86,49.7L546.8,248.6z M544.7,249.8l-85.5,49.7l-86-49.7l85.5-49.7L544.7,249.8z M457.1,300.7
	l-85.5,49.7l-86-49.7l85.5-49.7L457.1,300.7z M369.5,351.6L284,401.3l-86-49.7l85.5-49.7L369.5,351.6z M371.6,352.9l86,49.7
	l-85.5,49.7l-86-49.7L371.6,352.9z M459.8,403.7l86,49.7l-85.5,49.7l-86-49.7L459.8,403.7z M547.9,454.6l86,49.7L548.5,554l-86-49.7
	L547.9,454.6z M550,453.4l85.5-49.7l86,49.7L636,503.1L550,453.4z M723.6,454.6l86,49.7L724.2,554l-86-49.7L723.6,454.6z
	 M725.8,453.4l85.5-49.7l86,49.7l-85.5,49.7L725.8,453.4z M813.4,402.5l85.5-49.7l86,49.7l-85.5,49.7L813.4,402.5z M900.9,351.6
	l85.5-49.7l86,49.7l-85.5,49.7L900.9,351.6z M985.8,200.2l86,49.7l-85.5,49.7l-86-49.7L985.8,200.2z M897.7,149.3l86,49.7
	l-85.5,49.7l-86-49.7L897.7,149.3z M809.5,98.4l86,49.7L810,197.8l-86-49.7L809.5,98.4z M721.4,47.5l86,49.7l-85.5,49.7l-86-49.7
	L721.4,47.5z M719.8,148.1l-85.5,49.6l-86-49.7l85.5-49.6L719.8,148.1z M545.6,47.5l86,49.7l-85.5,49.7l-86-49.7L545.6,47.5z
	 M458.1,98.4l86,49.7l-85.5,49.7l-86-49.7L458.1,98.4z M370.5,149.3l86,49.7L371,248.6l-86-49.7L370.5,149.3z M282.9,200.2l86,49.7
	l-85.4,49.7l-86-49.7L282.9,200.2z M109.9,300.7l85.5-49.7l86,49.7l-85.5,49.7L109.9,300.7z M110.5,402.5l85.4-49.7l86,49.7
	l-85.4,49.7L110.5,402.5z M198.6,453.4l85.4-49.7l86,49.7l-85.4,49.7L198.6,453.4z M372.8,554l-86-49.7l85.5-49.7l86,49.7L372.8,554
	z M460.9,604.9l-86-49.7l85.5-49.7l86,49.7L460.9,604.9z M549.1,655.8l-86-49.7l85.5-49.7l86,49.7L549.1,655.8z M550.6,555.2
	l85.5-49.7l86,49.7l-85.5,49.7L550.6,555.2z M724.8,655.8l-86-49.7l85.5-49.7l86,49.7L724.8,655.8z M812.4,604.9l-86-49.7l85.5-49.7
	l86,49.7L812.4,604.9z M899.9,554l-86-49.7l85.5-49.7l86,49.7L899.9,554z M987.5,503.1l-86-49.7l85.5-49.7l86,49.7L987.5,503.1z
	 M1075.1,452.2l-86-49.7l85.5-49.7l86,49.7L1075.1,452.2z"/>
<g>
	<g class="st3">
		<g>
			<g>
				<path class="st4" d="M1012.9,207.4c2.9,1.7,2.9,4.4,0,6.1l-13.2,7.7c-2.9,1.7-7.6,1.7-10.5,0l-13.3-7.7c-2.9-1.7-2.9-4.4,0-6.1
					l13.2-7.7c2.9-1.7,7.6-1.7,10.5,0L1012.9,207.4z"/>
			</g>
			
				<linearGradient id="SVGID_3_" gradientUnits="userSpaceOnUse" x1="994.3" y1="475.2" x2="994.3" y2="565.5" gradientTransform="matrix(1 0 0 -1 0 698)">
				<stop  offset="0" style="stop-color:#6FF34D"/>
				<stop  offset="1" style="stop-color:#6FF34D;stop-opacity:0"/>
			</linearGradient>
			<polygon class="st5" points="976.3,208.7 976.3,132.5 1012.3,132.5 1011.9,208.7 994.1,222.8 			"/>
		</g>
		<g>
			
				<linearGradient id="SVGID_4_" gradientUnits="userSpaceOnUse" x1="1066.95" y1="404.7" x2="1066.95" y2="541.3" gradientTransform="matrix(1 0 0 -1 0 698)">
				<stop  offset="0" style="stop-color:#6FF34D;stop-opacity:0"/>
				<stop  offset="8.311177e-02" style="stop-color:#6FF34D;stop-opacity:0.1458"/>
				<stop  offset="0.57" style="stop-color:#6FF34D"/>
				<stop  offset="0.6087" style="stop-color:#6FF34D;stop-opacity:0.8721"/>
				<stop  offset="0.843" style="stop-color:#6FF34D;stop-opacity:9.778738e-02"/>
				<stop  offset="1" style="stop-color:#6FF34D;stop-opacity:0"/>
			</linearGradient>
			<polygon class="st6" points="1138.9,293.3 993.9,209.4 1080.9,156.7 1082.1,158.6 998.3,209.3 1140,291.3 			"/>
		</g>
	</g>
	<g class="st3">
		<g>
			
				<linearGradient id="SVGID_5_" gradientUnits="userSpaceOnUse" x1="1960.5754" y1="172.3" x2="2151.9756" y2="172.3" gradientTransform="matrix(-1 0 0 -1 3089.3755 698)">
				<stop  offset="0" style="stop-color:#6FF34D;stop-opacity:0"/>
				<stop  offset="8.311177e-02" style="stop-color:#6FF34D;stop-opacity:0.1458"/>
				<stop  offset="0.57" style="stop-color:#6FF34D"/>
				<stop  offset="0.958" style="stop-color:#6FF34D;stop-opacity:9.778738e-02"/>
				<stop  offset="1" style="stop-color:#6FF34D;stop-opacity:0"/>
			</linearGradient>
			<polygon class="st7" points="1074.8,552 989.3,502.5 938.8,536 937.4,533.8 989.2,499.4 989.9,499.8 1074.7,548.9 1127.4,515.5 
				1128.8,517.7 			"/>
		</g>
		<g>
			<g>
				<path class="st4" d="M1092.1,542.8c3.2,1.9,3.3,4.9,0,6.8l-10.6,6.1c-3.2,1.9-8.5,1.9-11.7,0l-10.7-6.2c-3.2-1.9-3.3-4.9,0-6.8
					l10.6-6.1c3.2-1.9,8.5-1.9,11.7,0L1092.1,542.8z"/>
			</g>
		</g>
		
			<linearGradient id="SVGID_6_" gradientUnits="userSpaceOnUse" x1="1075.5499" y1="141.5" x2="1075.5499" y2="226.4" gradientTransform="matrix(1 0 0 -1 0 698)">
			<stop  offset="0" style="stop-color:#6FF34D"/>
			<stop  offset="1" style="stop-color:#6FF34D;stop-opacity:0"/>
		</linearGradient>
		<polygon class="st8" points="1058.6,543.2 1058.6,471.6 1092.5,471.6 1092.1,543.2 1075.4,556.5 		"/>
	</g>
</g>
<g class="st3">
	<g>
		<g>
			
				<linearGradient id="SVGID_7_" gradientUnits="userSpaceOnUse" x1="230.75" y1="16.7" x2="230.75" y2="198.7" gradientTransform="matrix(1 0 0 -1 0 698)">
				<stop  offset="0" style="stop-color:#6FF34D;stop-opacity:0"/>
				<stop  offset="8.311177e-02" style="stop-color:#6FF34D;stop-opacity:0.1458"/>
				<stop  offset="0.57" style="stop-color:#6FF34D"/>
				<stop  offset="0.625" style="stop-color:#6FF34D;stop-opacity:0.8721"/>
				<stop  offset="0.958" style="stop-color:#6FF34D;stop-opacity:9.778738e-02"/>
				<stop  offset="1" style="stop-color:#6FF34D;stop-opacity:0"/>
			</linearGradient>
			<polygon class="st9" points="164,681.3 162.9,679.4 294.2,602.4 207.6,551.6 295.9,499.3 297,501.2 212,551.6 298.6,602.4 			"/>
		</g>
		<g>
			<path class="st4" d="M315.8,599.3c2.9,1.7,2.9,4.4,0,6l-13.1,7.6c-2.9,1.7-7.5,1.7-10.4,0l-13.2-7.6c-2.9-1.7-2.9-4.4,0-6
				l13.1-7.6c2.9-1.7,7.5-1.7,10.4,0L315.8,599.3z"/>
		</g>
	</g>
	
		<linearGradient id="SVGID_8_" gradientUnits="userSpaceOnUse" x1="297.4" y1="83.3" x2="297.4" y2="173" gradientTransform="matrix(1 0 0 -1 0 698)">
		<stop  offset="0" style="stop-color:#6FF34D"/>
		<stop  offset="1" style="stop-color:#6FF34D;stop-opacity:0"/>
	</linearGradient>
	<polygon class="st10" points="279.5,600.6 279.5,525 315.3,525 314.9,600.6 297.2,614.7 	"/>
</g>
<g class="st3">
	
		<linearGradient id="SVGID_9_" gradientUnits="userSpaceOnUse" x1="2127.9512" y1="369" x2="1892.0729" y2="369" gradientTransform="matrix(-1 0 0 -1 2234.9512 698)">
		<stop  offset="0" style="stop-color:#6FF34D;stop-opacity:0"/>
		<stop  offset="8.311177e-02" style="stop-color:#6FF34D;stop-opacity:0.1458"/>
		<stop  offset="0.57" style="stop-color:#6FF34D"/>
		<stop  offset="0.625" style="stop-color:#6FF34D;stop-opacity:0.8721"/>
		<stop  offset="0.958" style="stop-color:#6FF34D;stop-opacity:9.778738e-02"/>
		<stop  offset="1" style="stop-color:#6FF34D;stop-opacity:0"/>
	</linearGradient>
	<path class="st11" d="M108.2,293c-0.4,0.5-0.8,1-1.2,1.5L229,365l1-1.7L108.2,293z"/>
	<g>
		<g>
			<path class="st4" d="M248.8,363c2.6,1.5,2.6,3.9,0,5.3l-11.6,6.7c-2.5,1.5-6.7,1.5-9.2,0l-11.7-6.7c-2.6-1.5-2.6-3.9,0-5.3
				l11.6-6.7c2.5-1.5,6.7-1.5,9.2,0L248.8,363z"/>
		</g>
		
			<linearGradient id="SVGID_10_" gradientUnits="userSpaceOnUse" x1="2421.926" y1="321.4" x2="2421.926" y2="400.7" gradientTransform="matrix(-1 0 0 -1 2654.5762 698)">
			<stop  offset="0" style="stop-color:#6FF34D"/>
			<stop  offset="1" style="stop-color:#6FF34D;stop-opacity:0"/>
		</linearGradient>
		<polygon class="st12" points="248.5,364.2 248.5,297.3 216.8,297.3 217.2,364.2 232.8,376.6 		"/>
	</g>
</g>
<g>
	<g>
		<path class="st4" d="M558.2,249.8c1.7,1,1.7,2.5,0,3.5l-7.5,4.4c-1.7,1-4.3,1-6,0l-7.6-4.4c-1.7-1-1.7-2.5,0-3.5l7.5-4.4
			c1.7-1,4.3-1,6,0L558.2,249.8z"/>
	</g>
	
		<linearGradient id="SVGID_11_" gradientUnits="userSpaceOnUse" x1="2106.926" y1="439.4" x2="2106.926" y2="491" gradientTransform="matrix(-1 0 0 -1 2654.5762 698)">
		<stop  offset="0" style="stop-color:#6FF34D"/>
		<stop  offset="1" style="stop-color:#6FF34D;stop-opacity:0"/>
	</linearGradient>
	<polygon class="st13" points="557.9,250.5 557.9,207 537.4,207 537.6,250.5 547.8,258.6 	"/>
</g>
<g>
	<g>
		<path class="st4" d="M469.2,300.8c1.7,1,1.7,2.5,0,3.5l-7.5,4.4c-1.7,1-4.3,1-6,0l-7.6-4.4c-1.7-1-1.7-2.5,0-3.5l7.5-4.4
			c1.7-1,4.3-1,6,0L469.2,300.8z"/>
	</g>
	
		<linearGradient id="SVGID_12_" gradientUnits="userSpaceOnUse" x1="2195.926" y1="388.4" x2="2195.926" y2="440" gradientTransform="matrix(-1 0 0 -1 2654.5762 698)">
		<stop  offset="0" style="stop-color:#6FF34D"/>
		<stop  offset="1" style="stop-color:#6FF34D;stop-opacity:0"/>
	</linearGradient>
	<polygon class="st14" points="468.9,301.5 468.9,258 448.4,258 448.6,301.5 458.8,309.6 	"/>
</g>
<g>
	<g>
		<path class="st4" d="M469.2,198.8c1.7,1,1.7,2.5,0,3.5l-7.5,4.4c-1.7,1-4.3,1-6,0l-7.6-4.4c-1.7-1-1.7-2.5,0-3.5l7.5-4.4
			c1.7-1,4.3-1,6,0L469.2,198.8z"/>
	</g>
	
		<linearGradient id="SVGID_13_" gradientUnits="userSpaceOnUse" x1="2195.926" y1="490.4" x2="2195.926" y2="542" gradientTransform="matrix(-1 0 0 -1 2654.5762 698)">
		<stop  offset="0" style="stop-color:#6FF34D"/>
		<stop  offset="1" style="stop-color:#6FF34D;stop-opacity:0"/>
	</linearGradient>
	<polygon class="st15" points="468.9,199.5 468.9,156 448.4,156 448.6,199.5 458.8,207.6 	"/>
</g>
<g>
	<g>
		<path class="st4" d="M823.2,299.8c1.7,1,1.7,2.5,0,3.5l-7.5,4.4c-1.7,1-4.3,1-6,0l-7.6-4.4c-1.7-1-1.7-2.5,0-3.5l7.5-4.4
			c1.7-1,4.3-1,6,0L823.2,299.8z"/>
	</g>
	
		<linearGradient id="SVGID_14_" gradientUnits="userSpaceOnUse" x1="1841.926" y1="389.4" x2="1841.926" y2="441" gradientTransform="matrix(-1 0 0 -1 2654.5762 698)">
		<stop  offset="0" style="stop-color:#6FF34D"/>
		<stop  offset="1" style="stop-color:#6FF34D;stop-opacity:0"/>
	</linearGradient>
	<polygon class="st16" points="822.9,300.5 822.9,257 802.4,257 802.6,300.5 812.8,308.6 	"/>
</g>
<g>
	<g>
		<path class="st4" d="M823.2,197.8c1.7,1,1.7,2.5,0,3.5l-7.5,4.4c-1.7,1-4.3,1-6,0l-7.6-4.4c-1.7-1-1.7-2.5,0-3.5l7.5-4.4
			c1.7-1,4.3-1,6,0L823.2,197.8z"/>
	</g>
	
		<linearGradient id="SVGID_15_" gradientUnits="userSpaceOnUse" x1="1841.926" y1="491.4" x2="1841.926" y2="543" gradientTransform="matrix(-1 0 0 -1 2654.5762 698)">
		<stop  offset="0" style="stop-color:#6FF34D"/>
		<stop  offset="1" style="stop-color:#6FF34D;stop-opacity:0"/>
	</linearGradient>
	<polygon class="st17" points="822.9,198.5 822.9,155 802.4,155 802.6,198.5 812.8,206.6 	"/>
</g>
<g>
	<g>
		<path class="st4" d="M731.2,248.8c1.7,1,1.7,2.5,0,3.5l-7.5,4.4c-1.7,1-4.3,1-6,0l-7.6-4.4c-1.7-1-1.7-2.5,0-3.5l7.5-4.4
			c1.7-1,4.3-1,6,0L731.2,248.8z"/>
	</g>
	
		<linearGradient id="SVGID_16_" gradientUnits="userSpaceOnUse" x1="1933.926" y1="440.4" x2="1933.926" y2="492" gradientTransform="matrix(-1 0 0 -1 2654.5762 698)">
		<stop  offset="0" style="stop-color:#6FF34D"/>
		<stop  offset="1" style="stop-color:#6FF34D;stop-opacity:0"/>
	</linearGradient>
	<polygon class="st18" points="730.9,249.5 730.9,206 710.4,206 710.6,249.5 720.8,257.6 	"/>
</g>
<g>
	<g>
		<path class="st4" d="M645.2,300.8c1.7,1,1.7,2.5,0,3.5l-7.5,4.4c-1.7,1-4.3,1-6,0l-7.6-4.4c-1.7-1-1.7-2.5,0-3.5l7.5-4.4
			c1.7-1,4.3-1,6,0L645.2,300.8z"/>
	</g>
	
		<linearGradient id="SVGID_17_" gradientUnits="userSpaceOnUse" x1="2019.926" y1="388.4" x2="2019.926" y2="440" gradientTransform="matrix(-1 0 0 -1 2654.5762 698)">
		<stop  offset="0" style="stop-color:#6FF34D"/>
		<stop  offset="1" style="stop-color:#6FF34D;stop-opacity:0"/>
	</linearGradient>
	<polygon class="st19" points="644.9,301.5 644.9,258 624.4,258 624.6,301.5 634.8,309.6 	"/>
</g>
<g>
	<path class="st20" d="M673.6,225.1c23.1,13.3,23.2,35,0.3,48.3s-60.3,13.3-83.4,0c-23.1-13.3-23.2-35-0.3-48.3
		C613.1,211.8,650.5,211.8,673.6,225.1z M591.9,272.5c22.3,12.9,58.4,12.9,80.5,0s22-33.8-0.3-46.6c-22.3-12.9-58.4-12.9-80.5,0
		C569.5,238.8,569.6,259.7,591.9,272.5"/>
</g>
<g>
	
		<linearGradient id="SVGID_18_" gradientUnits="userSpaceOnUse" x1="630.9" y1="495.4" x2="630.9" y2="495.4" gradientTransform="matrix(1 0 0 -1 0 698)">
		<stop  offset="0" style="stop-color:#564C97"/>
		<stop  offset="0.375" style="stop-color:#6762B3"/>
		<stop  offset="1" style="stop-color:#878CEA"/>
	</linearGradient>
	<path class="st21" d="M630.9,202.6"/>
	<g>
		<polygon class="st22" points="630.9,155.5 658.3,140.1 630.9,124.2 603.7,140.1 		"/>
		<polygon class="st23" points="630.9,150.6 649.7,140 630.9,129.1 612.3,140 		"/>
		<g>
			
				<linearGradient id="SVGID_19_" gradientUnits="userSpaceOnUse" x1="614.7772" y1="557.95" x2="623.6607" y2="557.95" gradientTransform="matrix(1 0 0 -1 0 698)">
				<stop  offset="0.2309" style="stop-color:#22F34D"/>
				<stop  offset="0.3962" style="stop-color:#42F34D"/>
				<stop  offset="0.5608" style="stop-color:#5BF34D"/>
				<stop  offset="0.7115" style="stop-color:#6AF34D"/>
				<stop  offset="0.8353" style="stop-color:#6FF34D"/>
				<stop  offset="1" style="stop-color:#E8E9FD"/>
			</linearGradient>
			<polygon class="st24" points="619.2,142.6 623.7,140.1 619.2,137.5 614.8,140.1 			"/>
			
				<linearGradient id="SVGID_20_" gradientUnits="userSpaceOnUse" x1="623.0853" y1="563.05" x2="631.9689" y2="563.05" gradientTransform="matrix(1 0 0 -1 0 698)">
				<stop  offset="0.2309" style="stop-color:#22F34D"/>
				<stop  offset="0.3962" style="stop-color:#42F34D"/>
				<stop  offset="0.5608" style="stop-color:#5BF34D"/>
				<stop  offset="0.7115" style="stop-color:#6AF34D"/>
				<stop  offset="0.8353" style="stop-color:#6FF34D"/>
				<stop  offset="1" style="stop-color:#E8E9FD"/>
			</linearGradient>
			<polygon class="st25" points="627.5,137.5 632,135 627.5,132.4 623.1,135 			"/>
			
				<linearGradient id="SVGID_21_" gradientUnits="userSpaceOnUse" x1="623.5193" y1="554.35" x2="635.0863" y2="554.35" gradientTransform="matrix(1 0 0 -1 0 698)">
				<stop  offset="0.2309" style="stop-color:#22F34D"/>
				<stop  offset="0.3962" style="stop-color:#42F34D"/>
				<stop  offset="0.5608" style="stop-color:#5BF34D"/>
				<stop  offset="0.7115" style="stop-color:#6AF34D"/>
				<stop  offset="0.8353" style="stop-color:#6FF34D"/>
				<stop  offset="1" style="stop-color:#E8E9FD"/>
			</linearGradient>
			<polygon class="st26" points="629.3,147 635.1,143.7 629.3,140.3 623.5,143.7 			"/>
			
				<linearGradient id="SVGID_22_" gradientUnits="userSpaceOnUse" x1="624.5927" y1="559.45" x2="628.9035" y2="559.45" gradientTransform="matrix(1 0 0 -1 0 698)">
				<stop  offset="0.2309" style="stop-color:#22F34D"/>
				<stop  offset="0.3962" style="stop-color:#42F34D"/>
				<stop  offset="0.5608" style="stop-color:#5BF34D"/>
				<stop  offset="0.7115" style="stop-color:#6AF34D"/>
				<stop  offset="0.8353" style="stop-color:#6FF34D"/>
				<stop  offset="1" style="stop-color:#E8E9FD"/>
			</linearGradient>
			<polygon class="st27" points="626.7,139.8 628.9,138.6 626.7,137.3 624.6,138.6 			"/>
			
				<linearGradient id="SVGID_23_" gradientUnits="userSpaceOnUse" x1="632.4927" y1="556.7" x2="636.8035" y2="556.7" gradientTransform="matrix(1 0 0 -1 0 698)">
				<stop  offset="0.2309" style="stop-color:#22F34D"/>
				<stop  offset="0.3962" style="stop-color:#42F34D"/>
				<stop  offset="0.5608" style="stop-color:#5BF34D"/>
				<stop  offset="0.7115" style="stop-color:#6AF34D"/>
				<stop  offset="0.8353" style="stop-color:#6FF34D"/>
				<stop  offset="1" style="stop-color:#E8E9FD"/>
			</linearGradient>
			<polygon class="st28" points="634.6,142.5 636.8,141.3 634.6,140.1 632.5,141.3 			"/>
			
				<linearGradient id="SVGID_24_" gradientUnits="userSpaceOnUse" x1="640.2557" y1="558.35" x2="644.5665" y2="558.35" gradientTransform="matrix(1 0 0 -1 0 698)">
				<stop  offset="0.2309" style="stop-color:#22F34D"/>
				<stop  offset="0.3962" style="stop-color:#42F34D"/>
				<stop  offset="0.5608" style="stop-color:#5BF34D"/>
				<stop  offset="0.7115" style="stop-color:#6AF34D"/>
				<stop  offset="0.8353" style="stop-color:#6FF34D"/>
				<stop  offset="1" style="stop-color:#E8E9FD"/>
			</linearGradient>
			<polygon class="st29" points="642.4,140.9 644.6,139.7 642.4,138.4 640.3,139.7 			"/>
			
				<linearGradient id="SVGID_25_" gradientUnits="userSpaceOnUse" x1="629.0558" y1="558.35" x2="633.3666" y2="558.35" gradientTransform="matrix(1 0 0 -1 0 698)">
				<stop  offset="0.2309" style="stop-color:#22F34D"/>
				<stop  offset="0.3962" style="stop-color:#42F34D"/>
				<stop  offset="0.5608" style="stop-color:#5BF34D"/>
				<stop  offset="0.7115" style="stop-color:#6AF34D"/>
				<stop  offset="0.8353" style="stop-color:#6FF34D"/>
				<stop  offset="1" style="stop-color:#E8E9FD"/>
			</linearGradient>
			<polygon class="st30" points="631.2,140.9 633.4,139.7 631.2,138.4 629.1,139.7 			"/>
			
				<linearGradient id="SVGID_26_" gradientUnits="userSpaceOnUse" x1="621.9394" y1="561.05" x2="624.2313" y2="561.05" gradientTransform="matrix(1 0 0 -1 0 698)">
				<stop  offset="0.2309" style="stop-color:#22F34D"/>
				<stop  offset="0.3962" style="stop-color:#42F34D"/>
				<stop  offset="0.5608" style="stop-color:#5BF34D"/>
				<stop  offset="0.7115" style="stop-color:#6AF34D"/>
				<stop  offset="0.8353" style="stop-color:#6FF34D"/>
				<stop  offset="1" style="stop-color:#E8E9FD"/>
			</linearGradient>
			<polygon class="st31" points="623.1,137.6 624.2,136.9 623.1,136.3 621.9,136.9 			"/>
			
				<linearGradient id="SVGID_27_" gradientUnits="userSpaceOnUse" x1="628.1569" y1="560.45" x2="630.4488" y2="560.45" gradientTransform="matrix(1 0 0 -1 0 698)">
				<stop  offset="0.2309" style="stop-color:#22F34D"/>
				<stop  offset="0.3962" style="stop-color:#42F34D"/>
				<stop  offset="0.5608" style="stop-color:#5BF34D"/>
				<stop  offset="0.7115" style="stop-color:#6AF34D"/>
				<stop  offset="0.8353" style="stop-color:#6FF34D"/>
				<stop  offset="1" style="stop-color:#E8E9FD"/>
			</linearGradient>
			<polygon class="st32" points="629.3,138.2 630.4,137.6 629.3,136.9 628.2,137.6 			"/>
			
				<linearGradient id="SVGID_28_" gradientUnits="userSpaceOnUse" x1="639.5762" y1="556.45" x2="641.868" y2="556.45" gradientTransform="matrix(1 0 0 -1 0 698)">
				<stop  offset="0.2309" style="stop-color:#22F34D"/>
				<stop  offset="0.3962" style="stop-color:#42F34D"/>
				<stop  offset="0.5608" style="stop-color:#5BF34D"/>
				<stop  offset="0.7115" style="stop-color:#6AF34D"/>
				<stop  offset="0.8353" style="stop-color:#6FF34D"/>
				<stop  offset="1" style="stop-color:#E8E9FD"/>
			</linearGradient>
			<polygon class="st33" points="640.7,142.2 641.9,141.6 640.7,140.9 639.6,141.6 			"/>
			
				<linearGradient id="SVGID_29_" gradientUnits="userSpaceOnUse" x1="630.823" y1="560.5" x2="633.1149" y2="560.5" gradientTransform="matrix(1 0 0 -1 0 698)">
				<stop  offset="0.2309" style="stop-color:#22F34D"/>
				<stop  offset="0.3962" style="stop-color:#42F34D"/>
				<stop  offset="0.5608" style="stop-color:#5BF34D"/>
				<stop  offset="0.7115" style="stop-color:#6AF34D"/>
				<stop  offset="0.8353" style="stop-color:#6FF34D"/>
				<stop  offset="1" style="stop-color:#E8E9FD"/>
			</linearGradient>
			<polygon class="st34" points="632,138.2 633.1,137.5 632,136.8 630.8,137.5 			"/>
			
				<linearGradient id="SVGID_30_" gradientUnits="userSpaceOnUse" x1="637.4671" y1="558.6" x2="639.759" y2="558.6" gradientTransform="matrix(1 0 0 -1 0 698)">
				<stop  offset="0.2309" style="stop-color:#22F34D"/>
				<stop  offset="0.3962" style="stop-color:#42F34D"/>
				<stop  offset="0.5608" style="stop-color:#5BF34D"/>
				<stop  offset="0.7115" style="stop-color:#6AF34D"/>
				<stop  offset="0.8353" style="stop-color:#6FF34D"/>
				<stop  offset="1" style="stop-color:#E8E9FD"/>
			</linearGradient>
			<polygon class="st35" points="638.6,140.1 639.8,139.4 638.6,138.7 637.5,139.4 			"/>
		</g>
		<polygon class="st36" points="658.3,244.7 630.9,260.6 630.9,155.5 658.3,140.1 		"/>
		<polygon class="st37" points="630.9,155.5 603.7,140.1 603.7,244.9 630.9,260.6 		"/>
		<g>
			<polygon class="st38" points="626.8,163 625.5,162.2 625.5,167.3 626.8,168 			"/>
			<polygon class="st38" points="626.5,170.7 625.8,170.3 625.8,173 626.5,173.4 			"/>
			<polygon class="st38" points="625.1,172.8 624.4,172.4 624.4,175.1 625.1,175.5 			"/>
			<polygon class="st38" points="625.2,167 623.9,166.3 623.9,171.3 625.2,172.1 			"/>
			<polygon class="st38" points="613.1,168.4 611.8,167.6 611.8,172.7 613.1,173.4 			"/>
			<polygon class="st38" points="625,159 623.7,158.2 623.7,163.3 625,164 			"/>
			<polygon class="st38" points="624.8,177.7 623.5,176.9 623.5,182 624.8,182.7 			"/>
			<polygon class="st38" points="624.5,185.4 623.8,185 623.8,187.7 624.5,188.1 			"/>
			<polygon class="st38" points="612.8,174.6 612.1,174.2 612.1,176.9 612.8,177.3 			"/>
			<polygon class="st38" points="623.1,187.5 622.4,187.1 622.4,189.8 623.1,190.2 			"/>
			<polygon class="st38" points="623.2,181.7 621.9,180.9 621.9,186 623.2,186.7 			"/>
			<polygon class="st38" points="614.8,172.6 613.5,171.9 613.5,176.9 614.8,177.7 			"/>
			<polygon class="st38" points="623,173.6 621.7,172.9 621.7,177.9 623,178.7 			"/>
			<polygon class="st38" points="621.2,156.1 619.9,155.3 619.9,160.4 621.2,161.1 			"/>
			<polygon class="st38" points="620.9,163.8 620.2,163.4 620.2,166.1 620.9,166.5 			"/>
			<polygon class="st38" points="619.5,165.9 618.8,165.5 618.8,168.2 619.5,168.6 			"/>
			<polygon class="st38" points="608.3,152.4 607.6,152 607.6,154.7 608.3,155.1 			"/>
			<polygon class="st38" points="619.7,160.1 618.4,159.3 618.4,164.4 619.7,165.1 			"/>
			<polygon class="st38" points="607.6,161.5 606.3,160.7 606.3,165.8 607.6,166.5 			"/>
			<polygon class="st38" points="619.5,152.1 618.2,151.3 618.2,156.3 619.5,157.1 			"/>
			<polygon class="st38" points="608.7,184.2 607.4,183.5 607.4,188.5 608.7,189.3 			"/>
			<polygon class="st38" points="607.2,188.2 605.9,187.5 605.9,192.5 607.2,193.3 			"/>
			<polygon class="st38" points="607,180.2 605.7,179.4 605.7,184.5 607,185.2 			"/>
			<polygon class="st38" points="611.6,152.8 610.3,152.1 610.3,157.1 611.6,157.9 			"/>
			<polygon class="st38" points="610.1,156.8 608.8,156.1 608.8,161.1 610.1,161.9 			"/>
			<polygon class="st38" points="609.9,148.8 608.6,148 608.6,153.1 609.9,153.8 			"/>
			<polygon class="st38" points="619.2,170.8 617.9,170 617.9,175 619.2,175.8 			"/>
			<polygon class="st38" points="607.3,167.7 606.6,167.3 606.6,170 607.3,170.4 			"/>
			<polygon class="st38" points="609.2,165.7 607.9,165 607.9,170 609.2,170.8 			"/>
			<polygon class="st38" points="617.5,166.7 616.2,166 616.2,171 617.5,171.8 			"/>
			<polygon class="st38" points="626.7,193.6 625.4,192.8 625.4,197.9 626.7,198.6 			"/>
			<polygon class="st38" points="626.4,201.3 625.7,200.9 625.7,203.6 626.4,204 			"/>
			<polygon class="st38" points="625,203.4 624.3,203 624.3,205.7 625,206.1 			"/>
			<polygon class="st38" points="625.2,197.6 623.9,196.8 623.9,201.9 625.2,202.6 			"/>
			<polygon class="st38" points="625,189.6 623.7,188.8 623.7,193.9 625,194.6 			"/>
			<polygon class="st38" points="622.3,195.1 621,194.4 621,199.4 622.3,200.2 			"/>
			<polygon class="st38" points="622,202.9 621.3,202.5 621.3,205.2 622,205.6 			"/>
			<polygon class="st38" points="620.6,204.9 619.9,204.5 619.9,207.2 620.6,207.6 			"/>
			<polygon class="st38" points="620.7,199.1 619.4,198.4 619.4,203.4 620.7,204.2 			"/>
			<polygon class="st38" points="617.3,191.8 616,191 616,196.1 617.3,196.8 			"/>
			<polygon class="st38" points="620.5,191.1 619.2,190.4 619.2,195.4 620.5,196.2 			"/>
			<polygon class="st38" points="620.3,209.8 619,209.1 619,214.1 620.3,214.9 			"/>
			<polygon class="st38" points="620,217.5 619.3,217.1 619.3,219.8 620,220.3 			"/>
			<polygon class="st38" points="608.3,206.8 607.6,206.4 607.6,209.1 608.3,209.5 			"/>
			<polygon class="st38" points="618.6,219.6 617.9,219.2 617.9,221.9 618.6,222.3 			"/>
			<polygon class="st38" points="618.7,213.8 617.4,213.1 617.4,218.1 618.7,218.9 			"/>
			<polygon class="st38" points="617.3,198.8 616,198 616,203.1 617.3,203.8 			"/>
			<polygon class="st38" points="618.5,205.8 617.2,205 617.2,210.1 618.5,210.8 			"/>
			<polygon class="st38" points="622.3,225.7 620.9,225 620.9,230 622.3,230.8 			"/>
			<polygon class="st38" points="621.9,233.5 621.2,233.1 621.2,235.8 621.9,236.2 			"/>
			<polygon class="st38" points="620.5,235.5 619.8,235.1 619.8,237.8 620.5,238.2 			"/>
			<polygon class="st38" points="620.7,229.7 619.4,229 619.4,234 620.7,234.8 			"/>
			<polygon class="st38" points="620.5,221.7 619.2,220.9 619.2,226 620.5,226.7 			"/>
			<polygon class="st38" points="613,218.2 612.3,217.8 612.3,220.5 613,220.9 			"/>
			<polygon class="st38" points="611.6,220.3 610.9,219.9 610.9,222.6 611.6,223 			"/>
			<polygon class="st38" points="611.8,214.5 610.5,213.7 610.5,218.8 611.8,219.5 			"/>
			<polygon class="st38" points="615.3,226.4 614,225.6 614,230.7 615.3,231.4 			"/>
			<polygon class="st38" points="615,234.1 614.3,233.7 614.3,236.4 615,236.8 			"/>
			<polygon class="st38" points="613.6,236.2 612.9,235.8 612.9,238.5 613.6,238.9 			"/>
			<polygon class="st38" points="613.7,230.4 612.4,229.6 612.4,234.7 613.7,235.4 			"/>
			<polygon class="st38" points="613.6,222.4 612.2,221.6 612.2,226.7 613.6,227.4 			"/>
			<polygon class="st38" points="613.9,199.8 613.2,199.4 613.2,202.1 613.9,202.5 			"/>
			<polygon class="st38" points="612.5,201.9 611.8,201.5 611.8,204.2 612.5,204.6 			"/>
			<polygon class="st38" points="612.6,196.1 611.3,195.3 611.3,200.4 612.6,201.1 			"/>
			<polygon class="st38" points="616.2,208 614.9,207.3 614.9,212.3 616.2,213.1 			"/>
			<polygon class="st38" points="615.9,215.7 615.2,215.3 615.2,218.1 615.9,218.5 			"/>
			<polygon class="st38" points="614.5,217.8 613.7,217.4 613.7,220.1 614.5,220.5 			"/>
			<polygon class="st38" points="614.6,212 613.3,211.3 613.3,216.3 614.6,217.1 			"/>
			<polygon class="st38" points="614.4,204 613.1,203.2 613.1,208.3 614.4,209 			"/>
			<polygon class="st38" points="626.6,234.1 625.9,233.7 625.9,236.4 626.6,236.8 			"/>
			<polygon class="st38" points="625.2,236.2 624.5,235.8 624.5,238.5 625.2,238.9 			"/>
			<polygon class="st38" points="625.3,230.4 624,229.6 624,234.7 625.3,235.4 			"/>
			<polygon class="st38" points="628.9,242.3 627.5,241.6 627.5,246.6 628.9,247.4 			"/>
			<polygon class="st38" points="628.6,250 627.9,249.6 627.9,252.4 628.6,252.8 			"/>
			<polygon class="st38" points="627.1,252.1 626.4,251.7 626.4,254.4 627.1,254.8 			"/>
			<polygon class="st38" points="627.3,246.3 626,245.6 626,250.6 627.3,251.4 			"/>
			<polygon class="st38" points="627.1,238.3 625.8,237.5 625.8,242.6 627.1,243.3 			"/>
			<polygon class="st38" points="630.2,184.3 628.9,183.6 628.9,188.6 630.2,189.4 			"/>
			<polygon class="st38" points="630,176.3 628.7,175.5 628.7,180.6 630,181.3 			"/>
		</g>
		<g>
			<polygon class="st39" points="649.8,159.1 648.5,158.4 648.5,163.4 649.8,164.2 			"/>
			<polygon class="st39" points="649.5,166.9 648.8,166.5 648.8,169.2 649.5,169.6 			"/>
			<polygon class="st39" points="648.1,168.9 647.4,168.5 647.4,171.2 648.1,171.6 			"/>
			<polygon class="st39" points="648.2,163.1 646.9,162.4 646.9,167.4 648.2,168.2 			"/>
			<polygon class="st39" points="648,155.1 646.7,154.3 646.7,159.4 648,160.1 			"/>
			<polygon class="st39" points="647.5,181.5 646.8,181.1 646.8,183.8 647.5,184.2 			"/>
			<polygon class="st39" points="648,199.5 647.3,199.1 647.3,201.8 648,202.2 			"/>
			<polygon class="st39" points="645,199 644.3,198.6 644.3,201.3 645,201.7 			"/>
			<polygon class="st39" points="643.6,201 642.9,200.6 642.9,203.4 643.6,203.8 			"/>
			<polygon class="st39" points="636,214.3 635.3,213.9 635.3,216.6 636,217 			"/>
			<polygon class="st39" points="634.6,216.4 633.9,216 633.9,218.7 634.6,219.1 			"/>
			<polygon class="st39" points="634.8,210.6 633.5,209.8 633.5,214.9 634.8,215.6 			"/>
			<polygon class="st39" points="638.8,211.9 638.1,211.5 638.1,214.2 638.8,214.6 			"/>
			<polygon class="st39" points="637.4,213.9 636.7,213.5 636.7,216.2 637.4,216.6 			"/>
			<polygon class="st39" points="637.6,208.1 636.3,207.4 636.3,212.4 637.6,213.2 			"/>
			<polygon class="st39" points="651.8,238.4 650.5,237.7 650.5,242.7 651.8,243.5 			"/>
			<polygon class="st39" points="635.1,162.9 636.4,162.1 636.4,167.2 635.1,167.9 			"/>
			<polygon class="st39" points="636.8,172.7 637.5,172.3 637.5,175 636.8,175.4 			"/>
			<polygon class="st39" points="636.6,166.9 637.9,166.1 637.9,171.2 636.6,171.9 			"/>
			<polygon class="st39" points="648.7,168.3 650,167.5 650,172.6 648.7,173.3 			"/>
			<polygon class="st39" points="636.8,158.8 638.1,158.1 638.1,163.1 636.8,163.9 			"/>
			<polygon class="st39" points="637.1,177.5 638.4,176.8 638.4,181.8 637.1,182.6 			"/>
			<polygon class="st39" points="637.4,185.3 638.1,184.9 638.1,187.6 637.4,188 			"/>
			<polygon class="st39" points="649,174.5 649.7,174.1 649.7,176.8 649,177.2 			"/>
			<polygon class="st39" points="638.8,187.3 639.5,186.9 639.5,189.6 638.8,190 			"/>
			<polygon class="st39" points="638.6,181.5 639.9,180.8 639.9,185.8 638.6,186.6 			"/>
			<polygon class="st39" points="647.1,172.5 648.4,171.8 648.4,176.8 647.1,177.6 			"/>
			<polygon class="st39" points="638.8,173.5 640.1,172.7 640.1,177.8 638.8,178.5 			"/>
			<polygon class="st39" points="640.6,155.9 641.9,155.2 641.9,160.2 640.6,161 			"/>
			<polygon class="st39" points="640.9,163.7 641.6,163.3 641.6,166 640.9,166.4 			"/>
			<polygon class="st39" points="642.3,165.7 643,165.3 643,168 642.3,168.4 			"/>
			<polygon class="st39" points="653.6,152.3 654.3,151.9 654.3,154.6 653.6,155 			"/>
			<polygon class="st39" points="642.2,159.9 643.5,159.2 643.5,164.2 642.2,165 			"/>
			<polygon class="st39" points="654.3,161.3 655.6,160.6 655.6,165.6 654.3,166.4 			"/>
			<polygon class="st39" points="653.1,184.1 654.4,183.3 654.4,188.4 653.1,189.1 			"/>
			<polygon class="st39" points="654.7,188.1 656,187.3 656,192.4 654.7,193.1 			"/>
			<polygon class="st39" points="654.8,180 656.2,179.3 656.2,184.3 654.8,185.1 			"/>
			<polygon class="st39" points="650.2,152.7 651.5,151.9 651.5,157 650.2,157.7 			"/>
			<polygon class="st39" points="651.8,156.7 653.1,155.9 653.1,161 651.8,161.7 			"/>
			<polygon class="st39" points="651.9,148.7 653.3,147.9 653.3,153 651.9,153.7 			"/>
			<polygon class="st39" points="642.6,170.6 643.9,169.9 643.9,174.9 642.6,175.7 			"/>
			<polygon class="st39" points="654.6,167.6 655.3,167.2 655.3,169.9 654.6,170.3 			"/>
			<polygon class="st39" points="652.6,165.6 653.9,164.8 653.9,169.9 652.6,170.6 			"/>
			<polygon class="st39" points="644.9,167.2 646.3,166.4 646.3,171.5 644.9,172.2 			"/>
			<polygon class="st39" points="635.4,201.2 636.1,200.8 636.1,203.5 635.4,203.9 			"/>
			<polygon class="st39" points="636.8,203.2 637.5,202.8 637.5,205.5 636.8,206 			"/>
			<polygon class="st39" points="636.9,189.4 638.2,188.7 638.2,193.7 636.9,194.5 			"/>
			<polygon class="st39" points="639.5,195 640.9,194.3 640.9,199.3 639.5,200.1 			"/>
			<polygon class="st39" points="639.8,202.7 640.5,202.3 640.5,205 639.8,205.4 			"/>
			<polygon class="st39" points="641.3,204.8 642,204.4 642,207.1 641.3,207.5 			"/>
			<polygon class="st39" points="641.1,199 642.4,198.3 642.4,203.3 641.1,204.1 			"/>
			<polygon class="st39" points="644.5,191.7 645.8,190.9 645.8,195.9 644.5,196.7 			"/>
			<polygon class="st39" points="641.3,191 642.6,190.2 642.6,195.3 641.3,196 			"/>
			<polygon class="st39" points="641.5,209.7 642.9,208.9 642.9,214 641.5,214.7 			"/>
			<polygon class="st39" points="653.5,206.6 654.2,206.2 654.2,208.9 653.5,209.3 			"/>
			<polygon class="st39" points="644.5,198.6 645.8,197.9 645.8,202.9 644.5,203.7 			"/>
			<polygon class="st39" points="643.3,205.6 644.6,204.9 644.6,209.9 643.3,210.7 			"/>
			<polygon class="st39" points="639.6,225.6 640.9,224.8 640.9,229.9 639.6,230.6 			"/>
			<polygon class="st39" points="639.9,233.3 640.6,232.9 640.6,235.6 639.9,236 			"/>
			<polygon class="st39" points="641.3,235.4 642,235 642,237.7 641.3,238.1 			"/>
			<polygon class="st39" points="641.2,229.6 642.5,228.8 642.5,233.9 641.2,234.6 			"/>
			<polygon class="st39" points="648.8,218.1 649.5,217.7 649.5,220.4 648.8,220.8 			"/>
			<polygon class="st39" points="650.2,220.1 650.9,219.7 650.9,222.4 650.2,222.8 			"/>
			<polygon class="st39" points="650.1,214.3 651.4,213.6 651.4,218.6 650.1,219.4 			"/>
			<polygon class="st39" points="646.8,234 647.5,233.6 647.5,236.3 646.8,236.7 			"/>
			<polygon class="st39" points="648.2,236 648.9,235.6 648.9,238.3 648.2,238.8 			"/>
			<polygon class="st39" points="648.3,222.2 649.6,221.5 649.6,226.5 648.3,227.3 			"/>
			<polygon class="st39" points="649.3,201.7 650,201.3 650,204 649.3,204.4 			"/>
			<polygon class="st39" points="649.2,196 650.5,195.2 650.5,200.2 649.2,201 			"/>
			<polygon class="st39" points="645.7,207.9 647,207.1 647,212.2 645.7,212.9 			"/>
			<polygon class="st39" points="646,215.6 646.7,215.2 646.7,217.9 646,218.3 			"/>
			<polygon class="st39" points="647.4,217.7 648.1,217.3 648.1,220 647.4,220.4 			"/>
			<polygon class="st39" points="647.2,211.9 648.6,211.1 648.6,216.2 647.2,216.9 			"/>
			<polygon class="st39" points="647.4,203.8 648.7,203.1 648.7,208.1 647.4,208.9 			"/>
			<polygon class="st39" points="635.2,234 635.9,233.6 635.9,236.3 635.2,236.7 			"/>
			<polygon class="st39" points="636.7,236 637.4,235.6 637.4,238.3 636.7,238.8 			"/>
			<polygon class="st39" points="633,242.2 634.3,241.4 634.3,246.5 633,247.2 			"/>
			<polygon class="st39" points="633.3,249.9 634,249.5 634,252.2 633.3,252.6 			"/>
			<polygon class="st39" points="634.7,252 635.4,251.6 635.4,254.3 634.7,254.7 			"/>
			<polygon class="st39" points="634.6,246.2 635.9,245.4 635.9,250.5 634.6,251.2 			"/>
			<polygon class="st39" points="634.7,238.1 636,237.4 636,242.4 634.7,243.2 			"/>
		</g>
		<g class="st40">
			<polygon class="st36" points="630.9,151 662.1,133 630.9,115 599.7,133 			"/>
			<polygon class="st36" points="662,251.7 630.9,269.7 630.9,150.6 662,133 			"/>
			<polygon class="st36" points="630.9,150.6 600.1,133 600.1,251.9 630.9,269.7 			"/>
		</g>
	</g>
	<g>
		
			<linearGradient id="SVGID_31_" gradientUnits="userSpaceOnUse" x1="630.8" y1="492.45" x2="668.6346" y2="492.45" gradientTransform="matrix(1 0 0 -1 0 698)">
			<stop  offset="0.2309" style="stop-color:#22D84D"/>
			<stop  offset="0.3251" style="stop-color:#42E34D"/>
			<stop  offset="0.4189" style="stop-color:#5BEC4D"/>
			<stop  offset="0.5048" style="stop-color:#6AF14D"/>
			<stop  offset="0.5753" style="stop-color:#6FF34D"/>
			<stop  offset="1" style="stop-color:#FFFFFF"/>
		</linearGradient>
		<polygon class="st41" points="630.8,214.3 630.8,218.7 668.7,196.8 668.7,192.4 		"/>
		
			<linearGradient id="SVGID_32_" gradientUnits="userSpaceOnUse" x1="593" y1="492.45" x2="630.8" y2="492.45" gradientTransform="matrix(1 0 0 -1 0 698)">
			<stop  offset="0.2309" style="stop-color:#22D84D"/>
			<stop  offset="0.3251" style="stop-color:#42E34D"/>
			<stop  offset="0.4189" style="stop-color:#5BEC4D"/>
			<stop  offset="0.5048" style="stop-color:#6AF14D"/>
			<stop  offset="0.5753" style="stop-color:#6FF34D"/>
			<stop  offset="1" style="stop-color:#FFFFFF"/>
		</linearGradient>
		<polygon class="st42" points="630.8,218.7 630.8,214.3 593,192.4 593,196.8 		"/>
		
			<linearGradient id="SVGID_33_" gradientUnits="userSpaceOnUse" x1="659.221" y1="489.1819" x2="602.446" y2="521.961" gradientTransform="matrix(1 0 0 -1 0 698)">
			<stop  offset="0.2309" style="stop-color:#22F34D"/>
			<stop  offset="0.3962" style="stop-color:#42F34D"/>
			<stop  offset="0.5608" style="stop-color:#5BF34D"/>
			<stop  offset="0.7115" style="stop-color:#6AF34D"/>
			<stop  offset="0.8353" style="stop-color:#6FF34D"/>
			<stop  offset="1" style="stop-color:#E8E9FD"/>
		</linearGradient>
		<polygon class="st43" points="658.2,186.4 658.2,192.4 658.3,192.4 630.8,208.3 603.3,192.4 603.7,192.3 603.6,186.3 593,192.4 
			630.8,214.3 668.7,192.4 		"/>
	</g>
	<g>
		
			<linearGradient id="SVGID_34_" gradientUnits="userSpaceOnUse" x1="630.8" y1="463.5" x2="668.6346" y2="463.5" gradientTransform="matrix(1 0 0 -1 0 698)">
			<stop  offset="0.2309" style="stop-color:#22D84D"/>
			<stop  offset="0.3251" style="stop-color:#42E34D"/>
			<stop  offset="0.4189" style="stop-color:#5BEC4D"/>
			<stop  offset="0.5048" style="stop-color:#6AF14D"/>
			<stop  offset="0.5753" style="stop-color:#6FF34D"/>
			<stop  offset="1" style="stop-color:#FFFFFF"/>
		</linearGradient>
		<polygon class="st44" points="630.8,243.2 630.8,247.6 668.7,225.7 668.7,221.4 		"/>
		
			<linearGradient id="SVGID_35_" gradientUnits="userSpaceOnUse" x1="593" y1="463.5" x2="630.8" y2="463.5" gradientTransform="matrix(1 0 0 -1 0 698)">
			<stop  offset="0.2309" style="stop-color:#22D84D"/>
			<stop  offset="0.3251" style="stop-color:#42E34D"/>
			<stop  offset="0.4189" style="stop-color:#5BEC4D"/>
			<stop  offset="0.5048" style="stop-color:#6AF14D"/>
			<stop  offset="0.5753" style="stop-color:#6FF34D"/>
			<stop  offset="1" style="stop-color:#FFFFFF"/>
		</linearGradient>
		<polygon class="st45" points="630.8,247.6 630.8,243.2 593,221.4 593,225.8 		"/>
		
			<linearGradient id="SVGID_36_" gradientUnits="userSpaceOnUse" x1="659.2457" y1="460.2246" x2="602.4707" y2="493.0037" gradientTransform="matrix(1 0 0 -1 0 698)">
			<stop  offset="0.2309" style="stop-color:#22F34D"/>
			<stop  offset="0.3962" style="stop-color:#42F34D"/>
			<stop  offset="0.5608" style="stop-color:#5BF34D"/>
			<stop  offset="0.7115" style="stop-color:#6AF34D"/>
			<stop  offset="0.8353" style="stop-color:#6FF34D"/>
			<stop  offset="1" style="stop-color:#E8E9FD"/>
		</linearGradient>
		<polygon class="st46" points="658.2,215.3 658.2,221.3 658.3,221.4 630.8,237.2 603.3,221.4 603.7,221.2 603.6,215.2 593,221.4 
			630.8,243.2 668.7,221.4 		"/>
	</g>
	<g>
		
			<linearGradient id="SVGID_37_" gradientUnits="userSpaceOnUse" x1="630.8" y1="520.8" x2="668.6346" y2="520.8" gradientTransform="matrix(1 0 0 -1 0 698)">
			<stop  offset="0.2309" style="stop-color:#22D84D"/>
			<stop  offset="0.3251" style="stop-color:#42E34D"/>
			<stop  offset="0.4189" style="stop-color:#5BEC4D"/>
			<stop  offset="0.5048" style="stop-color:#6AF14D"/>
			<stop  offset="0.5753" style="stop-color:#6FF34D"/>
			<stop  offset="1" style="stop-color:#FFFFFF"/>
		</linearGradient>
		<polygon class="st47" points="630.8,185.9 630.8,190.3 668.7,168.5 668.7,164.1 		"/>
		
			<linearGradient id="SVGID_38_" gradientUnits="userSpaceOnUse" x1="593" y1="520.8" x2="630.8" y2="520.8" gradientTransform="matrix(1 0 0 -1 0 698)">
			<stop  offset="0.2309" style="stop-color:#22D84D"/>
			<stop  offset="0.3251" style="stop-color:#42E34D"/>
			<stop  offset="0.4189" style="stop-color:#5BEC4D"/>
			<stop  offset="0.5048" style="stop-color:#6AF14D"/>
			<stop  offset="0.5753" style="stop-color:#6FF34D"/>
			<stop  offset="1" style="stop-color:#FFFFFF"/>
		</linearGradient>
		<polygon class="st48" points="630.8,190.3 630.8,185.9 593,164.1 593,168.5 		"/>
		
			<linearGradient id="SVGID_39_" gradientUnits="userSpaceOnUse" x1="659.2375" y1="517.5105" x2="602.4625" y2="550.2895" gradientTransform="matrix(1 0 0 -1 0 698)">
			<stop  offset="0.2309" style="stop-color:#22F34D"/>
			<stop  offset="0.3962" style="stop-color:#42F34D"/>
			<stop  offset="0.5608" style="stop-color:#5BF34D"/>
			<stop  offset="0.7115" style="stop-color:#6AF34D"/>
			<stop  offset="0.8353" style="stop-color:#6FF34D"/>
			<stop  offset="1" style="stop-color:#E8E9FD"/>
		</linearGradient>
		<polygon class="st49" points="658.2,158.1 658.2,164.1 658.3,164.1 630.8,180 603.3,164.1 603.7,163.9 603.6,158 593,164.1 
			630.8,185.9 668.7,164.1 		"/>
	</g>
</g>
</svg>
