<?xml version="1.0" encoding="utf-8"?>
<!-- Generator: Adobe Illustrator 23.0.0, SVG Export Plug-In . SVG Version: 6.00 Build 0)  -->
<svg version="1.1" id="Layer_1" xmlns="http://www.w3.org/2000/svg" xmlns:xlink="http://www.w3.org/1999/xlink" x="0px" y="0px"
	 viewBox="0 0 1000 620" style="enable-background:new 0 0 1000 620;" xml:space="preserve">
<style type="text/css">
	.st0{fill:#080808;}
	.st1{opacity:0.2;fill:url(#grid_2_2_);enable-background:new    ;}
	.st2{opacity:0.03;fill:url(#grid_2_3_);enable-background:new    ;}
	.st3{fill:url(#SVGID_1_);}
	.st4{fill:#60D142;}
	.st5{opacity:0.3;fill:url(#SVGID_2_);}
	.st6{opacity:0.3;fill:url(#SVGID_3_);}
	.st7{fill:url(#SVGID_4_);}
	.st8{fill:url(#SVGID_5_);}
	.st9{opacity:0.3;fill:url(#SVGID_6_);}
	.st10{fill:url(#SVGID_7_);}
	.st11{opacity:0.3;fill:url(#SVGID_8_);}
	.st12{fill:#6FF34D;}
	.st13{opacity:0.9;}
	.st14{opacity:0.7;}
	.st15{opacity:0.5;}
	.st16{opacity:0.2;}
	.st17{fill:#FFFFFF;}
</style>
<rect x="-26.51" y="-20" class="st0" width="1053.03" height="665"/>
<g>
	<g>
		<radialGradient id="grid_2_2_" cx="500" cy="321.484" r="437.8282" gradientUnits="userSpaceOnUse">
			<stop  offset="0" style="stop-color:#6FF34D"/>
			<stop  offset="0.135" style="stop-color:#6FF34D;stop-opacity:0.8529"/>
			<stop  offset="0.9182" style="stop-color:#6FF34D;stop-opacity:0"/>
		</radialGradient>
		<path id="grid_2_1_" class="st1" d="M1041.62,367.8L1041.62,367.8l-53.16-30.71l52.65-30.6l0,0l0.54-0.31l0.17-0.09l0,0l0.31-0.17
			l-1.31-0.74l-0.46,0.26l-53.19,30.91l-52.99-30.6l53.59-31.2l-1.31-0.74l-53.62,31.17l-52.99-30.6l53.65-31.17l-1.31-0.74
			l-53.65,31.17l-52.99-30.6l53.65-31.17l-1.31-0.74l-53.65,31.14l-52.99-30.6l52.65-30.6l0,0l0.31-0.17l0.4-0.23l0,0l0.31-0.17
			l-1.31-0.74l-0.31,0.17l0,0l-53.34,31l-52.99-30.6l53.65-31.17l-1.31-0.74l-53.65,31.17l-52.99-30.6l53.62-31.2l-1.31-0.74
			l-53.65,31.17l-52.99-30.6l53.65-31.17l-1.31-0.74l-53.65,31.17l-52.99-30.6l52.82-30.71l0.83-0.48l-1.31-0.74l-53.65,31.17
			l-52.99-30.6l53.65-31.17L552.05,23L498.4,54.17l0,0l0,0L444.9,23.25l-0.17,0.31l0.17-0.31l-0.48-0.28l-1.31,0.77l53.99,31.2
			l-52.62,30.57l0,0l0,0l-53.53-30.88l-0.48-0.28l-1.28,0.77l53.99,31.17l-52.65,30.6l0,0l0,0l-53.53-30.91l-0.48-0.28l-1.31,0.74
			l53.99,31.17l-52.62,30.63l-53.68-31l0,0l-0.31-0.17l-1.31,0.74l0.31,0.17l0,0l0.57,0.34l0.11,0.09l0,0l52.99,30.6l-52.62,30.6
			l-53.71-31l0,0l-0.31-0.17l-1.31,0.74l0.31,0.17l0,0l0.57,0.34l0.14,0.09l0,0l52.99,30.6l-52.65,30.57l0,0l0,0l-53.53-30.91
			l-0.48-0.28l-1.31,0.77l54.05,31.2l-52.65,30.6l-53.71-31l0,0l-0.31-0.17l-1.31,0.74l1,0.57l0,0l52.99,30.6l-52.62,30.6l-53.71-31
			l0,0l-0.31-0.17l-1.31,0.74l0.8,0.46l53.19,30.71l-52.59,30.6l-53.71-31l0,0l-0.31-0.17l-1.31,0.74l0.8,0.46l53.22,30.74
			l-52.65,30.6l-53.53-30.91l-0.48-0.28l-1.31,0.74l1,0.57l52.99,30.6l-53.36,31l0,0l-0.31,0.17l1.31,0.74l1-0.57l0,0l52.65-30.6
			l52.99,30.6l-53.56,31.23l1.31,0.74l53.65-31.17l52.99,30.6l-53.65,31.17l1.31,0.74l53.65-31.17l52.99,30.6l-53.65,31.17
			l1.31,0.74l53.65-31.17l52.99,30.6l-53.65,31.17l1.31,0.74l53.65-31.17l52.99,30.6l-53.68,31.2l1.31,0.74l53.65-31.17l52.99,30.6
			l-52.82,30.71l-0.83,0.48l1.31,0.74l53.65-31.17l52.99,30.6l-53.65,31.17l1.31,0.74l53.65-31.17l52.99,30.6l-53.65,31.17
			l1.31,0.74l53.65-31.14l52.99,30.6l0,0l1.31,0.74l53.96-31.34l53.53,30.91l0.48,0.28l1.31-0.74l-54.05-31.23l52.65-30.6
			l53.53,30.91l0.48,0.28l1.31-0.74l-54.05-31.2l52.65-30.6l53.53,30.91l0.48,0.28l1.31-0.77l-54.02-31.17l52.65-30.6l53.53,30.91
			l0.48,0.28l1.31-0.77l-53.99-31.17l52.65-30.6l53.53,30.91l0.48,0.28l1.31-0.74l-53.99-31.17l52.65-30.6l53.53,30.91l0.48,0.28
			l1.31-0.74l-53.99-31.17l52.65-30.6l53.99,31.17l1.31-0.74l-53.99-31.17l52.65-30.6l53.53,30.91l0.48,0.28l1.31-0.74l-54.16-31.34
			l52.65-30.6l53.53,30.91l0.48,0.28l1.31-0.77L1041.62,367.8z M931.53,305.74l-52.65,30.6l-52.99-30.6l52.65-30.6L931.53,305.74z
			 M825.28,430.39l-52.99-30.6l52.65-30.6l52.99,30.6L825.28,430.39z M663.43,524.44l-52.99-30.6l52.65-30.6l52.99,30.6
			L663.43,524.44z M501.23,555.81l-52.99-30.6l52.65-30.6l52.99,30.6L501.23,555.81z M446.92,524.44l-52.99-30.6l52.65-30.6
			l52.99,30.6L446.92,524.44z M392.62,493.1l-52.99-30.6l52.65-30.6l52.99,30.6L392.62,493.1z M228.08,337.08l-52.65,30.6
			l-52.99-30.6l52.65-30.6L228.08,337.08z M282.95,243.77l52.99,30.6l-52.62,30.6l-52.99-30.6L282.95,243.77z M390.88,181.09
			l52.99,30.6l-52.65,30.6l0,0l0,0l-52.99-30.6L390.88,181.09z M660.01,148.98l-52.65,30.6l-52.99-30.6l52.65-30.6L660.01,148.98z
			 M770.27,275.14l52.99,30.6l-52.65,30.6l0,0l0,0l-52.99-30.6L770.27,275.14z M446.58,461.73l-52.99-30.6l52.65-30.6l52.99,30.6
			L446.58,461.73z M498.77,118.38l52.99,30.6l-52.65,30.6l-52.99-30.6L498.77,118.38z M662.37,336.34L662.37,336.34L662.37,336.34
			L662.37,336.34l-52.99-30.6l52.65-30.6l52.99,30.6L662.37,336.34z M445.52,275.14l52.99,30.6l-52.65,30.6l-52.99-30.6
			L445.52,275.14z M499.46,243.77l52.99,30.6l-52.62,30.6l-52.99-30.6L499.46,243.77z M501.11,305.74l52.65-30.6l52.99,30.6
			l-52.62,30.6L501.11,305.74z M552.82,337.08l-52.65,30.6l-52.99-30.6l52.65-30.6L552.82,337.08z M444.58,337.08l-52.65,30.6
			l-52.99-30.6l52.65-30.6L444.58,337.08z M445.87,337.85l52.99,30.6l-52.65,30.6l-52.99-30.6L445.87,337.85z M500.17,369.19
			l52.99,30.6l-52.65,30.6l-52.99-30.6L500.17,369.19z M501.48,368.45l52.65-30.6l52.99,30.6l-52.65,30.6L501.48,368.45z
			 M555.42,337.08l52.65-30.6l52.99,30.6l-52.65,30.6L555.42,337.08z M608.07,304.97l-52.99-30.6l52.65-30.6l52.99,30.6
			L608.07,304.97z M553.76,273.63l-52.99-30.6l52.65-30.6l52.99,30.6L553.76,273.63z M553.42,210.92l-52.99-30.6l52.65-30.6
			l52.99,30.6L553.42,210.92z M499.12,181.09l52.99,30.6l-52.65,30.57l-52.99-30.6L499.12,181.09z M445.18,212.43l52.99,30.6
			l-52.65,30.6l-52.99-30.6L445.18,212.43z M391.22,243.77l52.99,30.6l-52.65,30.6l-52.99-30.6L391.22,243.77z M337.26,275.14
			l52.99,30.6l-52.65,30.6l-52.99-30.6L337.26,275.14z M283.32,306.48l52.99,30.6l-52.65,30.6l-52.99-30.6L283.32,306.48z
			 M337.63,337.85l52.99,30.6l-52.65,30.6l-52.99-30.6L337.63,337.85z M391.93,369.19l52.99,30.6l-52.65,30.6l-52.99-30.6
			L391.93,369.19z M500.54,431.9l52.99,30.6l-52.65,30.6l-52.99-30.6L500.54,431.9z M501.82,431.13l52.65-30.6l52.99,30.6
			l-52.65,30.6L501.82,431.13z M555.79,399.79l52.65-30.6l52.99,30.6l-52.65,30.6L555.79,399.79z M662.74,400.53l52.99,30.6
			l-52.65,30.6l-52.99-30.6L662.74,400.53z M662.74,399.05l-52.99-30.6l52.65-30.6l52.99,30.6L662.74,399.05z M663.68,337.08
			l52.65-30.6l52.99,30.6l-52.65,30.6L663.68,337.08z M824.57,306.48l52.99,30.6l-52.65,30.6l-52.99-30.6L824.57,306.48z
			 M716.33,304.97l-52.99-30.6l52.65-30.6l52.99,30.6L716.33,304.97z M662.03,273.63l-52.99-30.6l52.65-30.6l52.99,30.6
			L662.03,273.63z M607.73,242.29l-52.99-30.6l52.65-30.6l52.99,30.6L607.73,242.29z M553.08,148.22l-52.99-30.6l52.62-30.6
			l52.99,30.6L553.08,148.22z M498.77,116.87l-52.99-30.6l52.62-30.6l52.99,30.6L498.77,116.87z M444.47,87.02l52.99,30.6
			l-52.65,30.6l0,0l0,0l-52.99-30.6L444.47,87.02z M444.81,149.73l52.99,30.6l-52.65,30.6l-52.99-30.6L444.81,149.73z
			 M336.92,212.43l52.99,30.6l-52.65,30.6l-52.99-30.6L336.92,212.43z M229.02,275.14l52.99,30.6l-52.65,30.6l-52.99-30.6
			L229.02,275.14z M229.36,337.85l52.99,30.6l-52.62,30.6l-52.99-30.6L229.36,337.85z M283.67,369.19l52.99,30.6l-52.62,30.6
			l-52.99-30.6L283.67,369.19z M337.97,400.53l52.99,30.6l-52.65,30.6l0,0l0,0l-52.99-30.6L337.97,400.53z M502.19,493.84
			l52.65-30.6l52.99,30.6l-52.65,30.6L502.19,493.84z M556.13,462.5l52.65-30.6l52.99,30.6l-52.65,30.6L556.13,462.5z M717.39,493.1
			l-52.99-30.6l52.65-30.6l52.99,30.6L717.39,493.1z M717.02,430.39l-52.99-30.6l52.65-30.6l52.99,30.6L717.02,430.39z
			 M717.99,368.42l52.65-30.6l52.99,30.6l-52.65,30.6L717.99,368.42z M826.22,368.42l52.65-30.6l52.99,30.6l-52.65,30.6
			L826.22,368.42z M824.23,243.77l52.99,30.6l-52.65,30.6l-52.99-30.6L824.23,243.77z M770.27,273.63l-52.99-30.6l52.65-30.6
			l52.99,30.6L770.27,273.63z M715.96,242.26l-52.99-30.6l52.65-30.6l52.99,30.6L715.96,242.26z M661.66,210.92l-52.99-30.6
			l52.65-30.6l52.99,30.6L661.66,210.92z M390.51,118.38l52.99,30.6l-52.65,30.6l-52.99-30.6L390.51,118.38z M336.57,149.73
			l52.99,30.6l-52.65,30.6l-52.99-30.6L336.57,149.73z M282.61,181.09l52.99,30.6l-52.65,30.6l-52.99-30.6L282.61,181.09z
			 M228.68,212.43l52.99,30.6l-52.65,30.6l-52.99-30.6L228.68,212.43z M174.72,243.77l52.99,30.6l-52.65,30.6l-52.99-30.6
			L174.72,243.77z M120.75,275.14l52.99,30.6l0,0l0,0l-52.65,30.6l-52.99-30.6L120.75,275.14z M66.82,306.48l52.99,30.6l-52.65,30.6
			l-52.99-30.6L66.82,306.48z M68.47,368.45l52.65-30.6l52.99,30.6l-52.65,30.6L68.47,368.45z M175.43,369.19l52.99,30.6
			l-52.65,30.6l-52.99-30.6L175.43,369.19z M230.07,461.73l-52.99-30.6l52.65-30.6l52.99,30.6L230.07,461.73z M231.39,462.5
			l52.65-30.6l52.99,30.6l-52.65,30.6L231.39,462.5z M285.69,493.84l52.65-30.6l52.99,30.6l-52.65,30.6L285.69,493.84z
			 M339.99,525.18l52.65-30.6l52.99,30.6l-52.65,30.6L339.99,525.18z M394.3,556.55l52.65-30.6l52.99,30.6l-52.65,30.6L394.3,556.55
			z M501.6,618.49l-52.99-30.6l52.65-30.6l52.99,30.6L501.6,618.49z M555.53,587.15l-52.99-30.6l52.65-30.6l52.99,30.6
			L555.53,587.15z M609.49,555.81l-52.99-30.6l52.65-30.6l52.99,30.6L609.49,555.81z M771.32,461.73l-52.99-30.6l52.65-30.6
			l52.99,30.6L771.32,461.73z M933.18,367.68l-52.99-30.6l52.65-30.6l52.99,30.6L933.18,367.68z"/>
		<radialGradient id="grid_2_3_" cx="500" cy="321.484" r="437.8282" gradientUnits="userSpaceOnUse">
			<stop  offset="0" style="stop-color:#FFFFFF"/>
			<stop  offset="0.6282" style="stop-color:#FFFFFF;stop-opacity:0"/>
		</radialGradient>
		<path id="grid_2" class="st2" d="M1041.62,367.8L1041.62,367.8l-53.16-30.71l52.65-30.6l0,0l0.54-0.31l0.17-0.09l0,0l0.31-0.17
			l-1.31-0.74l-0.46,0.26l-53.19,30.91l-52.99-30.6l53.59-31.2l-1.31-0.74l-53.62,31.17l-52.99-30.6l53.65-31.17l-1.31-0.74
			l-53.65,31.17l-52.99-30.6l53.65-31.17l-1.31-0.74l-53.65,31.14l-52.99-30.6l52.65-30.6l0,0l0.31-0.17l0.4-0.23l0,0l0.31-0.17
			l-1.31-0.74l-0.31,0.17l0,0l-53.34,31l-52.99-30.6l53.65-31.17l-1.31-0.74l-53.65,31.17l-52.99-30.6l53.62-31.2l-1.31-0.74
			l-53.65,31.17l-52.99-30.6l53.65-31.17l-1.31-0.74l-53.65,31.17l-52.99-30.6l52.82-30.71l0.83-0.48l-1.31-0.74l-53.65,31.17
			l-52.99-30.6l53.65-31.17L552.05,23L498.4,54.17l0,0l0,0L444.9,23.25l-0.17,0.31l0.17-0.31l-0.48-0.28l-1.31,0.77l53.99,31.2
			l-52.62,30.57l0,0l0,0l-53.53-30.88l-0.48-0.28l-1.28,0.77l53.99,31.17l-52.65,30.6l0,0l0,0l-53.53-30.91l-0.48-0.28l-1.31,0.74
			l53.99,31.17l-52.62,30.63l-53.68-31l0,0l-0.31-0.17l-1.31,0.74l0.31,0.17l0,0l0.57,0.34l0.11,0.09l0,0l52.99,30.6l-52.62,30.6
			l-53.71-31l0,0l-0.31-0.17l-1.31,0.74l0.31,0.17l0,0l0.57,0.34l0.14,0.09l0,0l52.99,30.6l-52.65,30.57l0,0l0,0l-53.53-30.91
			l-0.48-0.28l-1.31,0.77l54.05,31.2l-52.65,30.6l-53.71-31l0,0l-0.31-0.17l-1.31,0.74l1,0.57l0,0l52.99,30.6l-52.62,30.6l-53.71-31
			l0,0l-0.31-0.17l-1.31,0.74l0.8,0.46l53.19,30.71l-52.59,30.6l-53.71-31l0,0l-0.31-0.17l-1.31,0.74l0.8,0.46l53.22,30.74
			l-52.65,30.6l-53.53-30.91l-0.48-0.28l-1.31,0.74l1,0.57l52.99,30.6l-53.36,31l0,0l-0.31,0.17l1.31,0.74l1-0.57l0,0l52.65-30.6
			l52.99,30.6l-53.56,31.23l1.31,0.74l53.65-31.17l52.99,30.6l-53.65,31.17l1.31,0.74l53.65-31.17l52.99,30.6l-53.65,31.17
			l1.31,0.74l53.65-31.17l52.99,30.6l-53.65,31.17l1.31,0.74l53.65-31.17l52.99,30.6l-53.68,31.2l1.31,0.74l53.65-31.17l52.99,30.6
			l-52.82,30.71l-0.83,0.48l1.31,0.74l53.65-31.17l52.99,30.6l-53.65,31.17l1.31,0.74l53.65-31.17l52.99,30.6l-53.65,31.17
			l1.31,0.74l53.65-31.14l52.99,30.6l0,0l1.31,0.74l53.96-31.34l53.53,30.91l0.48,0.28l1.31-0.74l-54.05-31.23l52.65-30.6
			l53.53,30.91l0.48,0.28l1.31-0.74l-54.05-31.2l52.65-30.6l53.53,30.91l0.48,0.28l1.31-0.77l-54.02-31.17l52.65-30.6l53.53,30.91
			l0.48,0.28l1.31-0.77l-53.99-31.17l52.65-30.6l53.53,30.91l0.48,0.28l1.31-0.74l-53.99-31.17l52.65-30.6l53.53,30.91l0.48,0.28
			l1.31-0.74l-53.99-31.17l52.65-30.6l53.99,31.17l1.31-0.74l-53.99-31.17l52.65-30.6l53.53,30.91l0.48,0.28l1.31-0.74l-54.16-31.34
			l52.65-30.6l53.53,30.91l0.48,0.28l1.31-0.77L1041.62,367.8z M931.53,305.74l-52.65,30.6l-52.99-30.6l52.65-30.6L931.53,305.74z
			 M825.28,430.39l-52.99-30.6l52.65-30.6l52.99,30.6L825.28,430.39z M663.43,524.44l-52.99-30.6l52.65-30.6l52.99,30.6
			L663.43,524.44z M501.23,555.81l-52.99-30.6l52.65-30.6l52.99,30.6L501.23,555.81z M446.92,524.44l-52.99-30.6l52.65-30.6
			l52.99,30.6L446.92,524.44z M392.62,493.1l-52.99-30.6l52.65-30.6l52.99,30.6L392.62,493.1z M228.08,337.08l-52.65,30.6
			l-52.99-30.6l52.65-30.6L228.08,337.08z M282.95,243.77l52.99,30.6l-52.62,30.6l-52.99-30.6L282.95,243.77z M390.88,181.09
			l52.99,30.6l-52.65,30.6l0,0l0,0l-52.99-30.6L390.88,181.09z M660.01,148.98l-52.65,30.6l-52.99-30.6l52.65-30.6L660.01,148.98z
			 M770.27,275.14l52.99,30.6l-52.65,30.6l0,0l0,0l-52.99-30.6L770.27,275.14z M446.58,461.73l-52.99-30.6l52.65-30.6l52.99,30.6
			L446.58,461.73z M498.77,118.38l52.99,30.6l-52.65,30.6l-52.99-30.6L498.77,118.38z M662.37,336.34L662.37,336.34L662.37,336.34
			L662.37,336.34l-52.99-30.6l52.65-30.6l52.99,30.6L662.37,336.34z M445.52,275.14l52.99,30.6l-52.65,30.6l-52.99-30.6
			L445.52,275.14z M499.46,243.77l52.99,30.6l-52.62,30.6l-52.99-30.6L499.46,243.77z M501.11,305.74l52.65-30.6l52.99,30.6
			l-52.62,30.6L501.11,305.74z M552.82,337.08l-52.65,30.6l-52.99-30.6l52.65-30.6L552.82,337.08z M444.58,337.08l-52.65,30.6
			l-52.99-30.6l52.65-30.6L444.58,337.08z M445.87,337.85l52.99,30.6l-52.65,30.6l-52.99-30.6L445.87,337.85z M500.17,369.19
			l52.99,30.6l-52.65,30.6l-52.99-30.6L500.17,369.19z M501.48,368.45l52.65-30.6l52.99,30.6l-52.65,30.6L501.48,368.45z
			 M555.42,337.08l52.65-30.6l52.99,30.6l-52.65,30.6L555.42,337.08z M608.07,304.97l-52.99-30.6l52.65-30.6l52.99,30.6
			L608.07,304.97z M553.76,273.63l-52.99-30.6l52.65-30.6l52.99,30.6L553.76,273.63z M553.42,210.92l-52.99-30.6l52.65-30.6
			l52.99,30.6L553.42,210.92z M499.12,181.09l52.99,30.6l-52.65,30.57l-52.99-30.6L499.12,181.09z M445.18,212.43l52.99,30.6
			l-52.65,30.6l-52.99-30.6L445.18,212.43z M391.22,243.77l52.99,30.6l-52.65,30.6l-52.99-30.6L391.22,243.77z M337.26,275.14
			l52.99,30.6l-52.65,30.6l-52.99-30.6L337.26,275.14z M283.32,306.48l52.99,30.6l-52.65,30.6l-52.99-30.6L283.32,306.48z
			 M337.63,337.85l52.99,30.6l-52.65,30.6l-52.99-30.6L337.63,337.85z M391.93,369.19l52.99,30.6l-52.65,30.6l-52.99-30.6
			L391.93,369.19z M500.54,431.9l52.99,30.6l-52.65,30.6l-52.99-30.6L500.54,431.9z M501.82,431.13l52.65-30.6l52.99,30.6
			l-52.65,30.6L501.82,431.13z M555.79,399.79l52.65-30.6l52.99,30.6l-52.65,30.6L555.79,399.79z M662.74,400.53l52.99,30.6
			l-52.65,30.6l-52.99-30.6L662.74,400.53z M662.74,399.05l-52.99-30.6l52.65-30.6l52.99,30.6L662.74,399.05z M663.68,337.08
			l52.65-30.6l52.99,30.6l-52.65,30.6L663.68,337.08z M824.57,306.48l52.99,30.6l-52.65,30.6l-52.99-30.6L824.57,306.48z
			 M716.33,304.97l-52.99-30.6l52.65-30.6l52.99,30.6L716.33,304.97z M662.03,273.63l-52.99-30.6l52.65-30.6l52.99,30.6
			L662.03,273.63z M607.73,242.29l-52.99-30.6l52.65-30.6l52.99,30.6L607.73,242.29z M553.08,148.22l-52.99-30.6l52.62-30.6
			l52.99,30.6L553.08,148.22z M498.77,116.87l-52.99-30.6l52.62-30.6l52.99,30.6L498.77,116.87z M444.47,87.02l52.99,30.6
			l-52.65,30.6l0,0l0,0l-52.99-30.6L444.47,87.02z M444.81,149.73l52.99,30.6l-52.65,30.6l-52.99-30.6L444.81,149.73z
			 M336.92,212.43l52.99,30.6l-52.65,30.6l-52.99-30.6L336.92,212.43z M229.02,275.14l52.99,30.6l-52.65,30.6l-52.99-30.6
			L229.02,275.14z M229.36,337.85l52.99,30.6l-52.62,30.6l-52.99-30.6L229.36,337.85z M283.67,369.19l52.99,30.6l-52.62,30.6
			l-52.99-30.6L283.67,369.19z M337.97,400.53l52.99,30.6l-52.65,30.6l0,0l0,0l-52.99-30.6L337.97,400.53z M502.19,493.84
			l52.65-30.6l52.99,30.6l-52.65,30.6L502.19,493.84z M556.13,462.5l52.65-30.6l52.99,30.6l-52.65,30.6L556.13,462.5z M717.39,493.1
			l-52.99-30.6l52.65-30.6l52.99,30.6L717.39,493.1z M717.02,430.39l-52.99-30.6l52.65-30.6l52.99,30.6L717.02,430.39z
			 M717.99,368.42l52.65-30.6l52.99,30.6l-52.65,30.6L717.99,368.42z M826.22,368.42l52.65-30.6l52.99,30.6l-52.65,30.6
			L826.22,368.42z M824.23,243.77l52.99,30.6l-52.65,30.6l-52.99-30.6L824.23,243.77z M770.27,273.63l-52.99-30.6l52.65-30.6
			l52.99,30.6L770.27,273.63z M715.96,242.26l-52.99-30.6l52.65-30.6l52.99,30.6L715.96,242.26z M661.66,210.92l-52.99-30.6
			l52.65-30.6l52.99,30.6L661.66,210.92z M390.51,118.38l52.99,30.6l-52.65,30.6l-52.99-30.6L390.51,118.38z M336.57,149.73
			l52.99,30.6l-52.65,30.6l-52.99-30.6L336.57,149.73z M282.61,181.09l52.99,30.6l-52.65,30.6l-52.99-30.6L282.61,181.09z
			 M228.68,212.43l52.99,30.6l-52.65,30.6l-52.99-30.6L228.68,212.43z M174.72,243.77l52.99,30.6l-52.65,30.6l-52.99-30.6
			L174.72,243.77z M120.75,275.14l52.99,30.6l0,0l0,0l-52.65,30.6l-52.99-30.6L120.75,275.14z M66.82,306.48l52.99,30.6l-52.65,30.6
			l-52.99-30.6L66.82,306.48z M68.47,368.45l52.65-30.6l52.99,30.6l-52.65,30.6L68.47,368.45z M175.43,369.19l52.99,30.6
			l-52.65,30.6l-52.99-30.6L175.43,369.19z M230.07,461.73l-52.99-30.6l52.65-30.6l52.99,30.6L230.07,461.73z M231.39,462.5
			l52.65-30.6l52.99,30.6l-52.65,30.6L231.39,462.5z M285.69,493.84l52.65-30.6l52.99,30.6l-52.65,30.6L285.69,493.84z
			 M339.99,525.18l52.65-30.6l52.99,30.6l-52.65,30.6L339.99,525.18z M394.3,556.55l52.65-30.6l52.99,30.6l-52.65,30.6L394.3,556.55
			z M501.6,618.49l-52.99-30.6l52.65-30.6l52.99,30.6L501.6,618.49z M555.53,587.15l-52.99-30.6l52.65-30.6l52.99,30.6
			L555.53,587.15z M609.49,555.81l-52.99-30.6l52.65-30.6l52.99,30.6L609.49,555.81z M771.32,461.73l-52.99-30.6l52.65-30.6
			l52.99,30.6L771.32,461.73z M933.18,367.68l-52.99-30.6l52.65-30.6l52.99,30.6L933.18,367.68z"/>
	</g>
	<g>
		<g>
			<linearGradient id="SVGID_1_" gradientUnits="userSpaceOnUse" x1="243.1065" y1="543.2322" x2="243.1065" y2="429.7525">
				<stop  offset="0" style="stop-color:#6FF34D;stop-opacity:0"/>
				<stop  offset="0.0831" style="stop-color:#6FF34D;stop-opacity:0.1458"/>
				<stop  offset="0.57" style="stop-color:#6FF34D"/>
				<stop  offset="0.625" style="stop-color:#6FF34D;stop-opacity:0.8721"/>
				<stop  offset="0.958" style="stop-color:#6FF34D;stop-opacity:0.0978"/>
				<stop  offset="1" style="stop-color:#6FF34D;stop-opacity:0"/>
			</linearGradient>
			<polygon class="st3" points="201.46,543.23 200.77,542.05 282.72,494.02 228.7,462.38 283.73,429.75 284.43,430.94 
				231.41,462.37 285.44,494.02 			"/>
		</g>
		<g>
			<path class="st4" d="M295.37,489.09c1.89,1.09,1.9,2.87,0.02,3.96l-8.6,5c-1.88,1.09-4.94,1.09-6.83,0l-8.66-5
				c-1.89-1.09-1.9-2.87-0.02-3.96l8.6-5c1.88-1.09,4.94-1.09,6.83,0L295.37,489.09z"/>
		</g>
		<linearGradient id="SVGID_2_" gradientUnits="userSpaceOnUse" x1="283.3032" y1="499.1646" x2="283.3032" y2="440.3496">
			<stop  offset="0" style="stop-color:#6FF34D"/>
			<stop  offset="1" style="stop-color:#6FF34D;stop-opacity:0"/>
		</linearGradient>
		<polygon class="st5" points="271.57,489.96 271.57,440.35 295.03,440.35 294.78,489.96 283.18,499.16 		"/>
	</g>
	<g>
		<g>
			<path class="st4" d="M727.61,240.35c1.91,1.1,1.92,2.89,0.02,3.99l-8.66,5.03c-1.89,1.1-4.98,1.1-6.89,0l-8.72-5.03
				c-1.91-1.1-1.92-2.89-0.02-3.99l8.66-5.03c1.89-1.1,4.98-1.1,6.88,0L727.61,240.35z"/>
		</g>
		<linearGradient id="SVGID_3_" gradientUnits="userSpaceOnUse" x1="715.4542" y1="250.5017" x2="715.4542" y2="191.252">
			<stop  offset="0" style="stop-color:#6FF34D"/>
			<stop  offset="1" style="stop-color:#6FF34D;stop-opacity:0"/>
		</linearGradient>
		<polygon class="st6" points="703.64,241.23 703.64,191.25 727.27,191.25 727.01,241.23 715.33,250.5 		"/>
		<g>
			
				<linearGradient id="SVGID_4_" gradientUnits="userSpaceOnUse" x1="759.5093" y1="296.519" x2="759.5093" y2="211.9937" gradientTransform="matrix(0.9998 -0.0201 0.0201 0.9998 -5.0129 14.2273)">
				<stop  offset="0" style="stop-color:#6FF34D;stop-opacity:0"/>
				<stop  offset="0.0831" style="stop-color:#6FF34D;stop-opacity:0.1458"/>
				<stop  offset="0.57" style="stop-color:#6FF34D"/>
				<stop  offset="0.6087" style="stop-color:#6FF34D;stop-opacity:0.8721"/>
				<stop  offset="0.843" style="stop-color:#6FF34D;stop-opacity:0.0978"/>
				<stop  offset="1" style="stop-color:#6FF34D;stop-opacity:0"/>
			</linearGradient>
			<polygon class="st7" points="805.09,294.5 713.78,244.08 770.03,210.67 771.31,211.94 716.49,244 805.76,293.29 			"/>
		</g>
	</g>
	<g>
		
			<linearGradient id="SVGID_5_" gradientUnits="userSpaceOnUse" x1="705.0957" y1="314.933" x2="550.4526" y2="314.933" gradientTransform="matrix(-1 0 0 1 854.9511 0)">
			<stop  offset="0" style="stop-color:#6FF34D;stop-opacity:0"/>
			<stop  offset="0.0831" style="stop-color:#6FF34D;stop-opacity:0.1458"/>
			<stop  offset="0.57" style="stop-color:#6FF34D"/>
			<stop  offset="0.625" style="stop-color:#6FF34D;stop-opacity:0.8721"/>
			<stop  offset="0.958" style="stop-color:#6FF34D;stop-opacity:0.0978"/>
			<stop  offset="1" style="stop-color:#6FF34D;stop-opacity:0"/>
		</linearGradient>
		<path class="st8" d="M150.66,291.33c-0.26,0.34-0.52,0.68-0.8,1.01l79.98,46.2l0.64-1.11L150.66,291.33z"/>
		<g>
			<g>
				<path class="st4" d="M242.85,337.24c1.68,0.97,1.68,2.53,0.02,3.5l-7.6,4.42c-1.66,0.97-4.37,0.97-6.04,0l-7.65-4.42
					c-1.67-0.97-1.68-2.53-0.02-3.5l7.6-4.42c1.66-0.97,4.37-0.97,6.04,0L242.85,337.24z"/>
			</g>
			
				<linearGradient id="SVGID_6_" gradientUnits="userSpaceOnUse" x1="1042.3354" y1="346.1492" x2="1042.3354" y2="294.1477" gradientTransform="matrix(-1 0 0 1 1274.576 0)">
				<stop  offset="0" style="stop-color:#6FF34D"/>
				<stop  offset="1" style="stop-color:#6FF34D;stop-opacity:0"/>
			</linearGradient>
			<polygon class="st9" points="242.61,338.01 242.61,294.15 221.87,294.15 222.09,338.01 232.35,346.15 			"/>
		</g>
	</g>
	<g>
		<g>
			
				<linearGradient id="SVGID_7_" gradientUnits="userSpaceOnUse" x1="898.581" y1="446.9482" x2="1026.1713" y2="446.9482" gradientTransform="matrix(-1 0 0 1 1709.3755 0)">
				<stop  offset="0" style="stop-color:#6FF34D;stop-opacity:0"/>
				<stop  offset="0.0831" style="stop-color:#6FF34D;stop-opacity:0.1458"/>
				<stop  offset="0.57" style="stop-color:#6FF34D"/>
				<stop  offset="0.958" style="stop-color:#6FF34D;stop-opacity:0.0978"/>
				<stop  offset="1" style="stop-color:#6FF34D;stop-opacity:0"/>
			</linearGradient>
			<polygon class="st10" points="810.79,438.67 771.31,461.6 717.81,431.03 717.81,432.3 771.31,462.87 809.52,441.22 			"/>
		</g>
		<g>
			<g>
				<path class="st4" d="M782.1,458.46c2.13,1.23,2.14,3.22,0.03,4.45l-6.94,4.03c-2.11,1.23-5.55,1.23-7.67,0l-6.99-4.03
					c-2.13-1.23-2.14-3.22-0.03-4.45l6.94-4.03c2.11-1.23,5.55-1.23,7.67,0L782.1,458.46z"/>
			</g>
		</g>
		<linearGradient id="SVGID_8_" gradientUnits="userSpaceOnUse" x1="771.2825" y1="467.479" x2="771.2825" y2="411.8182">
			<stop  offset="0" style="stop-color:#6FF34D"/>
			<stop  offset="1" style="stop-color:#6FF34D;stop-opacity:0"/>
		</linearGradient>
		<polygon class="st11" points="760.18,458.76 760.18,411.82 782.38,411.82 782.14,458.76 771.16,467.48 		"/>
	</g>
</g>
<g>
	<g>
		<path class="st12" d="M557.94,335.18c4.62-7.34,9.24-14.68,13.87-22.02c1.15-1.83,1.15-4.49,0-6.31
			c-4.62-7.34-9.24-14.68-13.87-22.02c-4.28-6.8-15.11-0.53-10.8,6.31c4.62,7.34,9.24,14.68,13.87,22.02c0-2.1,0-4.21,0-6.31
			c-4.62,7.34-9.24,14.68-13.87,22.02C542.83,335.7,553.65,341.99,557.94,335.18L557.94,335.18z"/>
	</g>
	<g class="st13">
		<path class="st12" d="M528.16,335.18c4.62-7.34,9.24-14.68,13.87-22.02c1.15-1.83,1.15-4.49,0-6.31
			c-4.62-7.34-9.24-14.68-13.87-22.02c-4.28-6.8-15.11-0.53-10.8,6.31c4.62,7.34,9.24,14.68,13.87,22.02c0-2.1,0-4.21,0-6.31
			c-4.62,7.34-9.24,14.68-13.87,22.02C513.05,335.7,523.87,341.99,528.16,335.18L528.16,335.18z"/>
	</g>
	<g class="st14">
		<path class="st12" d="M497.68,335.18c4.62-7.34,9.24-14.68,13.87-22.02c1.15-1.83,1.15-4.49,0-6.31
			c-4.62-7.34-9.24-14.68-13.87-22.02c-4.28-6.8-15.11-0.53-10.8,6.31c4.62,7.34,9.24,14.68,13.87,22.02c0-2.1,0-4.21,0-6.31
			c-4.62,7.34-9.24,14.68-13.87,22.02C482.58,335.7,493.4,341.99,497.68,335.18L497.68,335.18z"/>
	</g>
	<g class="st15">
		<path class="st12" d="M468.91,335.18c4.62-7.34,9.24-14.68,13.87-22.02c1.15-1.83,1.15-4.49,0-6.31
			c-4.62-7.34-9.24-14.68-13.87-22.02c-4.28-6.8-15.11-0.53-10.8,6.31c4.62,7.34,9.24,14.68,13.87,22.02c0-2.1,0-4.21,0-6.31
			c-4.62,7.34-9.24,14.68-13.87,22.02C453.8,335.7,464.63,341.99,468.91,335.18L468.91,335.18z"/>
	</g>
	<g class="st16">
		<path class="st12" d="M439.13,335.18c4.62-7.34,9.24-14.68,13.87-22.02c1.15-1.83,1.15-4.49,0-6.31
			c-4.62-7.34-9.24-14.68-13.87-22.02c-4.28-6.8-15.11-0.53-10.8,6.31c4.62,7.34,9.24,14.68,13.87,22.02c0-2.1,0-4.21,0-6.31
			c-4.62,7.34-9.24,14.68-13.87,22.02C424.02,335.7,434.84,341.99,439.13,335.18L439.13,335.18z"/>
	</g>
</g>
<g>
	<path class="st17" d="M381.13,95.52v2.74h-4.67v11.45h-2.97V98.25h-4.66v-2.74H381.13z"/>
	<path class="st17" d="M389.71,95.53c4.31,0,7.23,3.24,7.23,7.09c0,4.19-3.26,7.09-7.23,7.09c-4.29,0-7.23-3.21-7.23-7.09
		C382.48,98.59,385.66,95.53,389.71,95.53z M389.71,107.03c2.64,0,4.14-2.03,4.14-4.41c0-2.62-1.79-4.41-4.14-4.41
		c-2.62,0-4.15,2.03-4.15,4.41C385.55,105.02,387.18,107.03,389.71,107.03z"/>
	<path class="st17" d="M404.11,95.53h2.97v14.18h-2.97V95.53z"/>
	<path class="st17" d="M422.75,95.54v14.17h-1.48l-8.54-8.94v8.94h-2.96V95.54h1.48l8.53,8.94v-8.94H422.75z"/>
	<path class="st17" d="M426.63,105.22c1.31,1.27,2.87,1.78,4.16,1.78c1.45,0.01,2.56-0.64,2.56-1.6c0-2.53-8.39-0.53-8.39-5.65
		c0-2.82,2.31-4.21,5.04-4.21c1.74,0,3.65,0.56,5.22,1.68l-1.68,2.06c-0.9-0.66-2.33-1.07-3.53-1.07c-1.18,0-2.13,0.39-2.13,1.33
		c0,2.67,8.39,0.35,8.39,5.85c0,2.48-2.37,4.31-5.4,4.31c-1.9,0-4.06-0.72-6.06-2.46L426.63,105.22z"/>
	<path class="st17" d="M449.9,95.52v2.74h-4.67v11.45h-2.97V98.25h-4.66v-2.74H449.9z"/>
	<path class="st17" d="M459.5,95.53l5.62,14.18h-2.92l-0.86-2.15h-6.62l-0.85,2.15h-2.93l5.63-14.18H459.5z M455.78,104.88h4.5
		l-2.25-5.9L455.78,104.88z"/>
	<path class="st17" d="M469.93,95.52v11.45h7.01v2.74h-9.98V95.52H469.93z"/>
	<path class="st17" d="M481.62,95.52v11.45h7.01v2.74h-9.98V95.52H481.62z"/>
	<path class="st17" d="M507.85,102.63c0,4-3.21,7.08-7.23,7.08h-5.23V95.54h5.23C504.58,95.54,507.85,98.57,507.85,102.63z
		 M504.78,102.63c0-2.35-1.57-4.42-4.15-4.42h-2.27v8.83h2.27C503,107.04,504.78,105.13,504.78,102.63z"/>
	<path class="st17" d="M518.88,109.71l-3.36-5.75h-2.63v5.75h-2.96V95.54h7.21c2.39,0,4.3,1.65,4.3,4.24c0,1.85-0.9,3.22-2.76,3.91
		l3.52,6.02H518.88z M512.89,101.29h3.89c0.85,0,1.77-0.52,1.77-1.51c0-0.95-0.87-1.51-1.78-1.51h-3.88V101.29z"/>
	<path class="st17" d="M532.12,95.53l5.62,14.18h-2.92l-0.86-2.15h-6.62l-0.85,2.15h-2.93l5.63-14.18H532.12z M528.4,104.88h4.5
		l-2.25-5.9L528.4,104.88z"/>
	<path class="st17" d="M553.28,100.59c0.19,0.65,0.28,1.33,0.28,2.03c0,3.98-3.15,7.09-7.24,7.09c-3.93,0-7.23-2.97-7.23-7.09
		c0-3.98,3.13-7.1,7.23-7.1c1.57,0,2.99,0.42,4.22,1.25l-1.75,2.22c-0.72-0.52-1.54-0.78-2.47-0.78c-2.46,0-4.15,1.93-4.15,4.42
		c0,2.38,1.65,4.41,4.15,4.41c2.1,0,3.6-1.35,4.04-3.36c0.03-0.11,0.05-0.23,0.07-0.35h-4.11v-2.73H553.28z"/>
	<path class="st12" d="M571.55,95.52v1.36l-6.97,10.09h6.97v2.74h-11.04v-1.36l6.97-10.09h-6.97v-2.74H571.55z"/>
	<path class="st12" d="M584.14,95.53v2.73h-7.01v2.33h5.22v2.73h-5.22v3.66h7.01v2.73h-9.98V95.53H584.14z"/>
	<path class="st12" d="M598.96,95.54v14.17h-1.48l-8.54-8.94v8.94h-2.96V95.54h1.48l8.53,8.94v-8.94H598.96z"/>
	<path class="st12" d="M608.33,95.53c4.31,0,7.23,3.24,7.23,7.09c0,4.19-3.26,7.09-7.23,7.09c-4.29,0-7.23-3.21-7.23-7.09
		C601.1,98.59,604.28,95.53,608.33,95.53z M608.33,107.03c2.64,0,4.14-2.03,4.14-4.41c0-2.62-1.79-4.41-4.14-4.41
		c-2.62,0-4.15,2.03-4.15,4.41C604.17,105.02,605.81,107.03,608.33,107.03z"/>
	<path class="st12" d="M630.68,95.54v14.17h-1.48l-8.54-8.94v8.94h-2.96V95.54h1.48l8.53,8.94v-8.94H630.68z"/>
	<path class="st17" d="M353.66,119.81v2.74h-4.67V134h-2.97v-11.45h-4.66v-2.74H353.66z"/>
	<path class="st17" d="M362.23,119.82c4.31,0,7.23,3.24,7.23,7.09c0,4.19-3.26,7.09-7.23,7.09c-4.29,0-7.23-3.21-7.23-7.09
		C355.01,122.88,358.19,119.82,362.23,119.82z M362.23,131.32c2.64,0,4.14-2.03,4.14-4.41c0-2.62-1.79-4.41-4.14-4.41
		c-2.62,0-4.15,2.03-4.15,4.41C358.08,129.31,359.71,131.32,362.23,131.32z"/>
	<path class="st17" d="M388.14,119.81v2.74h-4.67V134h-2.97v-11.45h-4.66v-2.74H388.14z"/>
	<path class="st17" d="M402.28,119.82V134h-2.97v-6.38h-6.36V134H390v-14.18h2.96v5.06h6.36v-5.06H402.28z"/>
	<path class="st17" d="M414.94,119.82v2.73h-7.01v2.33h5.22v2.73h-5.22v3.66h7.01V134h-9.98v-14.18H414.94z"/>
	<path class="st17" d="M429.56,119.82l5.62,14.18h-2.92l-0.86-2.15h-6.62l-0.85,2.15h-2.93l5.63-14.18H429.56z M425.84,129.17h4.5
		l-2.24-5.9L425.84,129.17z"/>
	<path class="st17" d="M444.22,119.83c2.39,0,4.3,1.65,4.3,4.24c0,2.4-1.85,4.18-4.3,4.18h-4.25V134h-2.96v-14.17H444.22z
		 M443.85,125.58c0.85,0,1.77-0.52,1.77-1.51c0-0.95-0.87-1.51-1.78-1.51h-3.88v3.03H443.85z"/>
	<path class="st17" d="M457.44,119.83c2.39,0,4.3,1.65,4.3,4.24c0,2.4-1.85,4.18-4.3,4.18h-4.25V134h-2.96v-14.17H457.44z
		 M457.07,125.58c0.85,0,1.77-0.52,1.77-1.51c0-0.95-0.87-1.51-1.78-1.51h-3.88v3.03H457.07z"/>
	<path class="st17" d="M466.42,119.81v11.45h7.01V134h-9.98v-14.19H466.42z"/>
	<path class="st17" d="M475.16,119.82h2.97V134h-2.97V119.82z"/>
	<path class="st17" d="M494.45,129.03c-0.85,2.98-3.64,4.97-6.88,4.97c-3.95,0-7.23-3.04-7.23-7.09c0-3.98,3.13-7.1,7.23-7.1
		c3.13,0,5.96,1.86,6.88,4.98l-2.82,0.86c-0.5-1.85-2.09-3.16-4.06-3.16c-2.46,0-4.15,1.93-4.15,4.42c0,2.38,1.65,4.41,4.15,4.41
		c1.99,0,3.52-1.23,4.06-3.16L494.45,129.03z"/>
	<path class="st17" d="M504.23,119.82l5.62,14.18h-2.92l-0.86-2.15h-6.62L498.6,134h-2.93l5.63-14.18H504.23z M500.51,129.17h4.5
		l-2.25-5.9L500.51,129.17z"/>
	<path class="st17" d="M523.19,119.81v2.74h-4.67V134h-2.97v-11.45h-4.66v-2.74H523.19z"/>
	<path class="st17" d="M525.06,119.82h2.97V134h-2.97V119.82z"/>
	<path class="st17" d="M537.44,119.82c4.31,0,7.23,3.24,7.23,7.09c0,4.19-3.26,7.09-7.23,7.09c-4.29,0-7.23-3.21-7.23-7.09
		C530.21,122.88,533.4,119.82,537.44,119.82z M537.44,131.32c2.64,0,4.14-2.03,4.14-4.41c0-2.62-1.79-4.41-4.14-4.41
		c-2.62,0-4.15,2.03-4.15,4.41C533.29,129.31,534.92,131.32,537.44,131.32z"/>
	<path class="st17" d="M559.8,119.83V134h-1.48l-8.54-8.94V134h-2.96v-14.17h1.48l8.53,8.94v-8.94H559.8z"/>
	<path class="st17" d="M563.68,129.51c1.31,1.27,2.87,1.78,4.16,1.78c1.45,0.01,2.56-0.64,2.56-1.6c0-2.53-8.39-0.53-8.39-5.65
		c0-2.82,2.31-4.21,5.04-4.21c1.74,0,3.65,0.56,5.22,1.68l-1.68,2.06c-0.9-0.66-2.33-1.07-3.53-1.07c-1.18,0-2.13,0.39-2.13,1.33
		c0,2.67,8.39,0.35,8.39,5.85c0,2.48-2.37,4.31-5.4,4.31c-1.9,0-4.06-0.72-6.06-2.46L563.68,129.51z"/>
	<path class="st17" d="M590.45,119.82v2.73h-7.01v2.33h5.22v2.73h-5.22V134h-2.97v-14.18H590.45z"/>
	<path class="st17" d="M598.89,119.82c4.31,0,7.23,3.24,7.23,7.09c0,4.19-3.26,7.09-7.23,7.09c-4.29,0-7.23-3.21-7.23-7.09
		C591.66,122.88,594.84,119.82,598.89,119.82z M598.89,131.32c2.64,0,4.14-2.03,4.14-4.41c0-2.62-1.79-4.41-4.14-4.41
		c-2.62,0-4.15,2.03-4.15,4.41C594.73,129.31,596.37,131.32,598.89,131.32z"/>
	<path class="st17" d="M611.23,119.81v11.45h7.01V134h-9.98v-14.19H611.23z"/>
	<path class="st17" d="M632.44,126.92c0,4-3.21,7.08-7.23,7.08h-5.23v-14.17h5.23C629.17,119.83,632.44,122.86,632.44,126.92z
		 M629.36,126.92c0-2.35-1.57-4.42-4.15-4.42h-2.27v8.83h2.27C627.58,131.33,629.36,129.42,629.36,126.92z"/>
	<path class="st17" d="M644.54,119.82v2.73h-7.01v2.33h5.22v2.73h-5.22v3.66h7.01V134h-9.98v-14.18H644.54z"/>
	<path class="st17" d="M655.31,134l-3.36-5.75h-2.63V134h-2.96v-14.17h7.21c2.39,0,4.3,1.65,4.3,4.24c0,1.85-0.9,3.22-2.76,3.91
		l3.52,6.02H655.31z M649.32,125.58h3.89c0.85,0,1.77-0.52,1.77-1.51c0-0.95-0.87-1.51-1.78-1.51h-3.88V125.58z"/>
</g>
</svg>
