<?xml version="1.0" encoding="utf-8"?>
<!-- Generator: Adobe Illustrator 23.0.3, SVG Export Plug-In . SVG Version: 6.00 Build 0)  -->
<svg version="1.1" id="Layer_1" xmlns="http://www.w3.org/2000/svg" xmlns:xlink="http://www.w3.org/1999/xlink" x="0px" y="0px"
	 viewBox="0 0 512 512" style="enable-background:new 0 0 512 512;" xml:space="preserve">
<style type="text/css">
	.st0{fill:#6FF34D;}
</style>
<g>
	<g>
		<path class="st0" d="M416.4,394.4H95.6c-18.9,0-34.3-15.4-34.3-34.3V347c0-18.9,15.4-34.3,34.3-34.3h21.5v26.1H95.6
			c-4.5,0-8.1,3.6-8.1,8.1v13.2c0,4.5,3.6,8.1,8.1,8.1h320.7c4.5,0,8.1-3.6,8.1-8.1v-13.2c0-4.5-3.6-8.1-8.1-8.1h-21.5v-26.1h21.5
			c18.9,0,34.3,15.4,34.3,34.3v13.2C450.6,379,435.3,394.4,416.4,394.4z"/>
	</g>
</g>
<path class="st0" d="M375.6,339.7H136.4V125.3c0-4.3,3.5-7.7,7.7-7.7h223.7c4.3,0,7.7,3.5,7.7,7.7L375.6,339.7L375.6,339.7z"/>
</svg>
