<?xml version="1.0" encoding="utf-8"?>
<!-- Generator: Adobe Illustrator 21.0.0, SVG Export Plug-In . SVG Version: 6.00 Build 0)  -->
<svg version="1.1" id="Layer_1" xmlns="http://www.w3.org/2000/svg" xmlns:xlink="http://www.w3.org/1999/xlink" x="0px" y="0px"
	 viewBox="0 0 256 257" style="enable-background:new 0 0 256 257;" xml:space="preserve">
<style type="text/css">
	.st0{fill:#6FF34D;}
</style>
<path class="st0" d="M209.7,177.1l-37.4-37.4c12.3-25.9,7.8-57.9-13.7-79.2C145.4,47.4,127.8,40,109.2,40S73,47.2,59.9,60.5
	c-13.1,13.1-20.4,30.7-20.4,49.3s7.2,36.2,20.4,49.3c13.1,13.1,30.7,20.4,49.3,20.4c10.5,0,20.8-2.3,30-6.7l37.4,37.4
	c4.3,4.3,10,6.7,16.2,6.7c6.2,0,11.9-2.4,16.2-6.7l0.7-0.7c4.3-4.3,6.7-10,6.7-16.2C216.3,187.2,214,181.3,209.7,177.1z M66.8,152.2
	c-11.3-11.3-17.6-26.4-17.6-42.5s6.3-31.2,17.6-42.5s26.4-17.6,42.5-17.6s31.2,6.3,42.5,17.6c23.4,23.4,23.4,61.5,0,84.9
	c-11.3,11.3-26.5,17.6-42.6,17.6C93.1,169.7,78.1,163.5,66.8,152.2z M202.8,202.6l-0.7,0.7c-5.1,5.1-13.6,5.1-18.7,0l-35.5-35.5
	c3.8-2.5,7.3-5.5,10.6-8.8c3.3-3.3,6.3-6.8,8.8-10.6l35.5,35.5c2.5,2.5,3.9,5.8,3.9,9.4C206.7,196.7,205.3,200.2,202.8,202.6z"/>
</svg>
