<?xml version="1.0" encoding="utf-8"?>
<!-- Generator: Adobe Illustrator 21.0.0, SVG Export Plug-In . SVG Version: 6.00 Build 0)  -->
<svg version="1.1" id="Layer_1" xmlns="http://www.w3.org/2000/svg" xmlns:xlink="http://www.w3.org/1999/xlink" x="0px" y="0px"
	 viewBox="0 0 1024 1024" style="enable-background:new 0 0 1024 1024;" xml:space="preserve">
<style type="text/css">
	.st0{fill:url(#SVGID_1_);}
	.st1{fill:url(#SVGID_2_);}
	.st2{fill:url(#SVGID_3_);}
</style>
<g>
	<g>
		<radialGradient id="SVGID_1_" cx="511.9958" cy="512.048" r="458.4073" gradientUnits="userSpaceOnUse">
			<stop  offset="0" style="stop-color:#000000"/>
			<stop  offset="1" style="stop-color:#000000"/>
		</radialGradient>
		<circle class="st0" cx="512" cy="512" r="458.4"/>
		<g>
			<linearGradient id="SVGID_2_" gradientUnits="userSpaceOnUse" x1="50.621" y1="512" x2="973.3706" y2="512">
				<stop  offset="0" style="stop-color:#064709"/>
				<stop  offset="9.806540e-03" style="stop-color:#05560D"/>
				<stop  offset="3.737012e-02" style="stop-color:#047B17"/>
				<stop  offset="6.831978e-02" style="stop-color:#039B1F"/>
				<stop  offset="0.1024" style="stop-color:#02B726"/>
				<stop  offset="0.1408" style="stop-color:#01CD2C"/>
				<stop  offset="0.1855" style="stop-color:#01DE31"/>
				<stop  offset="0.2404" style="stop-color:#00EA34"/>
				<stop  offset="0.3166" style="stop-color:#00F135"/>
				<stop  offset="0.52" style="stop-color:#00F336"/>
				<stop  offset="0.6168" style="stop-color:#00F035"/>
				<stop  offset="0.6946" style="stop-color:#00E632"/>
				<stop  offset="0.7658" style="stop-color:#01D52E"/>
				<stop  offset="0.8331" style="stop-color:#02BD28"/>
				<stop  offset="0.8975" style="stop-color:#039E20"/>
				<stop  offset="0.9591" style="stop-color:#047916"/>
				<stop  offset="1" style="stop-color:#055C0E"/>
			</linearGradient>
			<path class="st1" d="M961.5,512c-0.3,93.1-29.1,184.3-83,260.3c-52.1,73.4-126.7,130.7-211.3,161.7
				c-88.7,32.5-186.8,36.3-277.7,10.6c-87.5-24.7-166.1-76.4-224.1-146.3c-58.8-70.8-94.8-159.9-101.6-251.7
				c-6.9-93,15-186.8,63.2-266.7c46.8-77.5,116.8-139.7,199.1-177.3c85.6-39.2,183.8-50,276-31.1c89,18.2,171.2,63.6,234.2,129.1
				c63.5,66,105.6,150.8,119.9,241.3C959.8,465.1,961.4,488.6,961.5,512c0,11.5,17.8,11.5,17.8,0c-0.3-96.5-30.1-191.7-86.2-270.4
				C838.5,165,761.5,105.9,673.2,73.3c-91.8-33.9-194.3-37.6-288.4-11.1C294.1,87.9,211.9,141.5,152,214.2
				c-61.2,74.2-98.5,166-105.9,261.9c-7.5,96.8,15.8,195.2,66.2,278.1c48.7,80.1,121.6,145.1,207.2,183.7
				c89.3,40.2,190,51.4,286,32.1c92.8-18.7,178.9-66.6,244.2-134.9c65.6-68.6,109.7-157,124-250.9c3.7-23.9,5.5-48,5.6-72.2
				C979.3,500.6,961.5,500.6,961.5,512z"/>
		</g>
	</g>
	<g>
		<linearGradient id="SVGID_3_" gradientUnits="userSpaceOnUse" x1="312.5248" y1="857.5419" x2="711.4668" y2="166.5541">
			<stop  offset="0" style="stop-color:#064709"/>
			<stop  offset="9.806540e-03" style="stop-color:#05560D"/>
			<stop  offset="3.737012e-02" style="stop-color:#047B17"/>
			<stop  offset="6.831978e-02" style="stop-color:#039B1F"/>
			<stop  offset="0.1024" style="stop-color:#02B726"/>
			<stop  offset="0.1408" style="stop-color:#01CD2C"/>
			<stop  offset="0.1855" style="stop-color:#01DE31"/>
			<stop  offset="0.2404" style="stop-color:#00EA34"/>
			<stop  offset="0.3166" style="stop-color:#00F135"/>
			<stop  offset="0.52" style="stop-color:#00F336"/>
			<stop  offset="0.6168" style="stop-color:#00F035"/>
			<stop  offset="0.6946" style="stop-color:#00E632"/>
			<stop  offset="0.7658" style="stop-color:#01D52E"/>
			<stop  offset="0.8331" style="stop-color:#02BD28"/>
			<stop  offset="0.8975" style="stop-color:#039E20"/>
			<stop  offset="0.9591" style="stop-color:#047916"/>
			<stop  offset="1" style="stop-color:#055C0E"/>
		</linearGradient>
		<path class="st2" d="M723.9,173.7H300.1v84.8h269l-269,165.2v426.6h74.3l-0.3-211.2l273.2,211.2h76.7v-42.9v-8.1V437.2l-282.8-0.7
			l282.8-181.4V173.7z M646.2,519.1l1.3,219l-273.4-219H646.2z"/>
	</g>
</g>
</svg>
