<?xml version="1.0" encoding="utf-8"?>
<!-- Generator: Adobe Illustrator 21.0.0, SVG Export Plug-In . SVG Version: 6.00 Build 0)  -->
<svg version="1.1" id="Layer_1" xmlns="http://www.w3.org/2000/svg" xmlns:xlink="http://www.w3.org/1999/xlink" x="0px" y="0px"
	 viewBox="0 0 256 256" style="enable-background:new 0 0 256 256;" xml:space="preserve">
<style type="text/css">
	.st0{fill:#6FF34D;}
</style>
<path class="st0" d="M224.8,95.9c-0.9-1.1-2.2-1.7-3.6-1.7h-14V58c0-2.6-2.1-4.7-4.7-4.7H53.4c-2.6,0-4.7,2.1-4.7,4.7V78h-14
	c-1.4,0-2.7,0.6-3.5,1.6c-0.9,1-1.3,2.4-1.1,3.8l18.6,117.4c0.4,2.3,2.3,3.9,4.6,3.9h44.9c7.3,4.4,15.7,6.7,24.4,6.7
	c6.2,0,12.2-1.2,17.8-3.4l29.2,29.3c3.5,3.5,8.1,5.4,13,5.4c4.9,0,9.6-1.9,13-5.4l0.5-0.5c7.2-7.2,7.2-18.9,0-26.1l-6-6h12.2
	c2.3,0,4.2-1.6,4.6-3.8l18.6-101.2C226.1,98.4,225.7,97,224.8,95.9z M58.1,62.6h139.8v31.6h-91.7L84,78.8c-0.8-0.5-1.7-0.8-2.7-0.8
	H58.1V62.6z M95.5,190.9c-15-15-15-39.4,0-54.4c7.2-7.3,16.9-11.2,27.2-11.2c10.3,0,20,4,27.2,11.3c7.3,7.3,11.3,16.9,11.3,27.2
	c0,10.3-4,19.9-11.3,27.2c-7.3,7.3-16.9,11.3-27.2,11.3C112.5,202.1,102.8,198.1,95.5,190.9z M189.8,230.2l-0.5,0.5
	c-1.7,1.7-4,2.7-6.4,2.7c-2.4,0-4.7-0.9-6.4-2.7l-27.2-27.2c2.6-1.7,5.1-3.8,7.4-6c2.3-2.3,4.3-4.7,6-7.3l27.2,27.2
	C193.3,220.9,193.3,226.7,189.8,230.2z M198.7,195.5h-17.6l-14-14c2.2-5.6,3.4-11.6,3.4-17.8c0-12.8-5-24.8-14-33.8
	c-9-9-21-14-33.8-14c-12.8,0-24.8,5-33.8,14c-18,18-18.6,46.8-1.9,65.6H57.4L40.2,87.3h39.7l22.2,15.4c0.8,0.5,1.7,0.8,2.7,0.8
	h110.9L198.7,195.5z"/>
</svg>
