<?xml version="1.0" encoding="utf-8"?>
<!-- Generator: Adobe Illustrator 21.0.0, SVG Export Plug-In . SVG Version: 6.00 Build 0)  -->
<svg version="1.1" id="Layer_1" xmlns="http://www.w3.org/2000/svg" xmlns:xlink="http://www.w3.org/1999/xlink" x="0px" y="0px"
	 viewBox="0 0 128 128" style="enable-background:new 0 0 128 128;" xml:space="preserve">
<style type="text/css">
	.st0{fill:#6FF34D;}
</style>
<path class="st0" d="M64,10c-29.8,0-54,24.2-54,54c0,29.8,24.2,54,54,54c29.8,0,54-24.2,54-54C118,34.2,93.8,10,64,10z M64,112.9
	c-27,0-48.9-21.9-48.9-48.9S37,15.1,64,15.1S112.9,37,112.9,64S91,112.9,64,112.9z"/>
<circle class="st0" cx="64" cy="64" r="4.9"/>
<path class="st0" d="M101,45.8c1.2-0.7,1.6-2.3,0.9-3.5c0,0,0,0,0,0c-0.7-1.2-2.3-1.6-3.5-0.9L63.1,62.1l3.9,3.7L101,45.8z"/>
<path class="st0" d="M89.6,75.6L66.4,62.2l-5.1,1.5c0,0.9,0.5,1.8,1.3,2.2L87,80.1c0.4,0.2,0.8,0.3,1.3,0.3c0.9,0,1.8-0.5,2.2-1.3
	C91.2,77.9,90.8,76.3,89.6,75.6z"/>
<circle class="st0" cx="63.7" cy="105.7" r="2.6"/>
<circle class="st0" cx="63.7" cy="22.7" r="2.6"/>
<ellipse transform="matrix(0.866 -0.5 0.5 0.866 -8.3803 25.2933)" class="st0" cx="43" cy="28.3" rx="2.6" ry="2.6"/>
<ellipse transform="matrix(0.8662 -0.4998 0.4998 0.8662 -38.7398 55.6306)" class="st0" cx="84.5" cy="100.1" rx="2.6" ry="2.6"/>
<ellipse transform="matrix(0.5001 -0.866 0.866 0.5001 -23.7362 45.8216)" class="st0" cx="27.8" cy="43.5" rx="2.6" ry="2.6"/>
<ellipse transform="matrix(0.5001 -0.866 0.866 0.5001 -23.7395 128.791)" class="st0" cx="99.7" cy="85" rx="2.6" ry="2.6"/>
<circle class="st0" cx="22.3" cy="64.2" r="2.6"/>
<circle class="st0" cx="105.2" cy="64.2" r="2.6"/>
<ellipse transform="matrix(0.866 -0.5001 0.5001 0.866 -38.756 25.2964)" class="st0" cx="27.8" cy="85" rx="2.6" ry="2.6"/>
<ellipse transform="matrix(0.866 -0.5001 0.5001 0.866 -8.3793 55.6707)" class="st0" cx="99.7" cy="43.5" rx="2.6" ry="2.6"/>
<ellipse transform="matrix(0.4998 -0.8662 0.8662 0.4998 -65.2266 87.3402)" class="st0" cx="43" cy="100.1" rx="2.6" ry="2.6"/>
<ellipse transform="matrix(0.5 -0.866 0.866 0.5 17.7489 87.3097)" class="st0" cx="84.5" cy="28.3" rx="2.6" ry="2.6"/>
</svg>
