<?xml version="1.0" encoding="utf-8"?>
<!-- Generator: Adobe Illustrator 21.0.0, SVG Export Plug-In . SVG Version: 6.00 Build 0)  -->
<svg version="1.1" id="Layer_1" xmlns="http://www.w3.org/2000/svg" xmlns:xlink="http://www.w3.org/1999/xlink" x="0px" y="0px"
	 viewBox="0 0 128 128" style="enable-background:new 0 0 128 128;" xml:space="preserve">
<style type="text/css">
	.st0{fill:#6FF34D;}
</style>
<g>
	<path class="st0" d="M64,40.5C51,40.5,40.5,51,40.5,64C40.5,77,51,87.5,64,87.5C77,87.5,87.5,77,87.5,64C87.5,51,77,40.5,64,40.5z
		 M64,82c-9.9,0-18-8.1-18-18c0-9.9,8.1-18,18-18c9.9,0,18,8.1,18,18C82,73.9,73.9,82,64,82z"/>
	<path class="st0" d="M117,73.2V54.6c0-1.5-1.2-2.8-2.8-2.8h-11.7c-0.7-2.2-1.6-4.4-2.7-6.5l8.2-8.2c0.5-0.5,0.8-1.2,0.8-2
		c0-0.7-0.3-1.4-0.8-2L94.8,19.9c-0.5-0.5-1.2-0.8-2-0.8c-0.7,0-1.4,0.3-2,0.8l-8.2,8.2c-2.1-1.1-4.2-2-6.5-2.7V13.8
		c0-1.5-1.2-2.8-2.8-2.8H54.6c-1.5,0-2.8,1.2-2.8,2.8v11.6c-2.2,0.7-4.4,1.6-6.5,2.7l-8.2-8.2c-0.5-0.5-1.2-0.8-2-0.8
		c-0.7,0-1.4,0.3-2,0.8L19.9,33.2c-0.5,0.5-0.8,1.2-0.8,2c0,0.7,0.3,1.4,0.8,2l8.2,8.2c-1.1,2.1-2,4.2-2.7,6.5H13.8
		c-1.5,0-2.8,1.2-2.8,2.8v18.8c0,1.5,1.2,2.8,2.8,2.8h11.6c0.7,2.2,1.6,4.4,2.7,6.5l-8.2,8.2c-1.1,1.1-1.1,2.8,0,3.9l13.3,13.3
		c0.5,0.5,1.2,0.8,2,0.8c0.7,0,1.4-0.3,2-0.8l8.2-8.2c2.1,1.1,4.2,2,6.5,2.7v11.7c0,1.5,1.2,2.8,2.8,2.8h18.8c1.5,0,2.8-1.2,2.8-2.8
		v-11.7c2.2-0.7,4.4-1.6,6.5-2.7l8.2,8.2c0.5,0.5,1.2,0.8,2,0.8c0.7,0,1.4-0.3,2-0.8l13.3-13.3c1.1-1.1,1.1-2.8,0-3.9l-8.2-8.2
		c1.1-2.1,2-4.2,2.7-6.5h11.7c0,0,0,0,0,0c1.5,0,2.8-1.2,2.8-2.8C117,73.3,117,73.3,117,73.2z M100.4,70.6c-1.3,0-2.4,0.9-2.7,2.1
		c-0.8,3.1-2.1,6.2-3.7,9c-0.6,1.1-0.5,2.5,0.4,3.4l7.8,7.8l-9.4,9.4l-7.8-7.8c-0.9-0.9-2.3-1.1-3.4-0.4c-2.8,1.7-5.8,2.9-9,3.7
		c-1.2,0.3-2.1,1.4-2.1,2.7v11H57.4v-11c0-1.3-0.9-2.4-2.1-2.7c-3.1-0.8-6.2-2.1-9-3.7c-1.1-0.6-2.5-0.5-3.4,0.4l-7.8,7.8l-9.4-9.4
		l7.8-7.8c0.9-0.9,1.1-2.3,0.4-3.4c-1.7-2.8-2.9-5.8-3.7-9c-0.3-1.2-1.4-2.1-2.7-2.1h-11V57.4h11c1.3,0,2.4-0.9,2.7-2.1
		c0.8-3.1,2.1-6.2,3.7-9c0.6-1.1,0.5-2.5-0.4-3.4l-7.8-7.8l9.4-9.4l7.8,7.8c0.9,0.9,2.3,1.1,3.4,0.4c2.8-1.7,5.8-2.9,9-3.7
		c1.2-0.3,2.1-1.4,2.1-2.7v-11h13.3v11c0,1.3,0.9,2.4,2.1,2.7c3.2,0.8,6.2,2.1,9,3.7c1.1,0.6,2.5,0.5,3.4-0.4l7.8-7.8l9.4,9.4
		l-7.8,7.8c-0.9,0.9-1.1,2.3-0.4,3.4c1.7,2.8,2.9,5.8,3.7,9c0.3,1.2,1.4,2.1,2.7,2.1h11v13.3H100.4z"/>
</g>
</svg>
