<?xml version="1.0" encoding="utf-8"?>
<!-- Generator: Adobe Illustrator 21.0.0, SVG Export Plug-In . SVG Version: 6.00 Build 0)  -->
<svg version="1.1" id="Layer_1" xmlns="http://www.w3.org/2000/svg" xmlns:xlink="http://www.w3.org/1999/xlink" x="0px" y="0px"
	 viewBox="0 0 240 224" style="enable-background:new 0 0 240 224;" xml:space="preserve">
<style type="text/css">
	.st0{fill:#9E9E9E;}
</style>
<g>
	<path class="st0" d="M49.3,8.6c1.4-1.4,1.4-3.8,0-5.2c-1.4-1.4-3.8-1.4-5.2,0c-41.9,41.9-41.9,110,0,151.8c0.7,0.7,1.7,1.1,2.6,1.1
		s1.9-0.4,2.6-1.1c1.4-1.4,1.4-3.8,0-5.2C10.3,111,10.3,47.6,49.3,8.6z"/>
	<path class="st0" d="M195.9,3.4c-1.4-1.4-3.8-1.4-5.2,0c-1.4,1.4-1.4,3.8,0,5.2c18.9,18.8,29.2,44,29.2,70.7s-10.4,51.8-29.2,70.7
		c-1.4,1.4-1.4,3.8,0,5.2c0.7,0.7,1.7,1.1,2.6,1.1c0.9,0,1.9-0.4,2.6-1.1c20.3-20.2,31.4-47.2,31.4-75.9S216.2,23.6,195.9,3.4z"/>
	<path class="st0" d="M65,24.3c1.4-1.4,1.4-3.8,0-5.2c-1.4-1.4-3.8-1.4-5.2,0c-33.2,33.2-33.2,87.2,0,120.4c0.7,0.7,1.7,1.1,2.6,1.1
		s1.9-0.4,2.6-1.1c1.4-1.4,1.4-3.8,0-5.2C34.7,104,34.7,54.6,65,24.3z"/>
	<path class="st0" d="M180.2,19.1c-1.4-1.4-3.8-1.4-5.2,0c-1.4,1.4-1.4,3.8,0,5.2c30.3,30.3,30.3,79.6,0,110c-1.4,1.4-1.4,3.8,0,5.2
		c0.7,0.7,1.7,1.1,2.6,1.1s1.9-0.4,2.6-1.1C213.4,106.3,213.4,52.3,180.2,19.1z"/>
	<path class="st0" d="M80.7,34.8c-1.4-1.4-3.8-1.4-5.2,0C63.6,46.7,57.1,62.5,57.1,79.3s6.5,32.6,18.4,44.5c0.7,0.7,1.7,1.1,2.6,1.1
		c0.9,0,1.9-0.4,2.6-1.1c1.4-1.4,1.4-3.8,0-5.2c-21.7-21.7-21.7-56.9,0-78.5C82.2,38.6,82.2,36.2,80.7,34.8z"/>
	<path class="st0" d="M164.5,34.8c-1.4-1.4-3.8-1.4-5.2,0c-1.4,1.4-1.4,3.8,0,5.2c21.7,21.7,21.7,56.9,0,78.5
		c-1.4,1.4-1.4,3.8,0,5.2c0.7,0.7,1.7,1.1,2.6,1.1s1.9-0.4,2.6-1.1c11.9-11.9,18.4-27.7,18.4-44.5S176.4,46.7,164.5,34.8z"/>
	<path class="st0" d="M120,54.1c-14.3,0-25.9,11.6-25.9,25.9c0,13,9.7,23.8,22.2,25.6V217c0,2,1.7,3.7,3.7,3.7c2,0,3.7-1.7,3.7-3.7
		V105.7c12.5-1.8,22.2-12.6,22.2-25.6C145.9,65.8,134.3,54.1,120,54.1z"/>
</g>
</svg>
