<?xml version="1.0" encoding="utf-8"?>
<!-- Generator: Adobe Illustrator 21.0.0, SVG Export Plug-In . SVG Version: 6.00 Build 0)  -->
<svg version="1.1" id="Layer_1" xmlns="http://www.w3.org/2000/svg" xmlns:xlink="http://www.w3.org/1999/xlink" x="0px" y="0px"
	 viewBox="0 0 240 224" style="enable-background:new 0 0 240 224;" xml:space="preserve">
<style type="text/css">
	.st0{fill:#6FF34D;}
</style>
<path class="st0" d="M49,8.7c1.5-1.5,1.5-3.8,0-5.3c-1.5-1.5-3.8-1.5-5.3,0c-42,42-42,110.4,0,152.4c0.7,0.7,1.7,1.1,2.6,1.1
	c0.9,0,1.9-0.4,2.6-1.1c1.5-1.5,1.5-3.8,0-5.3C9.9,111.5,9.9,47.8,49,8.7z"/>
<path class="st0" d="M196.2,3.5c-1.5-1.5-3.8-1.5-5.3,0s-1.5,3.8,0,5.3c18.9,18.9,29.3,44.1,29.3,71s-10.4,52-29.3,71
	c-1.5,1.5-1.5,3.8,0,5.3c0.7,0.7,1.7,1.1,2.6,1.1c1,0,1.9-0.4,2.6-1.1c20.3-20.3,31.5-47.4,31.5-76.2S216.5,23.8,196.2,3.5z"/>
<path class="st0" d="M64.8,24.5c1.5-1.5,1.5-3.8,0-5.3c-1.5-1.5-3.8-1.5-5.3,0c-33.3,33.3-33.3,87.6,0,120.9
	c0.7,0.7,1.7,1.1,2.6,1.1s1.9-0.4,2.6-1.1c1.5-1.5,1.5-3.8,0-5.3C34.4,104.4,34.4,54.9,64.8,24.5z"/>
<path class="st0" d="M180.4,19.2c-1.5-1.5-3.8-1.5-5.3,0c-1.5,1.5-1.5,3.8,0,5.3c30.4,30.4,30.4,79.9,0,110.4
	c-1.5,1.5-1.5,3.8,0,5.3c0.7,0.7,1.7,1.1,2.6,1.1s1.9-0.4,2.6-1.1C213.8,106.8,213.8,52.5,180.4,19.2z"/>
<path class="st0" d="M80.6,35c-1.5-1.5-3.8-1.5-5.3,0C63.4,46.9,56.8,62.8,56.8,79.7s6.6,32.8,18.5,44.7c0.7,0.7,1.7,1.1,2.6,1.1
	c1,0,1.9-0.4,2.6-1.1c1.5-1.5,1.5-3.8,0-5.3c-21.7-21.7-21.7-57.1,0-78.8C82,38.8,82,36.4,80.6,35z"/>
<path class="st0" d="M164.7,35c-1.5-1.5-3.8-1.5-5.3,0c-1.5,1.5-1.5,3.8,0,5.3c21.7,21.7,21.7,57.1,0,78.8c-1.5,1.5-1.5,3.8,0,5.3
	c0.7,0.7,1.7,1.1,2.6,1.1s1.9-0.4,2.6-1.1c11.9-11.9,18.5-27.8,18.5-44.7S176.6,46.9,164.7,35z"/>
<path class="st0" d="M120,54.4c-14.3,0-26,11.7-26,26c0,13.1,9.7,23.9,22.3,25.7v111.8c0,2.1,1.7,3.7,3.7,3.7s3.7-1.7,3.7-3.7V106.1
	c12.6-1.8,22.3-12.6,22.3-25.7C146,66.1,134.3,54.4,120,54.4z"/>
</svg>
