<?xml version="1.0" encoding="utf-8"?>
<!-- Generator: Adobe Illustrator 21.0.0, SVG Export Plug-In . SVG Version: 6.00 Build 0)  -->
<svg version="1.1" id="Layer_1" xmlns="http://www.w3.org/2000/svg" xmlns:xlink="http://www.w3.org/1999/xlink" x="0px" y="0px"
	 viewBox="0 0 240 224" style="enable-background:new 0 0 240 224;" xml:space="preserve">
<style type="text/css">
	.st0{fill:#9E9E9E;}
</style>
<g>
	<g>
		<g>
			<path class="st0" d="M120,178.6c-27.3,0-54.6,0-81.9,0c1.4,2.5,2.9,5,4.3,7.5c21.7-38.1,43.5-76.1,65.2-114.2
				c5.6-9.7,11.1-19.4,16.7-29.2c-2.9,0-5.8,0-8.7,0c21.7,38.1,43.5,76.1,65.2,114.2c5.6,9.7,11.1,19.4,16.7,29.2
				c1.4-2.5,2.9-5,4.3-7.5C174.6,178.6,147.3,178.6,120,178.6c-6.5,0-6.5,10,0,10c27.3,0,54.6,0,81.9,0c3.8,0,6.2-4.3,4.3-7.5
				C184.5,143.1,162.7,105,141,66.9c-5.6-9.7-11.1-19.4-16.7-29.2c-1.9-3.3-6.8-3.3-8.7,0C93.9,75.8,72.2,113.9,50.4,152
				c-5.6,9.7-11.1,19.4-16.7,29.2c-1.9,3.3,0.5,7.5,4.3,7.5c27.3,0,54.6,0,81.9,0C126.5,188.7,126.5,178.6,120,178.6z"/>
		</g>
	</g>
	<g>
		<g>
			<g>
				<path class="st0" d="M113.3,98.8c0,12.7,0,25.3,0,38c0,10.7,13.4,10.7,13.4,0c0-12.7,0-25.3,0-38
					C126.7,88.2,113.3,88.1,113.3,98.8L113.3,98.8z"/>
			</g>
		</g>
		<g>
			<circle class="st0" cx="120" cy="162.7" r="6.7"/>
			<path class="st0" d="M120,171c-4.6,0-8.4-3.7-8.4-8.4c0-4.6,3.7-8.4,8.4-8.4s8.4,3.7,8.4,8.4C128.4,167.3,124.6,171,120,171z
				 M120,157.7c-2.8,0-5,2.2-5,5s2.2,5,5,5s5-2.2,5-5S122.8,157.7,120,157.7z"/>
		</g>
	</g>
</g>
</svg>
