<?xml version="1.0" encoding="utf-8"?>
<!-- Generator: Adobe Illustrator 21.0.0, SVG Export Plug-In . SVG Version: 6.00 Build 0)  -->
<svg version="1.1" id="Layer_1" xmlns="http://www.w3.org/2000/svg" xmlns:xlink="http://www.w3.org/1999/xlink" x="0px" y="0px"
	 viewBox="0 0 256 256" style="enable-background:new 0 0 256 256;" xml:space="preserve">
<style type="text/css">
	.st0{fill:#6FF34D;}
</style>
<g>
	<path class="st0" d="M230.9,34.3H25.1c-3.4,0-6.1,2.7-6.1,6.1v175.3c0,3.4,2.7,6.1,6.1,6.1h205.8c3.4,0,6.1-2.7,6.1-6.1V40.4
		C237,37,234.3,34.3,230.9,34.3z M224.8,209.5H31.2V46.5h193.6V209.5z"/>
	<path class="st0" d="M71.7,95.3l-14.2,13.9c-2.4,2.4-2.4,6.2-0.1,8.6c1.2,1.2,2.8,1.8,4.4,1.8c1.5,0,3.1-0.6,4.3-1.7l18.6-18.2
		c1.2-1.1,1.8-2.7,1.8-4.4c0-1.6-0.7-3.2-1.8-4.4L66,72.6c-2.4-2.4-6.3-2.3-8.6,0.1c-2.4,2.4-2.3,6.3,0.1,8.6L71.7,95.3z"/>
	<path class="st0" d="M99.1,119.6h24.4c3.4,0,6.1-2.7,6.1-6.1c0-3.4-2.7-6.1-6.1-6.1H99.1c-3.4,0-6.1,2.7-6.1,6.1
		C93,116.9,95.7,119.6,99.1,119.6z"/>
</g>
</svg>
