<?xml version="1.0" encoding="utf-8"?>
<!-- Generator: Adobe Illustrator 21.0.0, SVG Export Plug-In . SVG Version: 6.00 Build 0)  -->
<svg version="1.1" id="Layer_1" xmlns="http://www.w3.org/2000/svg" xmlns:xlink="http://www.w3.org/1999/xlink" x="0px" y="0px"
	 viewBox="0 0 256 256" style="enable-background:new 0 0 256 256;" xml:space="preserve">
<style type="text/css">
	.st0{fill:#6FF34D;}
</style>
<g>
	<path class="st0" d="M72.9,150.8c-0.1,0.1-0.3,0.3-0.4,0.4c0,0-0.1,0.1-0.1,0.1c-0.1,0.1-0.2,0.2-0.3,0.4c0,0-0.1,0.1-0.1,0.2
		c-0.1,0.1-0.1,0.3-0.2,0.4c0,0,0,0.1-0.1,0.2c-0.1,0.1-0.1,0.3-0.2,0.4c0,0,0,0.1,0,0.1L60,189.2c-0.6,1.9-0.1,4,1.3,5.4
		c1,1,2.4,1.6,3.8,1.6c0.5,0,1.1-0.1,1.6-0.3l36.3-11.6c0,0,0.1,0,0.1,0c0.2,0,0.3-0.1,0.4-0.2c0,0,0.1,0,0.1-0.1
		c0.1-0.1,0.3-0.1,0.4-0.2c0,0,0.1-0.1,0.2-0.1c0.1-0.1,0.2-0.2,0.4-0.3c0,0,0.1-0.1,0.1-0.1c0.2-0.1,0.3-0.3,0.4-0.4c0,0,0,0,0,0
		L232.3,56c2.1-2.1,2.1-5.5,0-7.6l-24.7-24.8c-1-1-2.4-1.6-3.8-1.6h0c-1.4,0-2.8,0.6-3.8,1.6L72.9,150.8
		C72.9,150.7,72.9,150.8,72.9,150.8z M79.1,164.6l12.3,12.3l-18,5.7L79.1,164.6z M186.5,52.3l16.8,17.6L101.5,171.7l-17.2-17.2
		L186.5,52.3z M203.8,35L221,52.2l-10.1,10.1l-16.8-17.6L203.8,35z"/>
	<path class="st0" d="M228.5,86.4c-3,0-5.4,2.4-5.4,5.4v104.6c0,14.8-12,26.8-26.8,26.8H59.6c-14.8,0-26.8-12-26.8-26.8V59.6
		c0-14.8,12-26.8,26.8-26.8h104.6c3,0,5.4-2.4,5.4-5.4s-2.4-5.4-5.4-5.4H59.6c-20.7,0-37.5,16.8-37.5,37.5v136.7
		c0,20.7,16.8,37.5,37.5,37.5h136.7c20.7,0,37.5-16.8,37.5-37.5V91.8C233.9,88.8,231.5,86.4,228.5,86.4z"/>
</g>
</svg>
