<?xml version="1.0" encoding="utf-8"?>
<!-- Generator: Adobe Illustrator 21.0.0, SVG Export Plug-In . SVG Version: 6.00 Build 0)  -->
<svg version="1.1" id="Layer_1" xmlns="http://www.w3.org/2000/svg" xmlns:xlink="http://www.w3.org/1999/xlink" x="0px" y="0px"
	 viewBox="0 0 256 256" style="enable-background:new 0 0 256 256;" xml:space="preserve">
<style type="text/css">
	.st0{fill:#6FF34D;}
</style>
<path class="st0" d="M213.3,70.1c0-0.1,0-0.1,0-0.2c0-0.2,0-0.4-0.1-0.6c0,0,0,0,0,0c0-0.2-0.1-0.5-0.2-0.7c0,0,0-0.1,0-0.1
	c-0.1-0.2-0.2-0.4-0.3-0.6c0,0,0,0,0,0c-0.1-0.2-0.2-0.4-0.4-0.6c0,0-0.1-0.1-0.1-0.1c-0.1-0.2-0.3-0.4-0.5-0.5v0l-42-42l0,0
	c-0.2-0.2-0.3-0.3-0.5-0.5c0,0-0.1-0.1-0.1-0.1c-0.2-0.1-0.4-0.3-0.6-0.4c0,0,0,0,0,0c-0.2-0.1-0.4-0.2-0.6-0.3c0,0-0.1,0-0.1,0
	c-0.2-0.1-0.4-0.1-0.7-0.2c0,0,0,0,0,0c-0.2,0-0.4-0.1-0.7-0.1c-0.1,0-0.1,0-0.2,0c-0.1,0-0.1,0-0.2,0H89.9c-2.9,0-5.3,2.4-5.3,5.3
	V65H47.9c-2.9,0-5.3,2.4-5.3,5.3v157.5c0,2.9,2.4,5.3,5.3,5.3h118.1c2.9,0,5.3-2.4,5.3-5.3V191h36.8c2.9,0,5.3-2.4,5.3-5.3V70.3
	C213.3,70.2,213.3,70.1,213.3,70.1z M171.3,40.9L195.4,65h-24.1V40.9z M53.2,222.5v-147h65.6v36.8c0,2.9,2.4,5.3,5.3,5.3h36.8v68.2
	c0,0,0,0,0,0c0,0,0,0,0,0v36.7H53.2z M129.3,82.9l24.1,24.1h-24.1V82.9z M171.3,180.5v-68.3c0-0.1,0-0.1,0-0.2c0-0.1,0-0.1,0-0.2
	c0-0.2,0-0.4-0.1-0.6c0,0,0,0,0,0c0-0.2-0.1-0.5-0.2-0.7c0,0,0-0.1,0-0.1c-0.1-0.2-0.2-0.4-0.3-0.6c0,0,0,0,0,0
	c-0.1-0.2-0.2-0.4-0.4-0.6c0,0-0.1-0.1-0.1-0.1c-0.1-0.2-0.3-0.4-0.5-0.5v0l-42-42l0,0c-0.2-0.2-0.3-0.3-0.5-0.5
	c0,0-0.1-0.1-0.1-0.1c-0.2-0.1-0.4-0.3-0.6-0.4c0,0,0,0,0,0c-0.2-0.1-0.4-0.2-0.6-0.3c0,0-0.1,0-0.1,0c-0.2-0.1-0.4-0.1-0.7-0.2
	c0,0,0,0,0,0c-0.2,0-0.4-0.1-0.7-0.1c-0.1,0-0.1,0-0.2,0c-0.1,0-0.1,0-0.2,0H95.2V33.5h65.6v36.8c0,2.9,2.4,5.3,5.3,5.3h36.8v105
	H171.3z"/>
</svg>
