<?xml version="1.0" encoding="utf-8"?>
<!-- Generator: Adobe Illustrator 21.0.0, SVG Export Plug-In . SVG Version: 6.00 Build 0)  -->
<svg version="1.1" id="Layer_1" xmlns="http://www.w3.org/2000/svg" xmlns:xlink="http://www.w3.org/1999/xlink" x="0px" y="0px"
	 viewBox="0 0 256 256" style="enable-background:new 0 0 256 256;" xml:space="preserve">
<style type="text/css">
	.st0{fill:#6FF34D;}
</style>
<path class="st0" d="M206.7,72.6c0-0.1,0-0.1,0-0.2c0-0.2,0-0.5-0.1-0.7c0,0,0,0,0,0c-0.1-0.2-0.1-0.5-0.2-0.7c0,0,0-0.1,0-0.1
	c-0.1-0.2-0.2-0.4-0.3-0.6c0,0,0,0,0-0.1c-0.1-0.2-0.2-0.4-0.4-0.6c0,0-0.1-0.1-0.1-0.1c-0.1-0.2-0.3-0.4-0.5-0.6v0l-44.2-44.2l0,0
	c-0.2-0.2-0.4-0.3-0.6-0.5c0,0-0.1-0.1-0.1-0.1c-0.2-0.1-0.4-0.3-0.6-0.4c0,0,0,0,0,0c-0.2-0.1-0.4-0.2-0.6-0.3c0,0-0.1,0-0.1,0
	c-0.2-0.1-0.5-0.2-0.7-0.2c0,0,0,0,0,0c-0.2,0-0.5-0.1-0.7-0.1c-0.1,0-0.1,0-0.2,0c-0.1,0-0.1,0-0.2,0H54.8c-3.1,0-5.5,2.5-5.5,5.5
	v198.9c0,3.1,2.5,5.5,5.5,5.5h146.4c3.1,0,5.5-2.5,5.5-5.5V72.7C206.8,72.7,206.7,72.6,206.7,72.6z M162.5,41.9l25.3,25.3h-25.3
	V41.9z M60.3,221.9V34.1h91.2v38.7c0,3.1,2.5,5.5,5.5,5.5h38.7v143.7H60.3z"/>
</svg>
