<?xml version="1.0" encoding="utf-8"?>
<!-- Generator: Adobe Illustrator 23.0.0, SVG Export Plug-In . SVG Version: 6.00 Build 0)  -->
<svg version="1.1" id="Layer_1" xmlns="http://www.w3.org/2000/svg" xmlns:xlink="http://www.w3.org/1999/xlink" x="0px" y="0px"
	 viewBox="0 0 256 256" style="enable-background:new 0 0 256 256;" xml:space="preserve">
<style type="text/css">
	.st0{fill:#6FF34D;}
</style>
<g>
	<path class="st0" d="M128,8.7C62.2,8.7,8.7,62.2,8.7,128S62.2,247.3,128,247.3S247.3,193.8,247.3,128S193.8,8.7,128,8.7z
		 M128,235.9c-59.5,0-107.9-48.4-107.9-107.9C20.1,68.5,68.5,20.1,128,20.1S235.9,68.5,235.9,128S187.5,235.9,128,235.9z"/>
</g>
<g>
	<path class="st0" d="M149.6,147.1c0.3-1.5-0.1-2.9-1.2-3.5l-44.2-25.1c-1.1-0.6-2.5-0.3-3.6,0.7c-0.9,0.8-1.5,2.1-1.6,3.3l-5.7,61
		c-0.1,1.3,0.4,2.4,1.3,2.9s2.1,0.4,3.2-0.3l50-35.8C148.5,149.5,149.3,148.3,149.6,147.1z M139.7,147.9l-39.5,28.3l4.5-48.1
		L139.7,147.9z"/>
	<path class="st0" d="M107.6,112.4l44.2,25.1c1.1,0.6,2.5,0.3,3.6-0.7c0.9-0.8,1.5-2.1,1.6-3.3l5.7-61c0.1-1.3-0.4-2.4-1.3-2.9
		c-0.9-0.5-2.1-0.4-3.2,0.3l-50,35.8c-1,0.7-1.7,1.9-2,3.1C106.1,110.4,106.5,111.8,107.6,112.4z M116.3,108.1l39.5-28.3l-4.5,48.1
		L116.3,108.1z"/>
</g>
</svg>
