<?xml version="1.0" encoding="utf-8"?>
<!-- Generator: Adobe Illustrator 21.0.0, SVG Export Plug-In . SVG Version: 6.00 Build 0)  -->
<svg version="1.1" id="Layer_1" xmlns="http://www.w3.org/2000/svg" xmlns:xlink="http://www.w3.org/1999/xlink" x="0px" y="0px"
	 viewBox="0 0 256 256" style="enable-background:new 0 0 256 256;" xml:space="preserve">
<style type="text/css">
	.st0{fill:#6FF34D;}
</style>
<g>
	<path class="st0" d="M143.9,177.1c-3.1,0-5.5,2.5-5.5,5.5v38.8H40.1V34.6h98.2v38.8c0,3.1,2.5,5.5,5.5,5.5c3.1,0,5.5-2.5,5.5-5.5
		V29c0-3.1-2.5-5.5-5.5-5.5H34.6c-3.1,0-5.5,2.5-5.5,5.5V227c0,3.1,2.5,5.5,5.5,5.5h109.3c3.1,0,5.5-2.5,5.5-5.5v-44.3
		C149.4,179.6,146.9,177.1,143.9,177.1z"/>
	<path class="st0" d="M225.2,124.1l-44.4-41.4c-2.2-2.1-5.7-2-7.8,0.3c-2.1,2.2-2,5.7,0.3,7.8l33.9,31.6H78.9
		c-3.1,0-5.5,2.5-5.5,5.5c0,3.1,2.5,5.5,5.5,5.5h128.6l-34,31.6c-2.2,2.1-2.4,5.6-0.3,7.8c1.1,1.2,2.6,1.8,4.1,1.8
		c1.3,0,2.7-0.5,3.8-1.5l44.1-41c1.1-1,1.8-2.5,1.8-4.1C226.9,126.6,226.3,125.2,225.2,124.1z"/>
</g>
</svg>
