<?xml version="1.0" encoding="utf-8"?>
<!-- Generator: Adobe Illustrator 21.0.0, SVG Export Plug-In . SVG Version: 6.00 Build 0)  -->
<svg version="1.1" id="Layer_1" xmlns="http://www.w3.org/2000/svg" xmlns:xlink="http://www.w3.org/1999/xlink" x="0px" y="0px"
	 viewBox="0 0 256 256" style="enable-background:new 0 0 256 256;" xml:space="preserve">
<style type="text/css">
	.st0{fill:#6FF34D;}
</style>
<g>
	<path class="st0" d="M128,90.2c-20.8,0-37.8,17-37.8,37.8c0,20.9,17,37.8,37.8,37.8s37.8-17,37.8-37.8
		C165.8,107.2,148.8,90.2,128,90.2z M128,155.6c-15.2,0-27.6-12.4-27.6-27.6c0-15.2,12.4-27.6,27.6-27.6c15.2,0,27.6,12.4,27.6,27.6
		C155.6,143.2,143.2,155.6,128,155.6z"/>
	<path class="st0" d="M208,87.5c-15.3-13-41.5-28.4-79-28.4c-0.7,0-1.4,0-2,0c-38.2,0.6-64.4,16.8-79.6,30.4
		c-16.5,14.7-26.7,32.3-26.6,40.1c0.1,7.7,10.6,24.8,27.2,38.9c15.3,13,41.5,28.4,79,28.4c0,0,0,0,0,0c0.7,0,1.3,0,2,0
		c38.2-0.6,64.4-16.8,79.6-30.4c16.6-14.7,26.7-32.3,26.5-40.1C235.1,118.7,224.7,101.6,208,87.5z M201.9,159
		c-13.9,12.4-37.9,27.2-73,27.7c-0.6,0-1.2,0-1.9,0c0,0,0,0,0,0c-34.4,0-58.3-14.1-72.4-26C38.4,147,31.1,132.6,31,129.4
		c0-3.2,7.1-18.1,23.2-32.4c13.9-12.4,37.9-27.2,73-27.7c0.6,0,1.3,0,1.9,0c34.4,0,58.3,14.1,72.3,26c16.2,13.7,23.6,28.1,23.6,31.3
		C225,129.8,218,144.7,201.9,159z"/>
</g>
</svg>
