<?xml version="1.0" encoding="utf-8"?>
<!-- Generator: Adobe Illustrator 21.0.0, SVG Export Plug-In . SVG Version: 6.00 Build 0)  -->
<svg version="1.1" id="Layer_1" xmlns="http://www.w3.org/2000/svg" xmlns:xlink="http://www.w3.org/1999/xlink" x="0px" y="0px"
	 viewBox="0 0 256 256" style="enable-background:new 0 0 256 256;" xml:space="preserve">
<style type="text/css">
	.st0{fill:#6FF34D;}
</style>
<g>
	<g>
		<path class="st0" d="M128,90.2c-20.8,0-37.8,17-37.8,37.8c0,20.9,17,37.8,37.8,37.8s37.8-17,37.8-37.8
			C165.8,107.2,148.8,90.2,128,90.2z M128,155.6c-15.2,0-27.6-12.4-27.6-27.6c0-15.2,12.4-27.6,27.6-27.6
			c15.2,0,27.6,12.4,27.6,27.6C155.6,143.2,143.2,155.6,128,155.6z"/>
		<path class="st0" d="M208,87.5c-15.3-13-41.5-28.4-79-28.4c-0.7,0-1.4,0-2,0c-38.2,0.6-64.4,16.8-79.6,30.4
			c-16.5,14.7-26.7,32.3-26.6,40.1c0.1,7.7,10.6,24.8,27.2,38.9c15.3,13,41.5,28.4,79,28.4c0,0,0,0,0,0c0.7,0,1.3,0,2,0
			c7.9-0.1,15.3-0.9,22.2-2.2c-1.3-2.7-2-5.6-2.2-8.7c0-0.4,0-0.9,0-1.3c-6.3,1.2-13,1.9-20.1,2c-0.6,0-1.2,0-1.9,0c0,0,0,0,0,0
			c-34.4,0-58.3-14.1-72.4-26C38.4,147,31.1,132.6,31,129.4c0-3.2,7.1-18.1,23.2-32.4c13.9-12.4,37.9-27.2,73-27.7
			c0.6,0,1.3,0,1.9,0c34.4,0,58.3,14.1,72.3,26c16.2,13.7,23.6,28.1,23.6,31.3c0,3.2-7,18.1-23.2,32.4c-0.7,0.6-1.4,1.2-2.1,1.8
			c2.7,2.1,4.8,4.9,6.3,8.1c0.9-0.8,1.8-1.5,2.6-2.3c16.6-14.7,26.7-32.3,26.5-40.1C235.1,118.7,224.7,101.6,208,87.5z"/>
	</g>
	<g>
		<path class="st0" d="M227.6,214.7l-17.2-17.2c5.8-12.8,3-27.9-6.9-37.9c-6.4-6.4-14.9-9.9-24-9.9c-9.1,0-17.6,3.5-24,9.9
			c-6.4,6.4-9.9,14.9-9.9,24c0,9.1,3.5,17.6,9.9,24c6.4,6.4,14.9,9.9,24,9.9c4.9,0,9.6-1,13.9-3l17.2,17.2c2.2,2.2,5.2,3.4,8.3,3.4
			c3.2,0,6.1-1.2,8.3-3.4l0.3-0.3c2.2-2.2,3.4-5.2,3.4-8.3S229.8,216.9,227.6,214.7z M198.8,202.9c-5.2,5.2-12,8-19.3,8
			c-7.3,0-14.2-2.8-19.3-8c-5.2-5.2-8-12-8-19.3c0-7.3,2.8-14.2,8-19.3c5.2-5.2,12-8,19.3-8c7.3,0,14.2,2.8,19.3,8
			C209.5,174.9,209.5,192.3,198.8,202.9z M203.5,207.5c1.3-1.3,2.5-2.7,3.6-4.2l15.9,15.9c1,1,1.5,2.3,1.5,3.7
			c0,1.4-0.5,2.7-1.5,3.7l-0.3,0.3c-1,1-2.3,1.5-3.7,1.5s-2.7-0.5-3.7-1.5l-15.9-15.9C200.8,210,202.2,208.8,203.5,207.5z"/>
		<path class="st0" d="M194.6,180.3h-11.8v-11.8c0-1.8-1.5-3.3-3.3-3.3s-3.3,1.5-3.3,3.3v11.8h-11.8c-1.8,0-3.3,1.5-3.3,3.3
			s1.5,3.3,3.3,3.3h11.8v11.8c0,1.8,1.5,3.3,3.3,3.3s3.3-1.5,3.3-3.3v-11.8h11.8c1.8,0,3.3-1.5,3.3-3.3S196.4,180.3,194.6,180.3z"/>
	</g>
</g>
</svg>
