<?xml version="1.0" encoding="utf-8"?>
<!-- Generator: Adobe Illustrator 21.0.0, SVG Export Plug-In . SVG Version: 6.00 Build 0)  -->
<svg version="1.1" id="Layer_1" xmlns="http://www.w3.org/2000/svg" xmlns:xlink="http://www.w3.org/1999/xlink" x="0px" y="0px"
	 viewBox="0 0 256 256" style="enable-background:new 0 0 256 256;" xml:space="preserve">
<style type="text/css">
	.st0{fill:#6FF34D;}
</style>
<path class="st0" d="M237.7,149.3l-35.8-75c-0.9-1.9-2.9-3.1-5-3.1H134V32.5c0-3-2.5-5.5-5.5-5.5c-3,0-5.5,2.5-5.5,5.5v38.6H59.1
	c-2.1,0-4.1,1.2-5,3.1l-35.8,75c-0.4,0.7-0.6,1.6-0.6,2.5l0,0v0l0,0c0,0,0,0,0,0v71.7c0,3,2.5,5.5,5.5,5.5h209.6
	c3,0,5.5-2.5,5.5-5.5v-71.7c0,0,0,0,0,0v0v0l0,0C238.3,150.9,238.1,150.1,237.7,149.3z M62.5,82.2H123v48.6l-27.5-28.1
	c-2.1-2.2-5.6-2.2-7.8-0.1c-2.2,2.1-2.2,5.6-0.1,7.8l36.9,37.6c1,1.1,2.5,1.7,3.9,1.7c1.5,0,2.9-0.6,3.9-1.7l37.1-37.8
	c2.1-2.2,2.1-5.7-0.1-7.8c-2.2-2.1-5.7-2.1-7.8,0.1L134,130.5V82.2h59.5l30.6,64.1h-54.7c-2.1,0-4,1.2-4.9,3l-12.3,24.5h-48.3
	l-12.3-24.5c-0.9-1.9-2.8-3-4.9-3H32L62.5,82.2z M227.3,218H28.7v-60.7h54.5l12.3,24.5c0.9,1.9,2.8,3,4.9,3h55.2c2.1,0,4-1.2,4.9-3
	l12.3-24.5h54.5V218z"/>
</svg>
