<?xml version="1.0" encoding="utf-8"?>
<!-- Generator: Adobe Illustrator 23.0.3, SVG Export Plug-In . SVG Version: 6.00 Build 0)  -->
<svg version="1.1" id="Layer_1" xmlns="http://www.w3.org/2000/svg" xmlns:xlink="http://www.w3.org/1999/xlink" x="0px" y="0px"
	 viewBox="0 0 512 512" style="enable-background:new 0 0 512 512;" xml:space="preserve">
<style type="text/css">
	.st0{fill:#6FF34D;}
</style>
<g>
	<g>
		<path class="st0" d="M194.2,96.7h124.5c-1.1-3.5-1.8-7.3-1.9-11.1c-0.2-3.8,0.3-7.4,1.3-10.9H193.3c1.2,3.7,1.9,7.6,2.1,11.6
			C195.5,89.9,195.1,93.4,194.2,96.7z"/>
		<path class="st0" d="M184.9,212.4l150.9-93c-7.4-4.8-13.1-12-16.3-20.4l-160.9,99.1C169.4,199.3,178.5,204.6,184.9,212.4z"/>
		<path class="st0" d="M318.2,249c-1.2-3.7-2-7.7-2.1-11.8c-0.2-3.5,0.3-7,1.1-10.2H192.7c1.1,3.5,1.7,7.2,1.9,11
			c0.2,3.8-0.3,7.5-1.3,11H318.2z"/>
		<path class="st0" d="M331.7,393.5L178.3,269.9c-6.9,5.1-15.2,8.1-23.7,8.1c-3.2,0-6.3-0.4-9.3-1.1v110.4c3.5-1.1,7.2-1.6,10.8-1.6
			c3.9,0,7.7,0.6,11.2,1.6V292l150.3,121.1C320.1,405.3,325.2,398.5,331.7,393.5z"/>
		<path class="st0" d="M356.1,384.9c3.6,0,7,0.5,10.2,1.3V275.8c-3.3,0.9-6.8,1.5-10.2,1.5c-3.7,0-7.2-0.5-10.6-1.4v110.6
			C348.9,385.4,352.5,384.9,356.1,384.9z"/>
	</g>
	<path class="st0" d="M357,121.7c19.9,0,36-16.1,36-36s-16.1-36-36-36s-36,16.1-36,36S337.1,121.7,357,121.7z M344.1,86.2l9.3,7.7
		l15.4-24.4l4.5,2.8l-18.6,29.6l-14-11.6L344.1,86.2z"/>
	<path class="st0" d="M155,274c19.9,0,36-16.1,36-36s-16.1-36-36-36s-36,16.1-36,36S135.1,274,155,274z M143.4,238.5l9.3,7.7
		l15.4-24.4l4.5,2.8L154,254.2l-14-11.6L143.4,238.5z"/>
	<path class="st0" d="M155.3,121.7c19.9,0,36-16.1,36-36s-16.1-36-36-36s-36,16.1-36,36S135.4,121.7,155.3,121.7z M142.8,77l3.4-3.4
		l8.6,8.6l8.6-8.6l3.4,3.4l-8.6,8.6l8.6,8.6l-3.4,3.4l-8.6-8.6l-8.6,8.6l-3.4-3.4l8.6-8.6L142.8,77z"/>
	<path class="st0" d="M356.5,273c19.9,0,36-16.1,36-36s-16.1-36-36-36s-36,16.1-36,36S336.7,273,356.5,273z M344.6,228.4l3.4-3.4
		l8.6,8.6l8.6-8.6l3.4,3.4L360,237l8.6,8.6l-3.4,3.4l-8.6-8.6L348,249l-3.4-3.4l8.6-8.6L344.6,228.4z"/>
	<path class="st0" d="M156.3,390.3c-19.9,0-36,16.1-36,36s16.1,36,36,36s36-16.1,36-36S176.2,390.3,156.3,390.3z M167.9,435.8
		l-3.4,3.4l-8.6-8.6l-8.6,8.6l-3.4-3.4l8.6-8.6l-8.6-8.6l3.4-3.4l8.6,8.6l8.6-8.6l3.4,3.4l-8.6,8.6L167.9,435.8z"/>
	<path class="st0" d="M356.7,389.3c-19.9,0-36,16.1-36,36s16.1,36,36,36s36-16.1,36-36S376.5,389.3,356.7,389.3z M354.4,444.4
		l-14.1-11.6l3.4-4.1l9.4,7.7l15.4-24.4l4.5,2.8L354.4,444.4z"/>
</g>
</svg>
