<?xml version="1.0" encoding="utf-8"?>
<!-- Generator: Adobe Illustrator 21.0.0, SVG Export Plug-In . SVG Version: 6.00 Build 0)  -->
<svg version="1.1" id="Layer_1" xmlns="http://www.w3.org/2000/svg" xmlns:xlink="http://www.w3.org/1999/xlink" x="0px" y="0px"
	 viewBox="0 0 512 512" style="enable-background:new 0 0 512 512;" xml:space="preserve">
<style type="text/css">
	.st0{fill:#6FF34D;}
</style>
<g>
	<path class="st0" d="M460.8,188.9H51.2c-7.8,0-14.1-6.3-14.1-14.1v-28.6c0-7.8,6.3-14.1,14.1-14.1h409.6c7.8,0,14.1,6.3,14.1,14.1
		v28.6C474.9,182.5,468.6,188.9,460.8,188.9z"/>
	<path class="st0" d="M403.3,284.4H51.9c-7.8,0-14.1-6.3-14.1-14.1v-28.6c0-7.8,6.3-14.1,14.1-14.1h351.4c7.8,0,14.1,6.3,14.1,14.1
		v28.6C417.4,278.1,411.1,284.4,403.3,284.4z"/>
	<path class="st0" d="M337.5,380H51.9c-7.8,0-14.1-6.3-14.1-14.1v-28.6c0-7.8,6.3-14.1,14.1-14.1h285.6c7.8,0,14.1,6.3,14.1,14.1
		v28.6C351.6,373.7,345.2,380,337.5,380z"/>
</g>
</svg>
