<?xml version="1.0" encoding="utf-8"?>
<!-- Generator: Adobe Illustrator 21.0.0, SVG Export Plug-In . SVG Version: 6.00 Build 0)  -->
<svg version="1.1" id="Layer_1" xmlns="http://www.w3.org/2000/svg" xmlns:xlink="http://www.w3.org/1999/xlink" x="0px" y="0px"
	 viewBox="0 0 256 240" style="enable-background:new 0 0 256 240;" xml:space="preserve">
<style type="text/css">
	.st0{fill:#6FF34D;}
</style>
<g>
	<path class="st0" d="M123.7,151.4c1,1,2.4,1.6,3.8,1.6c1.4,0,2.8-0.6,3.8-1.6l48.3-49.9c2.1-2.1,2-5.5-0.1-7.6
		c-2.1-2.1-5.5-2-7.6,0.1l-38.9,40.2V19.5c0-2.9-2.4-5.3-5.3-5.3s-5.3,2.4-5.3,5.3v115.2L83.6,94.5c-2.1-2.1-5.4-2.2-7.6-0.1
		c-2.1,2-2.2,5.4-0.1,7.6L123.7,151.4z"/>
	<path class="st0" d="M210,163.4H46c-10.7,0-19.5,8.7-19.5,19.5v25.1c0,10.7,8.7,19.5,19.5,19.5h164c10.7,0,19.5-8.7,19.5-19.5
		v-25.1C229.5,172.1,220.7,163.4,210,163.4z M218.8,207.9c0,4.8-3.9,8.8-8.8,8.8H46c-4.8,0-8.8-3.9-8.8-8.8v-25.1
		c0-4.9,3.9-8.8,8.8-8.8h164c4.8,0,8.8,3.9,8.8,8.8V207.9z"/>
	<path class="st0" d="M192.1,187.4c-4.4,0-8,3.6-8,8c0,4.4,3.6,8,8,8c4.4,0,8-3.6,8-8C200.1,191,196.5,187.4,192.1,187.4z"/>
</g>
</svg>
