<?xml version="1.0" encoding="utf-8"?>
<!-- Generator: Adobe Illustrator 23.0.0, SVG Export Plug-In . SVG Version: 6.00 Build 0)  -->
<svg version="1.1" id="Layer_1" xmlns="http://www.w3.org/2000/svg" xmlns:xlink="http://www.w3.org/1999/xlink" x="0px" y="0px"
	 viewBox="0 0 256 256" style="enable-background:new 0 0 256 256;" xml:space="preserve">
<style type="text/css">
	.st0{fill:#64F34D;}
</style>
<path class="st0" d="M242.3,45.3c-1.4-1.1-3.2-1.4-5-1L40,98.7l-21.2-6.2c-1.7-0.5-3.6-0.2-5,0.9c-1.4,1.1-2.3,2.8-2.3,4.5v58.4
	c0,1.8,0.9,3.5,2.3,4.6c1.5,1.1,3.3,1.4,5.1,0.8l21.1-6.6l32.6,9.3c0,0.1,0,0.1,0,0.2c0.3,12.6,5.5,24.5,14.6,33.3
	c9.1,8.9,21.1,13.8,33.7,13.8c16.5,0,31.5-8.3,40.4-21.9l75.9,21.7c0.5,0.1,1,0.2,1.6,0.2c1.2,0,2.4-0.4,3.4-1.1
	c1.4-1.1,2.3-2.8,2.3-4.5V49.9C244.5,48.1,243.7,46.4,242.3,45.3z M45.6,145v-36l164.8-45.4v128.5L45.6,145z M22.9,105.6l11.4,3.3
	v36.2l-11.4,3.6V105.6z M120.9,200.5c-18.7,0-34.5-14.3-36.7-32.6l65.5,18.7C142.8,195.3,132.3,200.5,120.9,200.5z M233.1,198.6
	l-11.4-3.2V60.5l11.4-3.1V198.6z"/>
</svg>
