<?xml version="1.0" encoding="utf-8"?>
<!-- Generator: Adobe Illustrator 21.0.0, SVG Export Plug-In . SVG Version: 6.00 Build 0)  -->
<svg version="1.1" id="Layer_1" xmlns="http://www.w3.org/2000/svg" xmlns:xlink="http://www.w3.org/1999/xlink" x="0px" y="0px"
	 viewBox="0 0 368 224" style="enable-background:new 0 0 368 224;" xml:space="preserve">
<style type="text/css">
	.st0{fill:#6FF34D;}
</style>
<g>
	<path class="st0" d="M53.9,160.6c26.8,26.4,70.1,26.2,96.6-0.7c3.8-3.9,7.2-8.2,10-12.9l138.9-1.1l35.1-35.6l-38.5-38L276.6,92
		L257,72.7l-19.3,19.6l-19.6-19.3l-19.3,19.6L182,75.8L159.9,76c-2.8-4.6-6.2-8.8-10.1-12.6C123,36.9,79.7,37.2,53.2,64
		C26.8,90.8,27.1,134.2,53.9,160.6z M140.7,72.6c3.9,3.8,7.2,8.2,9.8,13l1.8,3.4l24.4-0.2l22.3,22l19.3-19.6l19.6,19.3l19.3-19.6
		l19.6,19.3L296,90.7l20.1,19.9l-22.3,22.6l-141.2,1.1l-1.8,3.4c-2.5,4.9-5.8,9.3-9.7,13.2c-21.4,21.7-56.6,22-78.3,0.5
		s-22-56.6-0.5-78.3C83.9,51.4,119,51.1,140.7,72.6z"/>
	<ellipse transform="matrix(0.7023 -0.7119 0.7119 0.7023 -54.1956 94.4026)" class="st0" cx="85.8" cy="112" rx="12.9" ry="12.9"/>
</g>
</svg>
