<?xml version="1.0" encoding="utf-8"?>
<!-- Generator: Adobe Illustrator 21.0.0, SVG Export Plug-In . SVG Version: 6.00 Build 0)  -->
<svg version="1.1" id="Layer_1" xmlns="http://www.w3.org/2000/svg" xmlns:xlink="http://www.w3.org/1999/xlink" x="0px" y="0px"
	 viewBox="0 0 325 368" style="enable-background:new 0 0 325 368;" xml:space="preserve">
<style type="text/css">
	.st0{fill:#6FF34D;}
</style>
<g>
	<path class="st0" d="M262.8,158.4h-18.2v-32.7c0-45.3-36.8-82.1-82.1-82.1c-45.3,0-82.1,36.8-82.1,82.1v32.7H62.2
		c-4.3,0-7.8,3.5-7.8,7.8v150.4c0,4.3,3.5,7.8,7.8,7.8h200.5c4.3,0,7.8-3.5,7.8-7.8V166.2C270.6,161.9,267.1,158.4,262.8,158.4z
		 M96,125.7c0-36.7,29.8-66.5,66.5-66.5c36.7,0,66.5,29.8,66.5,66.5v32.7H96V125.7z M255,308.8H70V173.9h185V308.8z"/>
	<path class="st0" d="M154.7,229.9V279c0,4.3,3.5,7.8,7.8,7.8c4.3,0,7.8-3.5,7.8-7.8v-49.1c4.6-2.7,7.8-7.7,7.8-13.5
		c0-8.6-7-15.6-15.6-15.6c-8.6,0-15.6,7-15.6,15.6C146.9,222.2,150.1,227.2,154.7,229.9z"/>
</g>
</svg>
