<?xml version="1.0" encoding="utf-8"?>
<!-- Generator: Adobe Illustrator 21.0.0, SVG Export Plug-In . SVG Version: 6.00 Build 0)  -->
<svg version="1.1" id="Layer_1" xmlns="http://www.w3.org/2000/svg" xmlns:xlink="http://www.w3.org/1999/xlink" x="0px" y="0px"
	 viewBox="0 0 325 368" style="enable-background:new 0 0 325 368;" xml:space="preserve">
<style type="text/css">
	.st0{fill:#6FF34D;}
</style>
<g>
	<path class="st0" d="M262.8,167.2h-18.2V117c0-45.3-36.8-82.1-82.1-82.1c-45.3,0-82.1,36.8-82.1,82.1c0,4.3,3.5,7.8,7.8,7.8
		c4.3,0,7.8-3.5,7.8-7.8c0-36.7,29.8-66.5,66.5-66.5c36.7,0,66.5,29.8,66.5,66.5v50.2H62.2c-4.3,0-7.8,3.5-7.8,7.8v150.4
		c0,4.3,3.5,7.8,7.8,7.8h200.5c4.3,0,7.8-3.5,7.8-7.8V174.9C270.6,170.6,267.1,167.2,262.8,167.2z M255,317.6H70V182.7h185V317.6z"
		/>
	<path class="st0" d="M154.7,238.6v49.1c0,4.3,3.5,7.8,7.8,7.8c4.3,0,7.8-3.5,7.8-7.8v-49.1c4.6-2.7,7.8-7.7,7.8-13.5
		c0-8.6-7-15.6-15.6-15.6c-8.6,0-15.6,7-15.6,15.6C146.9,230.9,150.1,235.9,154.7,238.6z"/>
</g>
</svg>
