<?xml version="1.0" encoding="utf-8"?>
<!-- Generator: Adobe Illustrator 21.0.0, SVG Export Plug-In . SVG Version: 6.00 Build 0)  -->
<svg version="1.1" id="Layer_1" xmlns="http://www.w3.org/2000/svg" xmlns:xlink="http://www.w3.org/1999/xlink" x="0px" y="0px"
	 viewBox="0 0 128 128" style="enable-background:new 0 0 128 128;" xml:space="preserve">
<style type="text/css">
	.st0{fill:#6FF34D;}
</style>
<g>
	<path class="st0" d="M121.7,62.2L97.3,30.2c-1.1-1.4-3.1-1.7-4.5-0.6c-1.4,1.1-1.7,3.1-0.6,4.5l22.9,30L92.5,93.8
		c-1.1,1.4-0.8,3.4,0.6,4.5c0.6,0.4,1.3,0.7,1.9,0.7c1,0,1.9-0.4,2.5-1.2L121.7,66C122.6,64.9,122.6,63.3,121.7,62.2z"/>
	<path class="st0" d="M12.8,63.9l22.7-29.8c1.1-1.4,0.8-3.4-0.6-4.5c-1.4-1.1-3.4-0.8-4.5,0.6L6.3,62c-0.9,1.1-0.9,2.7,0,3.9
		l24.4,31.9c0.6,0.8,1.6,1.3,2.5,1.3c0.7,0,1.4-0.2,1.9-0.7c1.4-1.1,1.7-3.1,0.6-4.5L12.8,63.9z"/>
	<circle class="st0" cx="41.7" cy="64.1" r="4.8"/>
	<circle class="st0" cx="64" cy="64.1" r="4.8"/>
	<circle class="st0" cx="86.3" cy="64.1" r="4.8"/>
</g>
</svg>
