<?xml version="1.0" encoding="utf-8"?>
<!-- Generator: Adobe Illustrator 23.0.3, SVG Export Plug-In . SVG Version: 6.00 Build 0)  -->
<svg version="1.1" id="Layer_1" xmlns="http://www.w3.org/2000/svg" xmlns:xlink="http://www.w3.org/1999/xlink" x="0px" y="0px"
	 viewBox="0 0 512 512" style="enable-background:new 0 0 512 512;" xml:space="preserve">
<style type="text/css">
	.st0{fill:#6FF34D;}
	.st1{fill:#FFFFFF;}
</style>
<g>
	<g>
		<path class="st0" d="M416.36,394.38H95.64c-18.88,0-34.25-15.36-34.25-34.25v-13.18c0-18.88,15.36-34.25,34.25-34.25h21.54v26.14
			H95.64c-4.47,0-8.1,3.64-8.1,8.1v13.18c0,4.47,3.64,8.11,8.1,8.11h320.72c4.47,0,8.11-3.64,8.11-8.11v-13.18
			c0-4.47-3.64-8.1-8.11-8.1h-21.54v-26.14h21.54c18.88,0,34.25,15.36,34.25,34.25v13.18C450.61,379.02,435.25,394.38,416.36,394.38
			z"/>
	</g>
</g>
<path class="st0" d="M375.6,339.73H136.4V125.35c0-4.27,3.46-7.73,7.73-7.73h223.73c4.27,0,7.73,3.46,7.73,7.73V339.73z"/>
<polygon class="st1" points="318.02,178.84 300.34,161.16 256,205.51 211.66,161.16 193.98,178.84 238.32,223.18 193.98,267.53 
	211.66,285.21 256,240.86 300.34,285.21 318.02,267.53 273.68,223.18 "/>
</svg>
