<?xml version="1.0" encoding="utf-8"?>
<!-- Generator: Adobe Illustrator 23.0.0, SVG Export Plug-In . SVG Version: 6.00 Build 0)  -->
<svg version="1.1" id="Layer_1" xmlns="http://www.w3.org/2000/svg" xmlns:xlink="http://www.w3.org/1999/xlink" x="0px" y="0px"
	 viewBox="0 0 256 256" style="enable-background:new 0 0 256 256;" xml:space="preserve">
<style type="text/css">
	.st0{fill:#6FF34D;}
</style>
<path class="st0" d="M243.7,115.3l-102.1-81c-1.7-1.3-4-1.6-5.9-0.7c-1.9,0.9-3.1,2.9-3.1,5v40.2h-0.6c-3.8,0-37.4,0.7-68.5,21.9
	c-15.7,10.7-28.1,24.8-36.9,42.1c-10.6,20.6-16,45.6-16.2,74.4c0,2.8,2,5.1,4.7,5.6c0.3,0,0.7,0.1,0.9,0.1c2.3,0,4.5-1.4,5.2-3.8
	c1.1-3.1,9.1-19.1,27-34.5c22.6-19.4,51-30,84.4-31.8v48c0,2.1,1.2,4.1,3.1,5c1.9,0.9,4.2,0.7,5.9-0.7l102.1-81
	c1.3-1,2.1-2.7,2.1-4.3C245.7,118,244.9,116.4,243.7,115.3z M143.6,189.2v-42.3c0-1.4-0.6-2.9-1.7-4c-1.1-1-2.6-1.7-4-1.6
	c-48.1,1.1-79.3,19.5-97.1,34.7c-7.6,6.6-13.6,13.1-18.2,19.1C34.8,91.3,127.7,89.9,131.9,89.9h6.1c3.1,0,5.6-2.4,5.6-5.6V50.2
	l87.6,69.4L143.6,189.2z"/>
</svg>
