<?xml version="1.0" encoding="utf-8"?>
<!-- Generator: Adobe Illustrator 21.0.0, SVG Export Plug-In . SVG Version: 6.00 Build 0)  -->
<svg version="1.1" id="Layer_1" xmlns="http://www.w3.org/2000/svg" xmlns:xlink="http://www.w3.org/1999/xlink" x="0px" y="0px"
	 viewBox="0 0 512 512" style="enable-background:new 0 0 512 512;" xml:space="preserve">
<style type="text/css">
	.st0{fill:#6FF34D;}
</style>
<g>
	<path class="st0" d="M456.4,78.1L259.6,12.7c-2.3-0.8-4.8-0.8-7.1,0L55.7,78.1c-4.6,1.5-7.7,5.8-7.7,10.7V249
		c0,60.2,26.6,119.8,74.8,167.9c18.6,18.5,45,39,72.4,56.1c16.1,10.1,45.5,26.9,60.8,26.9c15.4,0,44.7-16.9,60.9-26.9
		c27.4-17.1,53.8-37.5,72.4-56.1c48.2-48.1,74.8-107.7,74.8-167.9V88.7C464.1,83.9,460.9,79.6,456.4,78.1z M441.6,249
		c0,54.2-24.2,108.1-68.2,152C333,441.2,269.1,477.4,256,477.4c-13,0-76.9-36.2-117.4-76.4c-44-43.8-68.2-97.8-68.2-152V96.8
		L256,35.2l185.6,61.6V249z"/>
	<path class="st0" d="M151.5,141.9v95.4c0,6.2,5,11.2,11.2,11.2h175.6v59l-82.2,56.8l-87-60.1c-5.1-3.5-12.1-2.3-15.7,2.9
		c-3.5,5.1-2.3,12.1,2.9,15.6l93.4,64.6c1.9,1.3,4.2,2,6.4,2c2.2,0,4.5-0.7,6.4-2l93.4-64.6c3-2.1,4.8-5.6,4.8-9.2v-76.2
		c0-6.2-5-11.2-11.2-11.2H174v-72.9h175.6c6.2,0,11.2-5,11.2-11.2c0-6.2-5-11.2-11.2-11.2H162.7
		C156.5,130.7,151.5,135.7,151.5,141.9z"/>
</g>
</svg>
