<?xml version="1.0" encoding="utf-8"?>
<!-- Generator: Adobe Illustrator 21.0.0, SVG Export Plug-In . SVG Version: 6.00 Build 0)  -->
<svg version="1.1" id="Layer_1" xmlns="http://www.w3.org/2000/svg" xmlns:xlink="http://www.w3.org/1999/xlink" x="0px" y="0px"
	 viewBox="0 0 512 512" style="enable-background:new 0 0 512 512;" xml:space="preserve">
<style type="text/css">
	.st0{fill:#6FF34D;}
</style>
<g>
	<g>
		<g>
			<path class="st0" d="M453.5,6.5h-395c-28.7,0-51.9,23.3-52,52v395c0,28.7,23.3,51.9,52,52h395c28.7,0,51.9-23.3,52-52v-395
				C505.4,29.8,482.2,6.6,453.5,6.5z M484.7,453.5c0,17.2-14,31.2-31.2,31.2h-395c-17.2,0-31.2-14-31.2-31.2v-395
				c0-17.2,14-31.2,31.2-31.2h395c17.2,0,31.2,14,31.2,31.2L484.7,453.5L484.7,453.5z"/>
		</g>
	</g>
	<g>
		<g>
			<path class="st0" d="M172.8,89.7H89.7c-5.7,0-10.4,4.7-10.4,10.4v83.2c0,5.7,4.7,10.4,10.4,10.4h83.2c5.7,0,10.4-4.7,10.4-10.4
				v-83.2C183.2,94.4,178.6,89.7,172.8,89.7z M162.5,172.8h-62.4v-62.4h62.4V172.8z"/>
		</g>
	</g>
	<g>
		<g>
			<path class="st0" d="M172.8,318.4H89.7c-5.7,0-10.4,4.7-10.4,10.4v83.2c0,5.7,4.7,10.4,10.4,10.4h83.2c5.7,0,10.4-4.7,10.4-10.4
				v-83.2C183.2,323,178.6,318.4,172.8,318.4z M162.5,401.5h-62.4v-62.4h62.4V401.5z"/>
		</g>
	</g>
	<g>
		<g>
			<path class="st0" d="M422.3,89.7h-83.2c-5.7,0-10.4,4.7-10.4,10.4v83.2c0,5.7,4.7,10.4,10.4,10.4h83.2c5.7,0,10.4-4.7,10.4-10.4
				v-83.2C432.7,94.4,428,89.7,422.3,89.7z M411.9,172.8h-62.4v-62.4h62.4V172.8z"/>
		</g>
	</g>
	<g>
		<g>
			<rect x="120.9" y="131.3" class="st0" width="20.8" height="20.8"/>
		</g>
	</g>
	<g>
		<g>
			<rect x="120.9" y="359.9" class="st0" width="20.8" height="20.8"/>
		</g>
	</g>
	<g>
		<g>
			<rect x="370.3" y="131.3" class="st0" width="20.8" height="20.8"/>
		</g>
	</g>
	<g>
		<g>
			<path class="st0" d="M432.7,349.5H308v20.8h114.3v31.2h-72.8v20.8h83.2c5.7,0,10.4-4.7,10.4-10.4v-52
				C443.1,354.2,438.4,349.5,432.7,349.5z"/>
		</g>
	</g>
	<g>
		<g>
			<rect x="266.4" y="349.5" class="st0" width="20.8" height="72.8"/>
		</g>
	</g>
	<g>
		<g>
			<rect x="308" y="401.5" class="st0" width="20.8" height="20.8"/>
		</g>
	</g>
	<g>
		<g>
			<path class="st0" d="M297.6,89.7H256c-5.7,0-10.4,4.7-10.4,10.4v41.6h-20.8v-52H204v62.4c0,5.7,4.7,10.4,10.4,10.4H256
				c5.7,0,10.4-4.7,10.4-10.4v-41.6h20.8v52H308v-62.4C308,94.4,303.3,89.7,297.6,89.7z"/>
		</g>
	</g>
	<g>
		<g>
			<path class="st0" d="M308,256v-62.4h-20.8v72.8c0,5.7,4.7,10.4,10.4,10.4h135.1V256H308z"/>
		</g>
	</g>
	<g>
		<g>
			<path class="st0" d="M204,193.6v20.8h-31.2v20.8h41.6c5.7,0,10.4-4.7,10.4-10.4v-31.2L204,193.6L204,193.6z"/>
		</g>
	</g>
	<g>
		<g>
			<rect x="79.3" y="214.4" class="st0" width="31.2" height="20.8"/>
		</g>
	</g>
	<g>
		<g>
			<rect x="131.3" y="214.4" class="st0" width="20.8" height="20.8"/>
		</g>
	</g>
	<g>
		<g>
			<rect x="411.9" y="214.4" class="st0" width="20.8" height="20.8"/>
		</g>
	</g>
	<g>
		<g>
			<rect x="328.8" y="214.4" class="st0" width="62.4" height="20.8"/>
		</g>
	</g>
	<g>
		<g>
			<path class="st0" d="M224.8,308c-5.7,0-10.4,4.7-10.4,10.4v103.9h20.8v-93.5h207.9V308L224.8,308L224.8,308z"/>
		</g>
	</g>
	<g>
		<g>
			<rect x="245.6" y="193.6" class="st0" width="20.8" height="52"/>
		</g>
	</g>
	<g>
		<g>
			<path class="st0" d="M193.6,256H79.3v20.8h103.9v20.8H204v-31.2C204,260.7,199.4,256,193.6,256z"/>
		</g>
	</g>
	<g>
		<g>
			<rect x="245.6" y="266.4" class="st0" width="20.8" height="20.8"/>
		</g>
	</g>
</g>
</svg>
