<?xml version="1.0" encoding="utf-8"?>
<!-- Generator: Adobe Illustrator 21.0.0, SVG Export Plug-In . SVG Version: 6.00 Build 0)  -->
<svg version="1.1" id="Layer_1" xmlns="http://www.w3.org/2000/svg" xmlns:xlink="http://www.w3.org/1999/xlink" x="0px" y="0px"
	 viewBox="0 0 180 180" style="enable-background:new 0 0 180 180;" xml:space="preserve">
<style type="text/css">
	.st0{fill:#6FF34D;}
</style>
<path class="st0" d="M96.5,90l54.2-54.2c1.8-1.8,1.8-4.7,0-6.5c-1.8-1.8-4.7-1.8-6.5,0L90,83.5L35.8,29.3c-1.8-1.8-4.7-1.8-6.5,0
	c-1.8,1.8-1.8,4.7,0,6.5L83.5,90l-54.2,54.2c-1.8,1.8-1.8,4.7,0,6.5c0.9,0.9,2.1,1.3,3.2,1.3s2.4-0.5,3.2-1.3l54.2-54.2l54.2,54.2
	c0.9,0.9,2.1,1.3,3.2,1.3s2.4-0.5,3.2-1.3c1.8-1.8,1.8-4.7,0-6.5L96.5,90z"/>
</svg>
