<?xml version="1.0" encoding="utf-8"?>
<!-- Generator: Adobe Illustrator 21.0.0, SVG Export Plug-In . SVG Version: 6.00 Build 0)  -->
<svg version="1.1" id="Layer_1" xmlns="http://www.w3.org/2000/svg" xmlns:xlink="http://www.w3.org/1999/xlink" x="0px" y="0px"
	 viewBox="0 0 512 512" style="enable-background:new 0 0 512 512;" xml:space="preserve">
<style type="text/css">
	.st0{fill:#6FF34D;}
</style>
<g>
	<g>
		<path class="st0" d="M301.7,360.1c30.3,0,114,2.2,123.9-0.6c18.1-5.1,20.2-26.9,20.2-42.6c0.1-20.5,0.1-103.5,0-124
			c-0.1-15.7-2.2-37.4-20.2-42.6c-9.8-2.8-93.5-0.6-123.9-0.6c-26.5,0-26.5-41.2,0-41.2c38.4,0,76.9-0.7,115.4,0
			c50.2,0.9,69.9,44.4,69.9,88.8c0,18.4,0,96.6,0,115c0,44.4-19.7,87.9-69.9,88.8c-38.4,0.7-76.9,0-115.4,0
			C275.2,401.3,275.2,360.1,301.7,360.1z"/>
	</g>
	<g>
		<path class="st0" d="M331.2,242.6c-33.9-36.6-67.7-73.2-101.6-109.8c-18-19.5-47.1,9.7-29.1,29.1c23,24.9,46,49.8,69,74.6
			c-74.9,0-149.8,0-224.7,0c-26.5,0-26.5,41.2,0,41.2c75.2,0,150.3,0,225.5,0c-23.3,25.8-46.6,51.6-69.8,77.4
			c-17.7,19.6,11.3,48.8,29.1,29.1c33.9-37.5,67.7-75,101.6-112.5C338.8,263.3,339.1,251.2,331.2,242.6z"/>
	</g>
</g>
</svg>
