<?xml version="1.0" encoding="utf-8"?>
<!-- Generator: Adobe Illustrator 21.0.0, SVG Export Plug-In . SVG Version: 6.00 Build 0)  -->
<svg version="1.1" id="Layer_1" xmlns="http://www.w3.org/2000/svg" xmlns:xlink="http://www.w3.org/1999/xlink" x="0px" y="0px"
	 viewBox="0 0 512 512" style="enable-background:new 0 0 512 512;" xml:space="preserve">
<style type="text/css">
	.st0{fill:#6FF34D;}
</style>
<g>
	<g>
		<path class="st0" d="M162.7,364.5c-4.3,4.3-11.2,4.2-15.4-0.1s-4.3-11.1,0-15.3l93-93l-93-93c-4.3-4.3-4.3-11.3,0-15.6
			c4.3-4.3,11.2-4.2,15.4,0.1l93,93l93-93c4.3-4.3,11.2-4.4,15.4-0.1c4.3,4.3,4.3,11.3,0,15.6l-93,93l93,93
			c4.3,4.3,4.4,11.2,0.1,15.4c-4.3,4.3-11.3,4.3-15.6,0l-93-93L162.7,364.5z"/>
	</g>
	<g>
		<path class="st0" d="M448.1,256c-0.3,79.6-50.8,153.2-126,180.6c-76.4,27.7-163.1,3.9-214.9-58.5
			c-51.3-61.9-57.5-152.5-16.1-221.2C132.5,88.1,215,51.4,293.8,67.5c78.3,15.9,139.6,80.2,152.1,159
			C447.4,236.2,448,246.1,448.1,256c0,11.1,17.3,11.1,17.3,0C465,168.6,409.5,89.2,327.4,59.1c-82.2-30.2-178-3.9-233.4,63.9
			c-55.4,67.9-63.2,165.7-17.9,241c45.5,75.4,135.2,114.6,221.5,97.4c84.4-16.8,152.3-87.6,165.1-172.8c1.6-10.8,2.5-21.6,2.6-32.5
			C465.4,244.9,448.1,244.9,448.1,256z"/>
	</g>
</g>
</svg>
