<?xml version="1.0" encoding="utf-8"?>
<!-- Generator: Adobe Illustrator 21.0.0, SVG Export Plug-In . SVG Version: 6.00 Build 0)  -->
<svg version="1.1" id="Layer_1" xmlns="http://www.w3.org/2000/svg" xmlns:xlink="http://www.w3.org/1999/xlink" x="0px" y="0px"
	 viewBox="0 0 512 512" style="enable-background:new 0 0 512 512;" xml:space="preserve">
<style type="text/css">
	.st0{fill:#6FF34D;}
</style>
<g>
	<g>
		<path class="st0" d="M210.3,361c-30.3,0-113.9,2.2-123.7-0.6c-18.1-5.1-20.1-26.8-20.2-42.5c-0.1-20.4-0.1-103.4,0-123.9
			c0.1-15.7,2.2-37.4,20.2-42.5c9.8-2.8,93.4-0.6,123.7-0.6c26.5,0,26.5-41.1,0-41.1c-38.4,0-76.9-0.7-115.3,0
			c-50.1,0.9-69.8,44.3-69.8,88.7c0,18.4,0,96.5,0,114.9c0,44.4,19.7,87.8,69.8,88.7c38.4,0.7,76.9,0,115.3,0
			C236.8,402.1,236.8,361,210.3,361z"/>
	</g>
	<g>
		<path class="st0" d="M480.9,243.7c-33.8-36.6-67.6-73.1-101.4-109.7c-18-19.5-47,9.7-29.1,29.1c23,24.9,46,49.7,69,74.6
			c-74.8,0-149.6,0-224.4,0c-26.5,0-26.5,41.1,0,41.1c75.1,0,150.1,0,225.2,0c-23.3,25.8-46.5,51.5-69.8,77.3
			c-17.7,19.6,11.3,48.8,29.1,29.1c33.8-37.5,67.6-74.9,101.4-112.4C488.6,264.3,488.8,252.2,480.9,243.7z"/>
	</g>
</g>
</svg>
