<?xml version="1.0" encoding="utf-8"?>
<!-- Generator: Adobe Illustrator 23.0.0, SVG Export Plug-In . SVG Version: 6.00 Build 0)  -->
<svg version="1.1" id="Layer_1" xmlns="http://www.w3.org/2000/svg" xmlns:xlink="http://www.w3.org/1999/xlink" x="0px" y="0px"
	 viewBox="0 0 128 128" style="enable-background:new 0 0 128 128;" xml:space="preserve">
<style type="text/css">
	.st0{fill:#6FF34D;}
</style>
<g>
	<path class="st0" d="M64,19.51c-24.53,0-44.49,19.96-44.49,44.49c0,24.53,19.96,44.49,44.49,44.49c24.53,0,44.49-19.96,44.49-44.49
		C108.49,39.47,88.53,19.51,64,19.51z M64,102.71c-21.35,0-38.71-17.37-38.71-38.71c0-21.35,17.37-38.71,38.71-38.71
		c21.35,0,38.71,17.37,38.71,38.71C102.71,85.35,85.35,102.71,64,102.71z"/>
	<path class="st0" d="M66.12,52.38c-1.1-1.15-3.14-1.15-4.24,0c-6.03,6.33-12.07,12.67-18.1,19c-2.66,2.8,1.57,7.05,4.24,4.24
		C53.35,70.03,58.67,64.44,64,58.85c5.33,5.59,10.65,11.18,15.98,16.77c2.67,2.8,6.91-1.45,4.24-4.24
		C78.19,65.05,72.15,58.71,66.12,52.38z"/>
</g>
</svg>
