<?xml version="1.0" encoding="utf-8"?>
<!-- Generator: Adobe Illustrator 23.0.0, SVG Export Plug-In . SVG Version: 6.00 Build 0)  -->
<svg version="1.1" id="Layer_1" xmlns="http://www.w3.org/2000/svg" xmlns:xlink="http://www.w3.org/1999/xlink" x="0px" y="0px"
	 viewBox="0 0 128 128" style="enable-background:new 0 0 128 128;" xml:space="preserve">
<style type="text/css">
	.st0{fill:#9E9E9E;}
</style>
<g>
	<path class="st0" d="M64,19.51c-24.53,0-44.49,19.96-44.49,44.49c0,24.53,19.96,44.49,44.49,44.49c24.53,0,44.49-19.96,44.49-44.49
		C108.49,39.47,88.53,19.51,64,19.51z M64,102.71c-21.35,0-38.71-17.37-38.71-38.71c0-21.35,17.37-38.71,38.71-38.71
		c21.35,0,38.71,17.37,38.71,38.71C102.71,85.35,85.35,102.71,64,102.71z"/>
	<path class="st0" d="M82.75,61c-12.5,0-25,0-37.5,0c-3.86,0-3.87,6,0,6c12.5,0,25,0,37.5,0C86.61,67,86.62,61,82.75,61z"/>
</g>
</svg>
