<?xml version="1.0" encoding="utf-8"?>
<!-- Generator: Adobe Illustrator 21.0.0, SVG Export Plug-In . SVG Version: 6.00 Build 0)  -->
<svg version="1.1" id="Layer_1" xmlns="http://www.w3.org/2000/svg" xmlns:xlink="http://www.w3.org/1999/xlink" x="0px" y="0px"
	 viewBox="0 0 512 512" style="enable-background:new 0 0 512 512;" xml:space="preserve">
<style type="text/css">
	.st0{fill:#6FF34D;}
</style>
<g>
	<path class="st0" d="M446.4,243.5c-7,0-12.6,5.6-12.6,12.6c0,98.2-79.9,178-178,178c-50.4,0-98.6-21.7-132.2-58.8h94.4
		c6.9,0,12.6-5.6,12.6-12.6c0-6.9-5.6-12.6-12.6-12.6H97.8c-7,0-12.6,5.6-12.6,12.6v120.2c0,7,5.6,12.6,12.6,12.6
		c6.9,0,12.6-5.6,12.6-12.6V398c38,38.8,90.5,61.3,145.4,61.3c112,0,203.2-91.1,203.2-203.2C459,249.1,453.3,243.5,446.4,243.5z"/>
	<path class="st0" d="M256.2,77.9c50.4,0,98.6,21.7,132.2,58.8h-94.4c-7,0-12.6,5.6-12.6,12.6c0,7,5.6,12.6,12.6,12.6h120.2
		c6.9,0,12.6-5.6,12.6-12.6V29.1c0-7-5.6-12.6-12.6-12.6c-7,0-12.6,5.6-12.6,12.6V114c-38-38.8-90.5-61.3-145.4-61.3
		C144.2,52.7,53,143.9,53,255.9c0,7,5.6,12.6,12.6,12.6c7,0,12.6-5.6,12.6-12.6C78.2,157.8,158,77.9,256.2,77.9z"/>
</g>
</svg>
