<?xml version="1.0" encoding="utf-8"?>
<!-- Generator: Adobe Illustrator 21.0.0, SVG Export Plug-In . SVG Version: 6.00 Build 0)  -->
<svg version="1.1" id="Layer_1" xmlns="http://www.w3.org/2000/svg" xmlns:xlink="http://www.w3.org/1999/xlink" x="0px" y="0px"
	 viewBox="0 0 128 128" style="enable-background:new 0 0 128 128;" xml:space="preserve">
<style type="text/css">
	.st0{fill:#6FF34D;}
</style>
<path class="st0" d="M107.7,30.6c-1.1-0.9-2.7-0.7-3.6,0.4L97.6,39V20.1c0-1.4-1.1-2.6-2.6-2.6h-8.3v-4.5c0-1.4-1.1-2.6-2.6-2.6
	c-1.4,0-2.6,1.1-2.6,2.6v4.5h-7.7v-4.5c0-1.4-1.1-2.6-2.6-2.6c-1.4,0-2.6,1.1-2.6,2.6v4.5h-7.7v-4.5c0-1.4-1.1-2.6-2.6-2.6
	c-1.4,0-2.6,1.1-2.6,2.6v4.5h-7.7v-4.5c0-1.4-1.1-2.6-2.6-2.6c-1.4,0-2.6,1.1-2.6,2.6v4.5h-7.7v-4.5c0-1.4-1.1-2.6-2.6-2.6
	c-1.4,0-2.6,1.1-2.6,2.6v4.5h-8.4c-1.4,0-2.6,1.1-2.6,2.6v94.8c0,1.4,1.1,2.6,2.6,2.6h73.2c1.4,0,2.6-1.1,2.6-2.6V47.2l10.5-13
	C109,33.1,108.8,31.4,107.7,30.6z M92.5,112.4h-68V22.7h5.8v5.8c0,1.4,1.1,2.6,2.6,2.6c1.4,0,2.6-1.1,2.6-2.6v-5.8h7.7v5.8
	c0,1.4,1.1,2.6,2.6,2.6c1.4,0,2.6-1.1,2.6-2.6v-5.8H56v5.8c0,1.4,1.1,2.6,2.6,2.6c1.4,0,2.6-1.1,2.6-2.6v-5.8h7.7v5.8
	c0,1.4,1.1,2.6,2.6,2.6c1.4,0,2.6-1.1,2.6-2.6v-5.8h7.7v5.8c0,1.4,1.1,2.6,2.6,2.6c1.4,0,2.6-1.1,2.6-2.6v-5.8h5.7v22.7L61,84.5
	L41.7,65.7c-1-1-2.6-1-3.6,0c-1,1-1,2.6,0,3.6l21.2,20.7c0.5,0.5,1.1,0.7,1.8,0.7c0.1,0,0.1,0,0.2,0c0.7,0,1.4-0.4,1.8-1l29.3-36.3
	V112.4z"/>
</svg>
