<?xml version="1.0" encoding="utf-8"?>
<!-- Generator: Adobe Illustrator 21.0.0, SVG Export Plug-In . SVG Version: 6.00 Build 0)  -->
<svg version="1.1" id="Layer_1" xmlns="http://www.w3.org/2000/svg" xmlns:xlink="http://www.w3.org/1999/xlink" x="0px" y="0px"
	 viewBox="0 0 128 128" style="enable-background:new 0 0 128 128;" xml:space="preserve">
<style type="text/css">
	.st0{fill:#6FF34D;}
</style>
<path class="st0" d="M102,57c-0.4-1.8-1.6-3.4-3.2-4.3c-2.5-1.5-6.7-1.6-10.9,2.4c-2.3,2.3-6.6,7.8-9.6,12.1c-0.4-0.5-0.9-1-1.3-1.5
	V27.2c0-4.4-3.6-8-8-8c-1.4,0-2.6,0.3-3.7,0.9v-0.6c0-4.4-3.6-8-8-8c-4.4,0-8,3.6-8,8v0.1c-1.1-0.6-2.4-0.9-3.7-0.9
	c-4.4,0-8,3.6-8,8v7.5c-1.1-0.6-2.4-0.9-3.7-0.9c-4.4,0-8,3.6-8,8v45.4c0,16.4,13.4,29.8,29.8,29.8c11.1,0,21.2-6.1,26.3-15.9
	c0.3-0.7,1.4-3.1,3.3-7.2c1.2-2.7,2.5-5.7,3.7-8.4c6.1-13.4,7.4-16.1,7.6-16.5c0.4-0.7,1.5-2.1,2.4-3.4c0.8-1.1,1.6-2.1,2.1-2.9
	C102.1,60.7,102.4,58.8,102,57z M78.3,98.5c-4.5,8.4-13.1,13.6-22.6,13.6c-14.1,0-25.6-11.5-25.6-25.6V41.2c0-2.1,1.7-3.7,3.7-3.7
	c2.1,0,3.7,1.7,3.7,3.7v29.7c0,1.2,0.9,2.1,2.1,2.1c1.2,0,2.1-0.9,2.1-2.1V26.7c0-2.1,1.7-3.7,3.7-3.7c2.1,0,3.7,1.7,3.7,3.7v37.1
	c0,1.2,0.9,2.1,2.1,2.1c1.2,0,2.1-0.9,2.1-2.1V19.6c0-2.1,1.7-3.7,3.7-3.7c2.1,0,3.7,1.7,3.7,3.7v44.2c0,1.2,0.9,2.1,2.1,2.1
	c1.2,0,2.1-0.9,2.1-2.1V27.2c0-2.1,1.7-3.7,3.7-3.7c2.1,0,3.7,1.7,3.7,3.7v39.3c0,0.5,0.2,1.1,0.6,1.5l3.3,3.8c0.4,0.6,1,0.9,1.7,1
	c0,0,0,0,0,0c0.7,0,1.3-0.3,1.7-0.9C85,65,89,59.9,90.8,58.1c3.2-3,5.4-2,5.8-1.8c0.6,0.3,1,0.9,1.2,1.6c0.2,0.7,0.1,1.3-0.3,1.8
	c-0.4,0.7-1.2,1.7-1.9,2.7c-1.1,1.5-2.1,2.8-2.7,3.8c-0.3,0.6-1.5,2.9-7.8,16.9L78.3,98.5z"/>
</svg>
