<?xml version="1.0" encoding="utf-8"?>
<!-- Generator: Adobe Illustrator 23.0.0, SVG Export Plug-In . SVG Version: 6.00 Build 0)  -->
<svg version="1.1" id="Layer_1" xmlns="http://www.w3.org/2000/svg" xmlns:xlink="http://www.w3.org/1999/xlink" x="0px" y="0px"
	 viewBox="0 0 256 256" style="enable-background:new 0 0 256 256;" xml:space="preserve">
<style type="text/css">
	.st0{fill:#6FF34D;}
</style>
<g>
	<circle class="st0" cx="144.2" cy="153.1" r="5.9"/>
	<path class="st0" d="M204.6,63.7h-1.4V46.9c0-15.4-12.5-28-28-28H51.4c-15.4,0-28,12.6-28,28v162.1c0,15.4,12.6,28,28,28h153.3
		c15.4,0,28-12.6,28-28V91.7C232.6,76.2,220.1,63.7,204.6,63.7z M220.9,169.3h-78.1c-8.9,0-16.2-7.3-16.2-16.2
		c0-8.9,7.3-16.2,16.2-16.2h78.1L220.9,169.3L220.9,169.3z M35.2,47c0-8.9,7.3-16.2,16.2-16.2h123.8c8.9,0,16.2,7.3,16.2,16.2v16.8
		L162,64H51.4c-8.9,0-16.2-7.3-16.2-16.2L35.2,47L35.2,47z M204.6,225.3H51.4c-8.9,0-16.2-7.3-16.2-16.2V70.5
		c4.6,3.2,10.2,5.2,16.2,5.2h110.5l33.1-0.2c1.4,0.6,3.2,0.6,4.5,0l5.1,0c8.9,0,16.2,7.3,16.2,16.2V125h-78.1c-15.4,0-28,12.6-28,28
		s12.6,28,28,28h78.1v28C220.9,218,213.6,225.3,204.6,225.3z"/>
</g>
</svg>
