<?xml version="1.0" encoding="utf-8"?>
<!-- Generator: Adobe Illustrator 21.0.0, SVG Export Plug-In . SVG Version: 6.00 Build 0)  -->
<svg version="1.1" id="Layer_1" xmlns="http://www.w3.org/2000/svg" xmlns:xlink="http://www.w3.org/1999/xlink" x="0px" y="0px"
	 viewBox="0 0 768 768" style="enable-background:new 0 0 768 768;" xml:space="preserve">
<style type="text/css">
	.st0{fill:#6FF34D;}
</style>
<g>
	<g>
		<g>
			<path class="st0" d="M486.2,233H297.1v37.9h120l-120,73.7V535h33.2l-0.1-94.3L452,535h34.2v-19.1v-3.6V350.6L360,350.3l126.2-81
				V233z M451.5,387.2l0.6,97.8l-122-97.8H451.5z"/>
		</g>
	</g>
	<path class="st0" d="M384,65.5C208.1,65.5,65.5,208.1,65.5,384S208.1,702.5,384,702.5S702.5,559.9,702.5,384
		C702.3,208.2,559.8,65.7,384,65.5z M635.8,226.3l-27.5,15.9c-21-33.4-49.2-61.6-82.5-82.7l15.8-27.4
		C579.7,156.1,611.9,188.3,635.8,226.3z M535.7,370.3c2,2,4.7,3.1,7.5,3.1H681c0.1,3.5,0.3,7.1,0.3,10.6s-0.1,7.1-0.3,10.6H575.1
		v21.2h104.4c-0.8,7.2-1.8,14.2-3.1,21.2h-97.6l-2.3,7.4c-33.4,106.3-146.7,165.3-252.9,131.9C217.3,543,158.2,429.8,191.6,323.5
		s146.7-165.3,252.9-131.9c62.9,19.8,112.1,69,131.9,131.9l2.3,7.4h97.6c1.3,7,2.3,14.1,3.1,21.2H547.6L529.5,334l-15,15
		L535.7,370.3z M594.3,309.7c-41-116.1-168.4-176.9-284.5-135.9S132.8,342.2,173.9,458.3s168.4,176.9,284.5,135.9
		c63.5-22.4,113.4-72.4,135.9-135.9h77.6c-5.9,22.6-14.4,44.4-25.4,65l-27.6-15.9c4-7.7,7.9-15.6,11.2-23.8l-19.7-8
		c-50.6,125-192.9,185.4-317.9,134.8c-125-50.6-185.4-192.9-134.8-317.9s192.9-185.4,317.9-134.8c61.3,24.8,110,73.5,134.8,134.8
		l19.7-8c-3.3-8.2-7.2-16.1-11.2-23.8l27.6-15.9c11,20.6,19.5,42.4,25.4,65H594.3z M373.4,649.2V681c-45-1.5-89-13.3-128.7-34.5
		l15.9-27.6C295.5,637.3,334,647.6,373.4,649.2z M394.6,649c39.4-1.5,77.9-11.7,112.8-30l15.9,27.5c-39.7,21.2-83.8,33-128.7,34.5
		V649z M118.8,373.4H87c1.5-45,13.3-89,34.5-128.7l27.6,15.9C130.7,295.5,120.4,334,118.8,373.4z M118.8,394.6
		c1.5,39.4,11.9,77.9,30.2,112.7l-27.6,15.9c-21.1-39.7-32.9-83.7-34.5-128.7H118.8z M394.6,119V87c45,1.5,89,13.3,128.7,34.5
		L507.4,149C472.5,130.7,434,120.5,394.6,119z M373.4,118.8c-39.4,1.5-77.9,11.9-112.7,30.2l-15.9-27.6
		c39.7-21.1,83.7-32.9,128.7-34.5V118.8z M226.3,132.2l15.9,27.6c-33.2,21.1-61.4,49.3-82.5,82.5l-27.6-15.9
		C156.1,188.3,188.3,156.1,226.3,132.2z M132.2,541.7l27.6-15.9c21.1,33.2,49.3,61.4,82.5,82.5l-15.9,27.6
		C188.3,611.9,156.1,579.7,132.2,541.7z M541.7,635.8l-15.8-27.4c33.3-21,61.5-49.3,82.5-82.7l27.5,15.9
		C611.9,579.8,579.7,611.9,541.7,635.8z"/>
	<g>
		<path class="st0" d="M244.4,339.3h34.9v-17.5H248l-23.6-23.6L212,310.5l26.2,26.2C239.9,338.4,242.1,339.3,244.4,339.3z"/>
		<rect x="209.5" y="356.7" class="st0" width="69.8" height="17.5"/>
		<path class="st0" d="M279.3,391.6h-34.9c-2.3,0-4.5,0.9-6.2,2.6L212,420.4l12.3,12.3l23.6-23.6h31.3V391.6z"/>
		<rect x="253.1" y="426.5" class="st0" width="26.2" height="17.5"/>
	</g>
</g>
</svg>
