<?xml version="1.0" encoding="utf-8"?>
<!-- Generator: Adobe Illustrator 23.0.0, SVG Export Plug-In . SVG Version: 6.00 Build 0)  -->
<svg version="1.1" id="Layer_1" xmlns="http://www.w3.org/2000/svg" xmlns:xlink="http://www.w3.org/1999/xlink" x="0px" y="0px"
	 viewBox="0 0 256 256" style="enable-background:new 0 0 256 256;" xml:space="preserve">
<style type="text/css">
	.st0{fill:#6FF34D;}
</style>
<g>
	<circle class="st0" cx="107.3" cy="148.2" r="4.8"/>
	<path class="st0" d="M156,76.1h-1.1V62.6c0-12.4-10.1-22.6-22.6-22.6H32.3C19.9,40,9.7,50.1,9.7,62.6v130.8
		c0,12.4,10.2,22.6,22.6,22.6H156c12.4,0,22.6-10.2,22.6-22.6V98.7C178.6,86.2,168.5,76.1,156,76.1z M169.1,161.3h-63
		c-7.2,0-13.1-5.9-13.1-13.1c0-7.2,5.9-13.1,13.1-13.1h63L169.1,161.3L169.1,161.3z M19.3,62.6c0-7.2,5.9-13.1,13.1-13.1h99.9
		c7.2,0,13.1,5.9,13.1,13.1v13.6l-23.8,0.1H32.3c-7.2,0-13.1-5.9-13.1-13.1L19.3,62.6L19.3,62.6z M156,206.5H32.3
		c-7.2,0-13.1-5.9-13.1-13.1V81.6c3.7,2.6,8.2,4.2,13.1,4.2h89.2l26.7-0.1c1.1,0.5,2.5,0.5,3.7,0l4.1,0c7.2,0,13.1,5.9,13.1,13.1
		v26.9h-63c-12.4,0-22.6,10.2-22.6,22.6c0,12.4,10.2,22.6,22.6,22.6h63v22.6C169.1,200.6,163.2,206.5,156,206.5z"/>
</g>
<path class="st0" d="M191.8,178.2c0.6,0.6,1.4,1,2.3,1c0.8,0,1.6-0.3,2.2-0.9l49-48c0.6-0.6,1-1.4,1-2.3c0-0.9-0.4-1.7-1-2.3
	l-48.7-47.8c-1.3-1.3-3.3-1.2-4.5,0c-1.3,1.3-1.2,3.3,0,4.5l46.4,45.5l-46.7,45.7C190.6,174.9,190.5,176.9,191.8,178.2z"/>
</svg>
