<?xml version="1.0" encoding="utf-8"?>
<!-- Generator: Adobe Illustrator 21.0.0, SVG Export Plug-In . SVG Version: 6.00 Build 0)  -->
<svg version="1.1" id="Layer_1" xmlns="http://www.w3.org/2000/svg" xmlns:xlink="http://www.w3.org/1999/xlink" x="0px" y="0px"
	 viewBox="0 0 488 128" style="enable-background:new 0 0 488 128;" xml:space="preserve">
<style type="text/css">
	.st0{fill:#6FF34D;}
</style>
<g>
	<path class="st0" d="M155.1,101c-4.4,4.3-12.6,5.9-18.4,4.1c-7.1-2.2-10.3-8-10.3-18.4V58.2h-7.7V48.1h7.7V36.1l11.2-3.1v15h11.7
		v10.2h-11.7v28c0,5.1,1.1,7.2,3.5,8.2c2.4,0.9,5.9-0.1,7.8-2L155.1,101z"/>
	<g>
		<path class="st0" d="M225.8,93.9v11.4h-63.4V93.9l48.4-60.4H166V22.2h58.8v11.3l-48.3,60.4H225.8z"/>
		<path class="st0" d="M297.8,22.2v83.1h-10.9l-40.6-62.5v62.5h-11.4V22.2h11l40.6,62.5V22.2H297.8z"/>
		<path class="st0" d="M369.2,22.2v83.1h-10.9l-40.6-62.5v62.5h-11.4V22.2h11L358,84.6V22.2H369.2z"/>
	</g>
</g>
</svg>
