<?xml version="1.0" encoding="utf-8"?>
<!-- Generator: Adobe Illustrator 21.0.0, SVG Export Plug-In . SVG Version: 6.00 Build 0)  -->
<svg version="1.1" id="Layer_1" xmlns="http://www.w3.org/2000/svg" xmlns:xlink="http://www.w3.org/1999/xlink" x="0px" y="0px"
	 viewBox="0 0 488 128" style="enable-background:new 0 0 488 128;" xml:space="preserve">
<style type="text/css">
	.st0{fill:#6FF34D;}
</style>
<g>
	<path class="st0" d="M129.6,100.7c-4.3,4.2-12.4,5.8-18.1,4.1c-7-2.2-10.1-7.9-10.1-18.1v-28h-7.6v-10h7.6V36.9l11-3v14.8h11.5v10
		h-11.5v27.5c0,5,1,7.1,3.5,8c2.3,0.9,5.8-0.1,7.7-2L129.6,100.7z"/>
	<path class="st0" d="M179.9,48.6v56h-11.2v-5.3c-3.6,3.8-8.5,6.2-14.3,6.2c-13.2,0-20.8-9.2-20.8-25.2V48.6h11v30.6
		c0,10.8,5.2,15.2,11.7,15.2c6.9,0,12.3-4.2,12.3-14.5V48.6H179.9z"/>
	<g>
		<path class="st0" d="M250.8,94.2v11.4h-63.4V94.2l48.4-60.4H191V22.4h58.8v11.3l-48.3,60.4H250.8z"/>
		<path class="st0" d="M322.7,22.4v83.1h-10.9l-40.6-62.5v62.5h-11.4V22.4h11l40.6,62.5V22.4H322.7z"/>
		<path class="st0" d="M394.2,22.4v83.1h-10.9l-40.6-62.5v62.5h-11.4V22.4h11l40.6,62.5V22.4H394.2z"/>
	</g>
</g>
</svg>
