<?xml version="1.0" encoding="utf-8"?>
<!-- Generator: Adobe Illustrator 21.0.0, SVG Export Plug-In . SVG Version: 6.00 Build 0)  -->
<svg version="1.1" id="Layer_1" xmlns="http://www.w3.org/2000/svg" xmlns:xlink="http://www.w3.org/1999/xlink" x="0px" y="0px"
	 viewBox="0 0 488 128" style="enable-background:new 0 0 488 128;" xml:space="preserve">
<style type="text/css">
	.st0{fill:#6FF34D;}
</style>
<g>
	<path class="st0" d="M176.1,73.3v32.3h-11.4V74.3c0-11.2-5-15.6-11.5-15.6c-7,0-12,4.2-12,14.8v31.9h-11.3V74.3
		c0-11.2-5.3-15.6-12-15.6c-7,0-11.6,4.2-11.6,14.8v31.9H95V48.3h11.3v4.5c3.4-3.3,7.8-5.3,13.4-5.3c8,0,14,3.2,17.7,9.4
		c3.9-5.9,9.9-9.4,17.5-9.4C168.4,47.5,176.1,56.8,176.1,73.3z"/>
	<path class="st0" d="M249.6,94.2v11.4h-63.4V94.2l48.4-60.4h-44.9V22.4h58.8v11.3l-48.3,60.4H249.6z"/>
	<path class="st0" d="M321.5,22.4v83.1h-10.9L270,43.1v62.5h-11.4V22.4h11l40.6,62.5V22.4H321.5z"/>
	<path class="st0" d="M393,22.4v83.1h-10.9l-40.6-62.5v62.5h-11.4V22.4h11l40.6,62.5V22.4H393z"/>
</g>
</svg>
