<?xml version="1.0" encoding="utf-8"?>
<!-- Generator: Adobe Illustrator 21.0.0, SVG Export Plug-In . SVG Version: 6.00 Build 0)  -->
<svg version="1.1" id="Layer_1" xmlns="http://www.w3.org/2000/svg" xmlns:xlink="http://www.w3.org/1999/xlink" x="0px" y="0px"
	 viewBox="0 0 488 128" style="enable-background:new 0 0 488 128;" xml:space="preserve">
<style type="text/css">
	.st0{fill:#6FF34D;}
</style>
<g>
	<path class="st0" d="M160.5,48.6v56.1h-11.2v-5.4c-3.6,3.8-8.5,6.2-14.3,6.2c-13.3,0-20.8-9.2-20.8-25.2V48.6h11v30.6
		c0,10.8,5.2,15.2,11.7,15.2c6.9,0,12.3-4.2,12.3-14.5V48.6H160.5z"/>
	<path class="st0" d="M230.4,94.2v11.4H167V94.2l48.4-60.4h-44.9V22.4h58.8v11.3L181,94.2H230.4z"/>
	<path class="st0" d="M302.3,22.4v83.1h-10.9l-40.6-62.5v62.5h-11.4V22.4h11l40.6,62.5V22.4H302.3z"/>
	<path class="st0" d="M373.8,22.4v83.1h-10.9l-40.6-62.5v62.5h-11.4V22.4h11l40.6,62.5V22.4H373.8z"/>
</g>
</svg>
