<?xml version="1.0" encoding="utf-8"?>
<!-- Generator: Adobe Illustrator 21.0.0, SVG Export Plug-In . SVG Version: 6.00 Build 0)  -->
<svg version="1.1" id="Layer_1" xmlns="http://www.w3.org/2000/svg" xmlns:xlink="http://www.w3.org/1999/xlink" x="0px" y="0px"
	 viewBox="0 0 488 128" style="enable-background:new 0 0 488 128;" xml:space="preserve">
<style type="text/css">
	.st0{fill:#6FF34D;}
</style>
<g>
	<path class="st0" d="M111.5,101.3c-4.2,4.1-12.1,5.7-17.7,4C87,103.1,84,97.6,84,87.6V60.3h-7.4v-9.7H84V39.2l10.7-2.9v14.4h11.2
		v9.7H94.7v26.8c0,4.9,1,6.9,3.4,7.8c2.3,0.9,5.7-0.1,7.5-1.9L111.5,101.3z"/>
	<path class="st0" d="M195,74.4v30.8h-10.9V75.4c0-10.6-4.8-14.8-11-14.8c-6.7,0-11.4,4-11.4,14.1v30.4H151V75.4
		c0-10.6-5.1-14.8-11.4-14.8c-6.7,0-11.1,4-11.1,14.1v30.4h-10.8V50.6h10.8v4.3c3.3-3.2,7.5-5.1,12.8-5.1c7.6,0,13.4,3.1,16.9,8.9
		c3.7-5.7,9.4-8.9,16.6-8.9C187.7,49.8,195,58.6,195,74.4z"/>
	<path class="st0" d="M268,93.8v11.4h-63.4V93.8L253,33.3h-44.9V22.1h58.8v11.3l-48.3,60.4H268z"/>
	<path class="st0" d="M339.9,22.1v83.1H329l-40.6-62.5v62.5H277V22.1h11l40.6,62.5V22.1H339.9z"/>
	<path class="st0" d="M411.4,22.1v83.1h-10.9l-40.6-62.5v62.5h-11.4V22.1h11l40.6,62.5V22.1H411.4z"/>
</g>
</svg>
