<?xml version="1.0" encoding="utf-8"?>
<!-- Generator: Adobe Illustrator 21.0.0, SVG Export Plug-In . SVG Version: 6.00 Build 0)  -->
<svg version="1.1" id="Layer_1" xmlns="http://www.w3.org/2000/svg" xmlns:xlink="http://www.w3.org/1999/xlink" x="0px" y="0px"
	 viewBox="0 0 120 120" style="enable-background:new 0 0 120 120;" xml:space="preserve">
<style type="text/css">
	.st0{fill:#6FF34D;}
</style>
<g>
	<path class="st0" d="M40.2,27.4c0.2,0.3,0.5,0.4,0.8,0.2c11-6.2,24.2-6.6,35.4-1c18.8,9.4,26.1,32.6,16.4,51.6l0,0L90.1,68
		c-0.1-0.3-0.4-0.5-0.7-0.4l-7.9,2.7c-0.3,0.1-0.5,0.5-0.4,0.7l6.6,22.6c0,0.1,0.2,0.3,0.3,0.4l1.8,0.9c0.2,0.1,0.3,0,0.5,0
		l22.1-8.3c0.3-0.1,0.4-0.4,0.4-0.7l-2.6-7.9c-0.1-0.3-0.5-0.5-0.7-0.4l-7.8,3c10.9-23.2,1.6-50.9-21.1-62.3
		c-13.9-7-30.2-6.5-43.9,1.3c-0.3,0.2-0.4,0.5-0.2,0.8L40.2,27.4z"/>
	<path class="st0" d="M79.8,92.6c-0.2-0.3-0.5-0.4-0.8-0.2c-11,6.2-24.2,6.6-35.4,1c-18.8-9.4-26.1-32.6-16.4-51.6l0,0l2.8,10
		c0.1,0.3,0.4,0.5,0.7,0.4l7.9-2.7c0.3-0.1,0.5-0.5,0.4-0.7l-6.6-22.6c0-0.1-0.2-0.3-0.3-0.4l-1.8-0.9c-0.2-0.1-0.3,0-0.5,0
		L7.8,33.2c-0.3,0.1-0.5,0.5-0.4,0.7l2.6,8c0.1,0.3,0.5,0.5,0.7,0.4l7.8-3c-10.9,23.2-1.6,50.9,21.1,62.3
		c13.8,6.9,30.1,6.5,43.8-1.4c0.3-0.2,0.4-0.5,0.2-0.8L79.8,92.6z"/>
</g>
</svg>
