<?xml version="1.0" encoding="utf-8"?>
<!-- Generator: Adobe Illustrator 21.0.0, SVG Export Plug-In . SVG Version: 6.00 Build 0)  -->
<svg version="1.1" id="Layer_1" xmlns="http://www.w3.org/2000/svg" xmlns:xlink="http://www.w3.org/1999/xlink" x="0px" y="0px"
	 viewBox="0 0 120 120" style="enable-background:new 0 0 120 120;" xml:space="preserve">
<style type="text/css">
	.st0{fill:#6FF34D;}
</style>
<g>
	<path class="st0" d="M34.6,31.5c0.2,0.3,0.6,0.3,0.8,0C45.2,23.5,58,20.7,70,24.1c20.2,5.8,31.6,27.3,25.5,47.7l0,0L91,62.4
		c-0.1-0.3-0.5-0.5-0.8-0.2l-7.3,4.1c-0.3,0.1-0.4,0.5-0.2,0.8l10.6,21c0.1,0.1,0.2,0.3,0.3,0.3l2,0.6c0.2,0.1,0.3,0,0.4-0.1
		l20.2-12.1c0.3-0.1,0.3-0.4,0.2-0.8l-4-7.3c-0.1-0.3-0.5-0.4-0.8-0.2l-7.1,4.4c6.5-24.8-7.6-50.4-32-57.4
		c-14.9-4.3-30.9-0.9-42.9,9.3c-0.3,0.2-0.3,0.6,0,0.8L34.6,31.5z"/>
	<path class="st0" d="M85.4,88.5c-0.2-0.3-0.6-0.3-0.8,0C74.8,96.5,62,99.3,50,95.9c-20.2-5.8-31.6-27.3-25.5-47.7l0,0l4.6,9.4
		c0.1,0.3,0.5,0.5,0.8,0.2l7.3-4.1c0.3-0.1,0.4-0.5,0.2-0.8l-10.6-21c-0.1-0.1-0.2-0.3-0.3-0.3l-2-0.6c-0.2-0.1-0.3,0-0.4,0.1
		L3.8,43.1c-0.3,0.1-0.4,0.5-0.2,0.8l4,7.4c0.1,0.3,0.5,0.4,0.8,0.2l7.1-4.4c-6.5,24.8,7.6,50.4,32,57.4c14.8,4.3,30.8,0.9,42.8-9.3
		c0.3-0.2,0.3-0.6,0-0.8L85.4,88.5z"/>
</g>
</svg>
