<?xml version="1.0" encoding="utf-8"?>
<!-- Generator: Adobe Illustrator 21.0.0, SVG Export Plug-In . SVG Version: 6.00 Build 0)  -->
<svg version="1.1" id="Layer_1" xmlns="http://www.w3.org/2000/svg" xmlns:xlink="http://www.w3.org/1999/xlink" x="0px" y="0px"
	 viewBox="0 0 120 120" style="enable-background:new 0 0 120 120;" xml:space="preserve">
<style type="text/css">
	.st0{fill:#6FF34D;}
</style>
<g>
	<path class="st0" d="M22.4,53.8c0.4,0.1,0.6-0.1,0.7-0.5c2.5-12.4,10.8-22.7,22.3-27.5c19.4-8.1,41.8,1.4,49.8,21.2l0,0l-9.5-4.5
		c-0.3-0.1-0.7,0-0.7,0.3l-3.1,7.8c-0.1,0.3,0,0.6,0.3,0.7l21.5,9.7c0.1,0.1,0.4,0.1,0.5,0l1.9-0.8c0.2-0.1,0.2-0.2,0.3-0.3
		l8.1-22.1c0.1-0.3,0-0.5-0.3-0.7l-7.7-3.2c-0.3-0.1-0.6,0-0.7,0.3l-2.8,7.9c-10.5-23.5-37.6-34.5-61-24.6
		c-14.3,6-24.6,18.7-27.6,34.2c-0.1,0.4,0.1,0.6,0.5,0.7L22.4,53.8z"/>
	<path class="st0" d="M97.6,66.2c-0.4-0.1-0.6,0.1-0.7,0.5c-2.5,12.4-10.8,22.7-22.3,27.5c-19.4,8.1-41.8-1.4-49.8-21.2l0,0l9.4,4.4
		c0.3,0.1,0.7,0,0.7-0.3l3.1-7.8c0.1-0.3,0-0.6-0.3-0.7l-21.5-9.7c-0.1-0.1-0.4-0.1-0.5,0l-1.9,0.8c-0.2,0.1-0.2,0.2-0.3,0.3
		L5.6,82.1c-0.1,0.3,0,0.6,0.3,0.7l7.7,3.2c0.3,0.1,0.6,0,0.7-0.3l2.8-7.9c10.5,23.5,37.6,34.5,61,24.6c14.2-6,24.5-18.7,27.5-34.1
		c0.1-0.4-0.1-0.6-0.5-0.7L97.6,66.2z"/>
</g>
</svg>
