<?xml version="1.0" encoding="utf-8"?>
<!-- Generator: Adobe Illustrator 21.0.0, SVG Export Plug-In . SVG Version: 6.00 Build 0)  -->
<svg version="1.1" id="Layer_1" xmlns="http://www.w3.org/2000/svg" xmlns:xlink="http://www.w3.org/1999/xlink" x="0px" y="0px"
	 viewBox="0 0 120 120" style="enable-background:new 0 0 120 120;" xml:space="preserve">
<style type="text/css">
	.st0{fill:#6FF34D;}
</style>
<g>
	<path class="st0" d="M41.4,93.3c0.2-0.3,0.1-0.6-0.2-0.8C30.3,86,23.5,74.7,22.8,62.3c-1.1-21,15.5-38.8,36.8-39.7l0,0l-7.4,7.4
		c-0.2,0.2-0.3,0.6,0,0.8l6.3,5.6c0.2,0.2,0.6,0.2,0.8,0l16.4-16.9c0.1-0.1,0.2-0.3,0.2-0.4l-0.1-2c0-0.2-0.1-0.3-0.2-0.4L57.4,1.4
		c-0.2-0.2-0.5-0.2-0.8,0l-5.6,6.2c-0.2,0.2-0.2,0.6,0,0.8l6.5,5.3c-25.6,2-45.1,23.7-43.8,49.1c0.8,15.5,9.3,29.5,22.8,37.5
		c0.3,0.2,0.6,0.1,0.8-0.2L41.4,93.3z"/>
	<path class="st0" d="M78.6,26.7c-0.2,0.3-0.1,0.6,0.2,0.8C89.7,34,96.5,45.3,97.2,57.7c1.1,21-15.5,38.8-36.8,39.7l0,0l7.3-7.4
		c0.2-0.2,0.3-0.6,0-0.8l-6.3-5.6c-0.2-0.2-0.6-0.2-0.8,0l-16.4,16.9c-0.1,0.1-0.2,0.3-0.2,0.4l0.1,2c0,0.2,0.1,0.3,0.2,0.4
		l18.1,15.1c0.2,0.2,0.6,0.2,0.8,0l5.7-6.2c0.2-0.2,0.2-0.6,0-0.8l-6.5-5.3c25.6-2,45.1-23.7,43.8-49.1
		c-0.8-15.4-9.3-29.4-22.8-37.4c-0.3-0.2-0.6-0.1-0.8,0.2L78.6,26.7z"/>
</g>
</svg>
