<?xml version="1.0" encoding="utf-8"?>
<!-- Generator: Adobe Illustrator 21.0.0, SVG Export Plug-In . SVG Version: 6.00 Build 0)  -->
<svg version="1.1" id="Layer_1" xmlns="http://www.w3.org/2000/svg" xmlns:xlink="http://www.w3.org/1999/xlink" x="0px" y="0px"
	 viewBox="0 0 120 120" style="enable-background:new 0 0 120 120;" xml:space="preserve">
<style type="text/css">
	.st0{fill:#6FF34D;}
</style>
<g>
	<path class="st0" d="M67.4,97.4c-0.1-0.4-0.3-0.5-0.7-0.5c-12.5,2-25-2.1-33.6-11.2c-14.4-15.3-13.4-39.6,2.3-54.1l0,0l-0.9,10.5
		c0,0.3,0.2,0.7,0.6,0.6l8.4,0.2c0.3,0,0.6-0.3,0.6-0.6l1.5-23.5c0-0.1-0.1-0.4-0.1-0.4L44.1,17c-0.1-0.1-0.3-0.2-0.4-0.2L20.1,17
		c-0.3,0-0.5,0.2-0.6,0.6l-0.2,8.3c0,0.3,0.3,0.6,0.6,0.6l8.3-0.2C9.9,44.3,9.1,73.6,26.5,92c10.7,11.3,26.2,16.5,41.7,13.8
		c0.4-0.1,0.5-0.3,0.5-0.7L67.4,97.4z"/>
	<path class="st0" d="M52.6,22.6c0.1,0.4,0.3,0.5,0.7,0.5c12.5-2,25,2.1,33.6,11.2c14.4,15.3,13.4,39.6-2.3,54.1l0,0l0.8-10.4
		c0-0.3-0.2-0.7-0.6-0.6l-8.4-0.2c-0.3,0-0.6,0.3-0.6,0.6l-1.5,23.5c0,0.1,0.1,0.4,0.1,0.4l1.4,1.5c0.1,0.1,0.3,0.2,0.4,0.2
		l23.6-0.2c0.3,0,0.6-0.3,0.6-0.6l0.3-8.4c0-0.3-0.3-0.6-0.6-0.6l-8.3,0.2c18.3-18.1,19-47.3,1.6-65.7
		C82.9,16.8,67.3,11.6,51.8,14.2c-0.4,0.1-0.5,0.3-0.5,0.7L52.6,22.6z"/>
</g>
</svg>
