<?xml version="1.0" encoding="utf-8"?>
<!-- Generator: Adobe Illustrator 21.0.0, SVG Export Plug-In . SVG Version: 6.00 Build 0)  -->
<svg version="1.1" id="Layer_1" xmlns="http://www.w3.org/2000/svg" xmlns:xlink="http://www.w3.org/1999/xlink" x="0px" y="0px"
	 viewBox="0 0 120 120" style="enable-background:new 0 0 120 120;" xml:space="preserve">
<style type="text/css">
	.st0{fill:#6FF34D;}
</style>
<g>
	<path class="st0" d="M45.4,24.8c0.1,0.3,0.4,0.4,0.8,0.3c11.8-4.4,24.9-2.9,35.1,4.3c17.2,12.1,20.9,36.2,8.4,53.5l0,0l-1.2-10.4
		c0-0.3-0.3-0.6-0.7-0.5l-8.3,1.5c-0.3,0-0.5,0.4-0.5,0.7l3.1,23.4c0,0.1,0.1,0.3,0.2,0.4l1.7,1.2c0.2,0.1,0.3,0.1,0.4,0.1l23.1-4.8
		c0.3,0,0.5-0.3,0.5-0.7l-1.4-8.2c0-0.3-0.4-0.5-0.7-0.5l-8.1,1.8c14.3-21.3,9.3-50.1-11.4-64.8c-12.7-9-28.9-11-43.6-5.3
		c-0.3,0.1-0.4,0.4-0.3,0.8L45.4,24.8z"/>
	<path class="st0" d="M74.6,95.2c-0.1-0.3-0.4-0.4-0.8-0.3c-11.8,4.4-24.9,2.9-35.1-4.3c-17.2-12.1-20.9-36.2-8.4-53.5l0,0l1.3,10.3
		c0,0.3,0.3,0.6,0.7,0.5l8.3-1.5c0.3,0,0.5-0.4,0.5-0.7l-3.1-23.4c0-0.1-0.1-0.3-0.2-0.4l-1.7-1.2c-0.2-0.1-0.3-0.1-0.4-0.1
		l-23.1,4.8c-0.3,0-0.5,0.4-0.5,0.7l1.3,8.3c0,0.3,0.4,0.5,0.7,0.5l8.1-1.8C7.8,54.5,12.8,83.3,33.5,98c12.6,8.9,28.8,10.9,43.5,5.3
		c0.3-0.1,0.4-0.4,0.3-0.8L74.6,95.2z"/>
</g>
</svg>
