<?xml version="1.0" encoding="utf-8"?>
<!-- Generator: Adobe Illustrator 21.0.0, SVG Export Plug-In . SVG Version: 6.00 Build 0)  -->
<svg version="1.1" id="Layer_1" xmlns="http://www.w3.org/2000/svg" xmlns:xlink="http://www.w3.org/1999/xlink" x="0px" y="0px"
	 viewBox="0 0 120 120" style="enable-background:new 0 0 120 120;" xml:space="preserve">
<style type="text/css">
	.st0{fill:#6FF34D;}
</style>
<g>
	<path class="st0" d="M73,24.1c-0.1,0.3,0,0.6,0.4,0.8c11.7,4.7,20.3,14.7,23,26.9c4.4,20.5-9,40.8-29.9,45.1l0,0l6.2-8.5
		c0.2-0.2,0.2-0.7-0.2-0.8l-7.1-4.5c-0.2-0.2-0.6-0.1-0.8,0.2l-13.5,19.3c-0.1,0.1-0.1,0.3-0.1,0.4l0.4,2c0,0.2,0.2,0.3,0.3,0.4
		l20.3,12c0.2,0.2,0.5,0.1,0.8-0.2l4.5-7c0.2-0.2,0.1-0.6-0.2-0.8l-7.2-4.1c25-6,40.7-30.6,35.4-55.4c-3.3-15.2-13.9-27.6-28.5-33.4
		c-0.3-0.1-0.6,0-0.8,0.4L73,24.1z"/>
	<path class="st0" d="M47,95.9c0.1-0.3,0-0.6-0.4-0.8c-11.7-4.7-20.3-14.7-23-26.9c-4.4-20.5,9-40.8,29.9-45.1l0,0l-6.1,8.5
		c-0.2,0.2-0.2,0.7,0.2,0.8l7.1,4.5c0.2,0.2,0.6,0.1,0.8-0.2L69,17.3c0.1-0.1,0.1-0.3,0.1-0.4l-0.4-2c0-0.2-0.2-0.3-0.3-0.4
		l-20.3-12c-0.2-0.2-0.6-0.1-0.8,0.2l-4.6,7c-0.2,0.2-0.1,0.6,0.2,0.8l7.2,4.1c-25,6-40.7,30.6-35.4,55.4
		c3.3,15.1,13.9,27.5,28.5,33.3c0.3,0.1,0.6,0,0.8-0.4L47,95.9z"/>
</g>
</svg>
