<?xml version="1.0" encoding="utf-8"?>
<!-- Generator: Adobe Illustrator 21.0.0, SVG Export Plug-In . SVG Version: 6.00 Build 0)  -->
<svg version="1.1" id="Layer_1" xmlns="http://www.w3.org/2000/svg" xmlns:xlink="http://www.w3.org/1999/xlink" x="0px" y="0px"
	 viewBox="0 0 120 120" style="enable-background:new 0 0 120 120;" xml:space="preserve">
<style type="text/css">
	.st0{fill:#6FF34D;}
</style>
<g>
	<path class="st0" d="M65.7,22.3c-0.1,0.4,0.2,0.6,0.5,0.7C78.6,25.3,89,33.4,94,44.8c8.4,19.3-0.8,41.8-20.4,50.1l0,0l4.4-9.6
		c0.1-0.3,0-0.7-0.3-0.7l-7.8-3c-0.3-0.1-0.6,0.1-0.7,0.3l-9.4,21.6c-0.1,0.1-0.1,0.4,0,0.5l0.8,1.9c0.1,0.2,0.2,0.2,0.3,0.3L83,114
		c0.3,0.1,0.5,0,0.7-0.3l3-7.8c0.1-0.3-0.1-0.6-0.3-0.7l-7.9-2.6c23.3-10.8,33.9-38.1,23.7-61.3c-6.2-14.2-19.1-24.4-34.6-27.1
		c-0.4-0.1-0.6,0.2-0.7,0.5L65.7,22.3z"/>
	<path class="st0" d="M54.3,97.7c0.1-0.4-0.2-0.6-0.5-0.7C41.4,94.7,31,86.6,26,75.2c-8.4-19.3,0.8-41.8,20.4-50.1l0,0l-4.3,9.5
		c-0.1,0.3,0,0.7,0.3,0.7l7.8,3c0.3,0.1,0.6-0.1,0.7-0.3l9.4-21.6c0.1-0.1,0.1-0.4,0-0.5l-0.8-1.9c-0.1-0.2-0.2-0.2-0.3-0.3L37.1,6
		c-0.3-0.1-0.6,0.1-0.7,0.3l-3.1,7.8c-0.1,0.3,0.1,0.6,0.3,0.7l7.9,2.6C18.1,28.3,7.5,55.6,17.7,78.8c6.2,14.1,19,24.3,34.5,27
		c0.4,0.1,0.6-0.2,0.7-0.5L54.3,97.7z"/>
</g>
</svg>
