<?xml version="1.0" encoding="utf-8"?>
<!-- Generator: Adobe Illustrator 21.0.0, SVG Export Plug-In . SVG Version: 6.00 Build 0)  -->
<svg version="1.1" id="Layer_1" xmlns="http://www.w3.org/2000/svg" xmlns:xlink="http://www.w3.org/1999/xlink" x="0px" y="0px"
	 viewBox="0 0 120 120" style="enable-background:new 0 0 120 120;" xml:space="preserve">
<style type="text/css">
	.st0{fill:#6FF34D;}
</style>
<g>
	<path class="st0" d="M74.1,95.5c-0.1-0.3-0.4-0.4-0.8-0.3c-11.9,4.2-25,2.5-35-4.9c-17-12.4-20.3-36.5-7.6-53.6l0,0l1,10.4
		c0,0.3,0.3,0.6,0.7,0.5l8.3-1.4c0.3,0,0.5-0.4,0.5-0.7l-2.7-23.4c0-0.1-0.1-0.3-0.2-0.4l-1.6-1.2c-0.2-0.1-0.3-0.1-0.4-0.1L13,24.9
		c-0.3,0-0.5,0.3-0.5,0.7l1.3,8.2c0,0.3,0.4,0.5,0.7,0.5l8.2-1.7c-14.7,21.1-10.2,50,10.3,65c12.5,9.2,28.7,11.5,43.5,6.1
		c0.3-0.1,0.4-0.4,0.3-0.8L74.1,95.5z"/>
	<path class="st0" d="M45.9,24.5c0.1,0.3,0.4,0.4,0.8,0.3c11.9-4.2,25-2.5,35,4.9c17,12.4,20.3,36.5,7.6,53.6l0,0L88.2,73
		c0-0.3-0.3-0.6-0.7-0.5l-8.3,1.4c-0.3,0-0.5,0.4-0.5,0.7l2.7,23.4c0,0.1,0.1,0.3,0.2,0.4l1.6,1.2c0.2,0.1,0.3,0.1,0.4,0.1l23.1-4.4
		c0.3,0,0.5-0.4,0.5-0.7l-1.2-8.3c0-0.3-0.4-0.5-0.7-0.5l-8.2,1.7c14.7-21.1,10.2-50-10.3-65c-12.5-9.1-28.6-11.4-43.4-6
		c-0.3,0.1-0.4,0.4-0.3,0.8L45.9,24.5z"/>
</g>
</svg>
