<?xml version="1.0" encoding="utf-8"?>
<!-- Generator: Adobe Illustrator 21.0.0, SVG Export Plug-In . SVG Version: 6.00 Build 0)  -->
<svg version="1.1" id="Layer_1" xmlns="http://www.w3.org/2000/svg" xmlns:xlink="http://www.w3.org/1999/xlink" x="0px" y="0px"
	 viewBox="0 0 120 120" style="enable-background:new 0 0 120 120;" xml:space="preserve">
<style type="text/css">
	.st0{fill:#6FF34D;}
</style>
<g>
	<path class="st0" d="M93.3,41.4c-0.3,0.2-0.4,0.5-0.2,0.8c5.8,11.3,5.7,24.4-0.3,35.4c-10.1,18.4-33.5,24.9-52.2,14.5l0,0l10.2-2.4
		c0.3-0.1,0.6-0.4,0.4-0.7l-2.4-8c-0.1-0.3-0.4-0.5-0.7-0.4l-22.8,5.8c-0.1,0-0.3,0.2-0.4,0.3l-1,1.8c-0.1,0.2-0.1,0.3,0,0.5
		l7.4,22.4c0.1,0.3,0.3,0.4,0.7,0.4l8-2.3c0.3-0.1,0.5-0.4,0.4-0.7l-2.8-7.9c22.8,11.8,50.9,3.5,63-18.8c7.5-13.6,7.6-30,0.3-43.9
		c-0.2-0.3-0.5-0.4-0.8-0.2L93.3,41.4z"/>
	<path class="st0" d="M26.7,78.6c0.3-0.2,0.4-0.5,0.2-0.8c-5.8-11.3-5.7-24.4,0.3-35.4c10.1-18.4,33.5-24.9,52.2-14.5l0,0l-10.1,2.4
		c-0.3,0.1-0.6,0.4-0.4,0.7l2.4,8c0.1,0.3,0.4,0.5,0.7,0.4l22.8-5.8c0.1,0,0.3-0.2,0.4-0.3l1-1.8c0.1-0.2,0.1-0.3,0-0.5L88.7,8.8
		c-0.1-0.3-0.4-0.5-0.7-0.4l-8.1,2.3c-0.3,0.1-0.5,0.4-0.4,0.7l2.8,7.9c-22.8-11.8-50.9-3.5-63,18.8c-7.4,13.5-7.6,29.9-0.2,43.8
		c0.2,0.3,0.5,0.4,0.8,0.2L26.7,78.6z"/>
</g>
</svg>
