<?xml version="1.0" encoding="utf-8"?>
<!-- Generator: Adobe Illustrator 21.0.0, SVG Export Plug-In . SVG Version: 6.00 Build 0)  -->
<svg version="1.1" id="Layer_1" xmlns="http://www.w3.org/2000/svg" xmlns:xlink="http://www.w3.org/1999/xlink" x="0px" y="0px"
	 viewBox="0 0 120 120" style="enable-background:new 0 0 120 120;" xml:space="preserve">
<style type="text/css">
	.st0{fill:#6FF34D;}
</style>
<g>
	<path class="st0" d="M96.2,48.1c-0.4,0.1-0.5,0.4-0.4,0.8c3.5,12.1,1,25.1-7,34.7c-13.4,16.2-37.7,18.1-54,4.4l0,0l10.5-0.4
		c0.3,0,0.6-0.3,0.5-0.6l-0.9-8.4c0-0.3-0.3-0.5-0.6-0.5l-23.5,1.4c-0.1,0-0.4,0.1-0.4,0.2l-1.3,1.6c-0.1,0.2-0.1,0.3-0.1,0.4
		l3.1,23.4c0,0.3,0.3,0.5,0.6,0.5l8.3-0.8c0.3,0,0.5-0.3,0.5-0.6l-1.2-8.3c20.2,15.9,49.3,13.1,65.4-6.5c9.9-12,13.1-28,8.6-43.1
		c-0.1-0.4-0.4-0.5-0.8-0.4L96.2,48.1z"/>
	<path class="st0" d="M23.8,71.9c0.4-0.1,0.5-0.4,0.4-0.8c-3.5-12.1-1-25.1,7-34.7c13.4-16.2,37.7-18.1,54-4.4l0,0l-10.4,0.5
		c-0.3,0-0.6,0.3-0.5,0.6l0.9,8.4c0,0.3,0.3,0.5,0.6,0.5l23.5-1.4c0.1,0,0.4-0.1,0.4-0.2l1.3-1.6c0.1-0.2,0.1-0.3,0.1-0.4l-3.1-23.4
		c0-0.3-0.3-0.5-0.6-0.5l-8.4,0.7c-0.3,0-0.5,0.3-0.5,0.6l1.2,8.3C69.4,8.3,40.3,11.2,24.1,30.7c-9.8,11.9-13.1,27.9-8.6,43
		c0.1,0.4,0.4,0.5,0.8,0.4L23.8,71.9z"/>
</g>
</svg>
