<?xml version="1.0" encoding="utf-8"?>
<!-- Generator: Adobe Illustrator 21.0.0, SVG Export Plug-In . SVG Version: 6.00 Build 0)  -->
<svg version="1.1" id="Layer_1" xmlns="http://www.w3.org/2000/svg" xmlns:xlink="http://www.w3.org/1999/xlink" x="0px" y="0px"
	 viewBox="0 0 120 120" style="enable-background:new 0 0 120 120;" xml:space="preserve">
<style type="text/css">
	.st0{fill:#6FF34D;}
</style>
<g>
	<path class="st0" d="M27.6,80.1c0.3-0.2,0.4-0.5,0.2-0.8c-6.3-11-6.9-24.1-1.4-35.4C35.6,25,58.7,17.5,77.8,27l0,0l-10.1,2.9
		c-0.3,0.1-0.5,0.4-0.4,0.7l2.8,7.9c0.1,0.3,0.5,0.4,0.7,0.4L93.4,32c0.1,0,0.3-0.2,0.4-0.3l0.9-1.8c0.1-0.2,0-0.3,0-0.5l-8.5-22
		c-0.1-0.3-0.4-0.4-0.7-0.4l-7.9,2.7c-0.3,0.1-0.4,0.5-0.4,0.7l3.1,7.7C57,7.6,29.4,17.1,18.3,39.9c-6.8,14-6.2,30.3,1.7,43.9
		c0.2,0.3,0.5,0.4,0.8,0.2L27.6,80.1z"/>
	<path class="st0" d="M92.4,39.9c-0.3,0.2-0.4,0.5-0.2,0.8c6.3,11,6.9,24.1,1.4,35.4C84.4,95,61.3,102.5,42.2,93l0,0l10-2.9
		c0.3-0.1,0.5-0.4,0.4-0.7l-2.8-7.9c-0.1-0.3-0.5-0.4-0.7-0.4l-22.6,6.8c-0.1,0-0.3,0.2-0.4,0.3L25.2,90c-0.1,0.2,0,0.3,0,0.5
		l8.5,22c0.1,0.3,0.5,0.4,0.7,0.4l8-2.7c0.3-0.1,0.4-0.5,0.4-0.7l-3.1-7.7c23.3,10.7,51,1.2,62.1-21.6c6.8-13.9,6.2-30.2-1.8-43.8
		c-0.2-0.3-0.5-0.4-0.8-0.2L92.4,39.9z"/>
</g>
</svg>
