<?xml version="1.0" encoding="utf-8"?>
<!-- Generator: Adobe Illustrator 21.0.0, SVG Export Plug-In . SVG Version: 6.00 Build 0)  -->
<svg version="1.1" id="Layer_1" xmlns="http://www.w3.org/2000/svg" xmlns:xlink="http://www.w3.org/1999/xlink" x="0px" y="0px"
	 viewBox="0 0 120 120" style="enable-background:new 0 0 120 120;" xml:space="preserve">
<style type="text/css">
	.st0{fill:#6FF34D;}
</style>
<g>
	<path class="st0" d="M36.1,89.7c0.2-0.3,0.2-0.6-0.1-0.8c-9.6-8.3-14.5-20.5-13-32.9c2.5-20.9,21.8-35.7,42.9-33l0,0l-8.6,6
		c-0.2,0.2-0.4,0.6-0.1,0.8l5.3,6.6c0.2,0.2,0.6,0.3,0.8,0.1l19-13.9c0.1-0.1,0.2-0.3,0.2-0.4l0.2-2c0-0.2-0.1-0.3-0.2-0.4l-15.3-18
		c-0.2-0.2-0.5-0.3-0.8-0.1L60,6.8c-0.2,0.2-0.3,0.6-0.1,0.8l5.5,6.3C39.9,11.5,17,29.7,14,54.9c-1.8,15.4,4.2,30.7,16.1,40.9
		c0.3,0.2,0.6,0.2,0.8-0.1L36.1,89.7z"/>
	<path class="st0" d="M83.9,30.3c-0.2,0.3-0.2,0.6,0.1,0.8c9.6,8.3,14.5,20.5,13,32.9c-2.5,20.9-21.8,35.7-42.9,33l0,0l8.5-6.1
		c0.2-0.2,0.4-0.6,0.1-0.8l-5.3-6.6c-0.2-0.2-0.6-0.3-0.8-0.1l-19,13.9c-0.1,0.1-0.2,0.3-0.2,0.4l-0.2,2c0,0.2,0.1,0.3,0.2,0.4
		l15.3,18c0.2,0.2,0.6,0.3,0.8,0.1l6.6-5.1c0.2-0.2,0.3-0.6,0.1-0.8l-5.5-6.3c25.6,2.4,48.5-15.8,51.5-41
		c1.8-15.3-4.2-30.5-16.2-40.8c-0.3-0.2-0.6-0.2-0.8,0.1L83.9,30.3z"/>
</g>
</svg>
