<?xml version="1.0" encoding="utf-8"?>
<!-- Generator: Adobe Illustrator 21.0.0, SVG Export Plug-In . SVG Version: 6.00 Build 0)  -->
<svg version="1.1" id="Layer_1" xmlns="http://www.w3.org/2000/svg" xmlns:xlink="http://www.w3.org/1999/xlink" x="0px" y="0px"
	 viewBox="0 0 120 120" style="enable-background:new 0 0 120 120;" xml:space="preserve">
<style type="text/css">
	.st0{fill:#6FF34D;}
</style>
<g>
	<path class="st0" d="M84.9,31.1c-0.2,0.3-0.2,0.6,0.1,0.8c9.3,8.6,13.8,21,11.9,33.3C93.8,86,74,100.2,52.9,96.8l0,0l8.8-5.8
		c0.2-0.2,0.4-0.6,0.1-0.8l-5-6.7c-0.2-0.2-0.6-0.3-0.8-0.1L36.5,96.7c-0.1,0.1-0.2,0.3-0.3,0.4l-0.3,2c0,0.2,0.1,0.3,0.1,0.4
		L50.8,118c0.2,0.2,0.5,0.3,0.8,0.1l6.7-4.9c0.2-0.2,0.3-0.6,0.1-0.8l-5.3-6.4c25.5,3.2,49-14.2,52.7-39.3
		c2.3-15.4-3.2-30.8-14.8-41.4c-0.3-0.2-0.6-0.2-0.8,0.1L84.9,31.1z"/>
	<path class="st0" d="M35.1,88.9c0.2-0.3,0.2-0.6-0.1-0.8c-9.3-8.6-13.8-21-11.9-33.3C26.2,34,46,19.8,67.1,23.2l0,0L58.4,29
		c-0.2,0.2-0.4,0.6-0.1,0.8l5,6.7c0.2,0.2,0.6,0.3,0.8,0.1l19.5-13.3c0.1-0.1,0.2-0.3,0.3-0.4l0.3-2c0-0.2-0.1-0.3-0.1-0.4L69.3,2.1
		c-0.2-0.2-0.6-0.3-0.8-0.1l-6.8,4.9c-0.2,0.2-0.3,0.6-0.1,0.8l5.3,6.4c-25.5-3.2-49,14.2-52.7,39.3C11.9,68.7,17.4,84.1,29,94.7
		c0.3,0.2,0.6,0.2,0.8-0.1L35.1,88.9z"/>
</g>
</svg>
