<?xml version="1.0" encoding="utf-8"?>
<!-- Generator: Adobe Illustrator 21.0.0, SVG Export Plug-In . SVG Version: 6.00 Build 0)  -->
<svg version="1.1" id="Layer_1" xmlns="http://www.w3.org/2000/svg" xmlns:xlink="http://www.w3.org/1999/xlink" x="0px" y="0px"
	 viewBox="0 0 120 120" style="enable-background:new 0 0 120 120;" xml:space="preserve">
<style type="text/css">
	.st0{fill:#6FF34D;}
</style>
<g>
	<path class="st0" d="M22.5,67c0.4-0.1,0.5-0.3,0.5-0.7c-1.9-12.5,2.4-25,11.6-33.4C50,18.6,74.3,19.9,88.6,35.7l0,0l-10.5-1
		c-0.3,0-0.7,0.2-0.6,0.6l-0.3,8.4c0,0.3,0.3,0.6,0.6,0.6l23.5,1.8c0.1,0,0.4-0.1,0.4-0.1l1.5-1.4c0.1-0.1,0.2-0.3,0.2-0.4l0.1-23.6
		c0-0.3-0.2-0.5-0.6-0.6l-8.3-0.3c-0.3,0-0.6,0.3-0.6,0.6l0.1,8.3C76.2,10.1,47,9,28.4,26.2C17,36.7,11.6,52.2,14.1,67.7
		c0.1,0.4,0.3,0.5,0.7,0.5L22.5,67z"/>
	<path class="st0" d="M97.5,53c-0.4,0.1-0.5,0.3-0.5,0.7c1.9,12.5-2.4,25-11.6,33.4c-15.4,14.3-39.8,12.9-54.1-2.9l0,0l10.4,0.9
		c0.3,0,0.7-0.2,0.6-0.6l0.3-8.4c0-0.3-0.3-0.6-0.6-0.6l-23.5-1.8c-0.1,0-0.4,0.1-0.4,0.1l-1.5,1.4c-0.1,0.1-0.2,0.3-0.2,0.4
		l-0.1,23.6c0,0.3,0.3,0.6,0.6,0.6l8.4,0.4c0.3,0,0.6-0.3,0.6-0.6l-0.1-8.3C43.8,109.9,73,111,91.6,93.8
		c11.3-10.5,16.7-25.9,14.2-41.5c-0.1-0.4-0.3-0.5-0.7-0.5L97.5,53z"/>
</g>
</svg>
