<?xml version="1.0" encoding="utf-8"?>
<!-- Generator: Adobe Illustrator 21.0.0, SVG Export Plug-In . SVG Version: 6.00 Build 0)  -->
<svg version="1.1" id="Layer_1" xmlns="http://www.w3.org/2000/svg" xmlns:xlink="http://www.w3.org/1999/xlink" x="0px" y="0px"
	 viewBox="0 0 120 120" style="enable-background:new 0 0 120 120;" xml:space="preserve">
<style type="text/css">
	.st0{fill:#6FF34D;}
</style>
<g>
	<path class="st0" d="M97.5,66.7c-0.4-0.1-0.6,0.1-0.7,0.5c-2.7,12.4-11,22.5-22.6,27.2c-19.5,7.9-41.8-1.9-49.6-21.8l0,0l9.4,4.6
		c0.3,0.1,0.7,0.1,0.8-0.3l3.2-7.8c0.1-0.3,0-0.6-0.3-0.8l-21.3-10c-0.1-0.1-0.4-0.1-0.5,0l-1.9,0.8c-0.2,0.1-0.2,0.2-0.3,0.3
		l-8.4,22c-0.1,0.3,0,0.5,0.3,0.8l7.7,3.2c0.3,0.1,0.6,0,0.8-0.3l2.9-7.8c10.2,23.6,37.1,34.9,60.7,25.4
		C92.1,97,102.5,84.4,105.7,69c0.1-0.4-0.1-0.6-0.5-0.7L97.5,66.7z"/>
	<path class="st0" d="M22.5,53.3c0.4,0.1,0.6-0.1,0.7-0.5c2.7-12.4,11-22.5,22.6-27.2c19.5-7.9,41.8,1.9,49.6,21.8l0,0l-9.4-4.5
		c-0.3-0.1-0.7-0.1-0.8,0.3l-3.2,7.8c-0.1,0.3,0,0.6,0.3,0.8l21.3,10c0.1,0.1,0.4,0.1,0.5,0l1.9-0.8c0.2-0.1,0.2-0.2,0.3-0.3l8.4-22
		c0.1-0.3,0-0.6-0.3-0.8l-7.7-3.3c-0.3-0.1-0.6,0-0.8,0.3l-2.9,7.8C92.8,19,65.9,7.7,42.3,17.2C28,23,17.6,35.5,14.4,51
		c-0.1,0.4,0.1,0.6,0.5,0.7L22.5,53.3z"/>
</g>
</svg>
