<?xml version="1.0" encoding="utf-8"?>
<!-- Generator: Adobe Illustrator 21.0.0, SVG Export Plug-In . SVG Version: 6.00 Build 0)  -->
<svg version="1.1" id="Layer_1" xmlns="http://www.w3.org/2000/svg" xmlns:xlink="http://www.w3.org/1999/xlink" x="0px" y="0px"
	 viewBox="0 0 120 120" style="enable-background:new 0 0 120 120;" xml:space="preserve">
<style type="text/css">
	.st0{fill:#6FF34D;}
</style>
<g>
	<path class="st0" d="M26.3,42.2c0.3,0.2,0.6,0.1,0.8-0.3c6.3-11,17.4-18.1,29.8-19.1c21-1.6,39.2,14.5,40.6,35.8l0,0l-7.6-7.3
		c-0.2-0.2-0.6-0.3-0.8,0.1l-5.4,6.4c-0.2,0.2-0.2,0.6,0.1,0.8l17.3,16c0.1,0.1,0.3,0.2,0.4,0.2l2-0.2c0.2,0,0.3-0.1,0.4-0.2
		l14.7-18.4c0.2-0.2,0.2-0.5-0.1-0.8l-6.3-5.4c-0.2-0.2-0.6-0.2-0.8,0.1l-5.1,6.6c-2.6-25.6-24.8-44.6-50.1-42.6
		c-15.5,1.2-29.3,10-37,23.7c-0.2,0.3-0.1,0.6,0.3,0.8L26.3,42.2z"/>
	<path class="st0" d="M93.7,77.8c-0.3-0.2-0.6-0.1-0.8,0.3c-6.3,11-17.4,18.1-29.8,19.1c-21,1.6-39.2-14.5-40.6-35.8l0,0l7.6,7.2
		c0.2,0.2,0.6,0.3,0.8-0.1l5.4-6.4c0.2-0.2,0.2-0.6-0.1-0.8L19,45.2c-0.1-0.1-0.3-0.2-0.4-0.2l-2,0.2c-0.2,0-0.3,0.1-0.4,0.2
		L1.4,63.8c-0.2,0.2-0.2,0.6,0.1,0.8l6.3,5.5c0.2,0.2,0.6,0.2,0.8-0.1l5.1-6.6c2.6,25.6,24.8,44.6,50.1,42.6
		c15.4-1.2,29.2-10,36.9-23.7c0.2-0.3,0.1-0.6-0.3-0.8L93.7,77.8z"/>
</g>
</svg>
