<?xml version="1.0" encoding="utf-8"?>
<!-- Generator: Adobe Illustrator 21.0.0, SVG Export Plug-In . SVG Version: 6.00 Build 0)  -->
<svg version="1.1" id="Layer_1" xmlns="http://www.w3.org/2000/svg" xmlns:xlink="http://www.w3.org/1999/xlink" x="0px" y="0px"
	 viewBox="0 0 120 120" style="enable-background:new 0 0 120 120;" xml:space="preserve">
<style type="text/css">
	.st0{fill:#6FF34D;}
</style>
<g>
	<path class="st0" d="M91.1,82c-0.3-0.2-0.6-0.1-0.8,0.2c-7.7,10.1-19.6,15.7-32,15c-21-1.2-37-19.5-35.6-40.8l0,0l6.6,8.2
		c0.2,0.2,0.6,0.3,0.8,0l6.2-5.7c0.2-0.2,0.2-0.6,0-0.8L21.2,40.1c-0.1-0.1-0.3-0.2-0.4-0.2l-2-0.1c-0.2,0-0.3,0.1-0.4,0.2l-17,16.4
		c-0.2,0.2-0.2,0.5,0,0.8l5.6,6.2c0.2,0.2,0.6,0.2,0.8,0l5.9-5.9c-0.8,25.7,18.7,47.4,44.1,48.8c15.5,0.9,30.3-6.1,39.8-18.7
		c0.2-0.3,0.1-0.6-0.2-0.8L91.1,82z"/>
	<path class="st0" d="M28.9,38c0.3,0.2,0.6,0.1,0.8-0.2c7.7-10.1,19.6-15.7,32-15c21,1.2,37,19.5,35.6,40.8l0,0l-6.6-8.1
		c-0.2-0.2-0.6-0.3-0.8,0l-6.2,5.7c-0.2,0.2-0.2,0.6,0,0.8L98.8,80c0.1,0.1,0.3,0.2,0.4,0.2l2,0.1c0.2,0,0.3-0.1,0.4-0.2l17-16.4
		c0.2-0.2,0.2-0.6,0-0.8l-5.6-6.3c-0.2-0.2-0.6-0.2-0.8,0l-5.9,5.9c0.8-25.7-18.7-47.4-44.1-48.8C46.8,12.9,32,19.8,22.6,32.4
		c-0.2,0.3-0.1,0.6,0.2,0.8L28.9,38z"/>
</g>
</svg>
