<?xml version="1.0" encoding="utf-8"?>
<!-- Generator: Adobe Illustrator 21.0.0, SVG Export Plug-In . SVG Version: 6.00 Build 0)  -->
<svg version="1.1" id="Layer_1" xmlns="http://www.w3.org/2000/svg" xmlns:xlink="http://www.w3.org/1999/xlink" x="0px" y="0px"
	 viewBox="0 0 120 120" style="enable-background:new 0 0 120 120;" xml:space="preserve">
<style type="text/css">
	.st0{fill:#6FF34D;}
</style>
<g>
	<path class="st0" d="M97.5,53.3c-0.4,0.1-0.5,0.3-0.5,0.7c1.8,12.5-2.5,25-11.8,33.4c-15.5,14.2-39.8,12.7-54-3.2l0,0l10.4,1.1
		c0.3,0,0.7-0.2,0.6-0.5l0.3-8.4c0-0.3-0.3-0.6-0.5-0.6l-23.5-2c-0.1,0-0.4,0.1-0.4,0.1l-1.5,1.4c-0.2,0.1-0.2,0.3-0.2,0.4
		l-0.2,23.6c0,0.3,0.2,0.5,0.5,0.6l8.3,0.4c0.3,0,0.6-0.3,0.6-0.5l0-8.3c17.8,18.6,46.9,19.9,65.7,2.8
		c11.5-10.5,16.9-25.9,14.6-41.4c-0.1-0.4-0.3-0.5-0.7-0.5L97.5,53.3z"/>
	<path class="st0" d="M22.5,66.7c0.4-0.1,0.5-0.3,0.5-0.7c-1.8-12.5,2.5-25,11.8-33.4c15.5-14.2,39.8-12.7,54,3.2l0,0l-10.4-1
		c-0.3,0-0.7,0.2-0.6,0.5l-0.3,8.4c0,0.3,0.3,0.6,0.5,0.6l23.5,2c0.1,0,0.4-0.1,0.4-0.1l1.5-1.4c0.2-0.1,0.2-0.3,0.2-0.4l0.2-23.6
		c0-0.3-0.3-0.6-0.5-0.6l-8.4-0.5c-0.3,0-0.6,0.3-0.6,0.5l0,8.3C76.5,10.2,47.4,8.9,28.6,26C17.2,36.4,11.7,51.8,14.1,67.4
		c0.1,0.4,0.3,0.5,0.7,0.5L22.5,66.7z"/>
</g>
</svg>
