<?xml version="1.0" encoding="utf-8"?>
<!-- Generator: Adobe Illustrator 21.0.0, SVG Export Plug-In . SVG Version: 6.00 Build 0)  -->
<svg version="1.1" id="Layer_1" xmlns="http://www.w3.org/2000/svg" xmlns:xlink="http://www.w3.org/1999/xlink" x="0px" y="0px"
	 viewBox="0 0 120 120" style="enable-background:new 0 0 120 120;" xml:space="preserve">
<style type="text/css">
	.st0{fill:#6FF34D;}
</style>
<g>
	<path class="st0" d="M30.3,36c0.3,0.2,0.6,0.2,0.8-0.1c8.3-9.6,20.5-14.4,32.9-13c20.9,2.5,35.7,21.8,33,43l0,0l-6-8.6
		c-0.2-0.2-0.6-0.4-0.8-0.1l-6.6,5.3c-0.2,0.2-0.3,0.6-0.1,0.8l13.9,19c0.1,0.1,0.3,0.2,0.4,0.2l2,0.2c0.2,0,0.3-0.1,0.4-0.2
		l18-15.3c0.2-0.2,0.3-0.5,0.1-0.8l-5.2-6.5c-0.2-0.2-0.6-0.3-0.8-0.1l-6.3,5.5C108.5,39.9,90.3,17,65.1,14
		c-15.4-1.8-30.7,4.1-40.9,16.1c-0.2,0.3-0.2,0.6,0.1,0.8L30.3,36z"/>
	<path class="st0" d="M89.7,84c-0.3-0.2-0.6-0.2-0.8,0.1c-8.3,9.6-20.5,14.4-32.9,13c-20.9-2.5-35.7-21.8-33-43l0,0l6.1,8.5
		c0.2,0.2,0.6,0.4,0.8,0.1l6.6-5.3c0.2-0.2,0.3-0.6,0.1-0.8l-13.9-19c-0.1-0.1-0.3-0.2-0.4-0.2l-2-0.2c-0.2,0-0.3,0.1-0.4,0.2
		l-18,15.3c-0.2,0.2-0.3,0.6-0.1,0.8l5.1,6.6C7,60.2,7.4,60.2,7.6,60l6.3-5.5C11.5,80.1,29.7,103,54.9,106
		c15.3,1.8,30.6-4.2,40.8-16.1c0.2-0.3,0.2-0.6-0.1-0.8L89.7,84z"/>
</g>
</svg>
