<?xml version="1.0" encoding="utf-8"?>
<!-- Generator: Adobe Illustrator 21.0.0, SVG Export Plug-In . SVG Version: 6.00 Build 0)  -->
<svg version="1.1" id="Layer_1" xmlns="http://www.w3.org/2000/svg" xmlns:xlink="http://www.w3.org/1999/xlink" x="0px" y="0px"
	 viewBox="0 0 120 120" style="enable-background:new 0 0 120 120;" xml:space="preserve">
<style type="text/css">
	.st0{fill:#6FF34D;}
</style>
<g>
	<path class="st0" d="M89.6,35.9c-0.3,0.2-0.3,0.5-0.1,0.8c7.6,10.1,9.9,23.1,5.9,34.9C88.7,91.5,66.7,102,46.6,95l0,0l9.6-4.1
		c0.3-0.1,0.5-0.5,0.3-0.8l-3.8-7.5c-0.1-0.3-0.5-0.4-0.8-0.3L30.5,92c-0.1,0.1-0.3,0.2-0.3,0.3l-0.6,1.9c-0.1,0.2,0,0.3,0.1,0.4
		l11.2,20.7c0.1,0.3,0.4,0.4,0.8,0.3L49,112c0.3-0.1,0.4-0.5,0.3-0.8l-4.1-7.3c24.5,7.6,50.7-5.4,58.8-29.5
		c5-14.7,2.2-30.8-7.4-43.3c-0.2-0.3-0.5-0.3-0.8-0.1L89.6,35.9z"/>
	<path class="st0" d="M30.4,84.1c0.3-0.2,0.3-0.5,0.1-0.8c-7.6-10.1-9.9-23.1-5.9-34.9C31.3,28.5,53.3,18,73.4,25l0,0l-9.5,4.2
		c-0.3,0.1-0.5,0.5-0.3,0.8l3.8,7.5c0.1,0.3,0.5,0.4,0.8,0.3L89.6,28c0.1-0.1,0.3-0.2,0.3-0.3l0.6-1.9c0.1-0.2,0-0.3-0.1-0.4
		L79.3,4.6c-0.1-0.3-0.5-0.4-0.8-0.3L71,8c-0.3,0.1-0.4,0.5-0.3,0.8l4.1,7.3C50.3,8.4,24.1,21.5,16,45.5
		c-4.9,14.6-2.2,30.8,7.4,43.2c0.2,0.3,0.5,0.3,0.8,0.1L30.4,84.1z"/>
</g>
</svg>
