<?xml version="1.0" encoding="utf-8"?>
<!-- Generator: Adobe Illustrator 21.0.0, SVG Export Plug-In . SVG Version: 6.00 Build 0)  -->
<svg version="1.1" id="Layer_1" xmlns="http://www.w3.org/2000/svg" xmlns:xlink="http://www.w3.org/1999/xlink" x="0px" y="0px"
	 viewBox="0 0 120 120" style="enable-background:new 0 0 120 120;" xml:space="preserve">
<style type="text/css">
	.st0{fill:#6FF34D;}
</style>
<g>
	<path class="st0" d="M85.8,88.1c-0.2-0.3-0.6-0.3-0.8,0c-9.6,8.2-22.4,11.3-34.5,8c-20.3-5.5-32-26.8-26.2-47.4l0,0l4.7,9.4
		c0.1,0.2,0.5,0.5,0.8,0.2L37,54c0.2-0.1,0.4-0.5,0.2-0.8L26.3,32.4c-0.1-0.1-0.2-0.3-0.3-0.3l-2-0.5c-0.2-0.1-0.3,0-0.4,0.1
		l-20,12.4c-0.2,0.1-0.3,0.4-0.2,0.8l4.1,7.2c0.1,0.2,0.5,0.4,0.8,0.2l7-4.5c-6.2,24.9,8.4,50.3,32.9,56.9c15,4.1,30.9,0.4,42.8-9.9
		c0.3-0.2,0.3-0.6,0-0.8L85.8,88.1z"/>
	<path class="st0" d="M34.2,31.9c0.2,0.3,0.6,0.3,0.8,0c9.6-8.2,22.4-11.3,34.5-8c20.3,5.5,32,26.8,26.2,47.4l0,0L91,62
		c-0.1-0.2-0.5-0.5-0.8-0.2L83,66c-0.2,0.1-0.4,0.5-0.2,0.8l10.9,20.9c0.1,0.1,0.2,0.3,0.3,0.3l2,0.5c0.2,0.1,0.3,0,0.4-0.1l20-12.4
		c0.2-0.1,0.4-0.5,0.2-0.8l-4.1-7.3c-0.1-0.2-0.5-0.4-0.8-0.2l-7,4.5c6.2-24.9-8.4-50.3-32.9-56.9C57,11.2,41,14.8,29.2,25.2
		c-0.3,0.2-0.3,0.6,0,0.8L34.2,31.9z"/>
</g>
</svg>
