<?xml version="1.0" encoding="utf-8"?>
<!-- Generator: Adobe Illustrator 21.0.0, SVG Export Plug-In . SVG Version: 6.00 Build 0)  -->
<svg version="1.1" id="Layer_1" xmlns="http://www.w3.org/2000/svg" xmlns:xlink="http://www.w3.org/1999/xlink" x="0px" y="0px"
	 viewBox="0 0 120 120" style="enable-background:new 0 0 120 120;" xml:space="preserve">
<style type="text/css">
	.st0{fill:#6FF34D;}
</style>
<g>
	<path class="st0" d="M61.3,98.1c0-0.4-0.3-0.6-0.6-0.6c-12.6,0-24.4-6.1-31.4-16.4c-11.8-17.4-6.9-41.2,10.9-53l0,0l-2.5,10.2
		c-0.1,0.3,0.1,0.7,0.5,0.7l8.3,1.5c0.3,0.1,0.6-0.2,0.7-0.5l5.3-23c0-0.1,0-0.4-0.1-0.5L51.2,15c-0.1-0.2-0.3-0.2-0.4-0.2
		l-23.3-3.6c-0.3-0.1-0.5,0.1-0.7,0.5l-1.6,8.2c-0.1,0.3,0.2,0.6,0.5,0.7l8.3,1.1C13,36.5,7.6,65.2,21.9,86.2
		c8.7,12.9,23.2,20.5,38.9,20.3c0.4,0,0.6-0.3,0.6-0.6L61.3,98.1z"/>
	<path class="st0" d="M58.7,21.9c0,0.4,0.3,0.6,0.6,0.6c12.6,0,24.4,6.1,31.4,16.4c11.8,17.4,6.9,41.2-10.9,53l0,0l2.5-10.1
		c0.1-0.3-0.1-0.7-0.5-0.7l-8.3-1.5c-0.3-0.1-0.6,0.2-0.7,0.5l-5.3,23c0,0.1,0,0.4,0.1,0.5l1.1,1.7c0.1,0.2,0.3,0.2,0.4,0.2
		l23.3,3.6c0.3,0.1,0.6-0.2,0.7-0.5l1.7-8.2c0.1-0.3-0.2-0.6-0.5-0.7L86,98.4c20.9-14.9,26.3-43.6,12.1-64.6
		C89.5,21,75,13.4,59.3,13.5c-0.4,0-0.6,0.3-0.6,0.6L58.7,21.9z"/>
</g>
</svg>
