<?xml version="1.0" encoding="utf-8"?>
<!-- Generator: Adobe Illustrator 21.0.0, SVG Export Plug-In . SVG Version: 6.00 Build 0)  -->
<svg version="1.1" id="Layer_1" xmlns="http://www.w3.org/2000/svg" xmlns:xlink="http://www.w3.org/1999/xlink" x="0px" y="0px"
	 viewBox="0 0 120 120" style="enable-background:new 0 0 120 120;" xml:space="preserve">
<style type="text/css">
	.st0{fill:#6FF34D;}
</style>
<g>
	<path class="st0" d="M92.3,80.3c-0.3-0.2-0.6-0.1-0.8,0.2C84.4,91,72.8,97.3,60.3,97.3c-21,0-38-17.5-37.8-38.8l0,0l7,7.8
		c0.2,0.2,0.6,0.3,0.8,0l5.9-6c0.2-0.2,0.2-0.6,0-0.8l-16-17.3c-0.1-0.1-0.3-0.2-0.4-0.2h-2c-0.2,0-0.3,0.1-0.4,0.2l-16,17.3
		c-0.2,0.2-0.2,0.5,0,0.8l5.9,5.9c0.2,0.2,0.6,0.2,0.8,0l5.6-6.2c0.6,25.7,21.3,46.3,46.7,46.3c15.5,0,30-7.7,38.7-20.8
		c0.2-0.3,0.1-0.6-0.2-0.8L92.3,80.3z"/>
	<path class="st0" d="M27.7,39.7c0.3,0.2,0.6,0.1,0.8-0.2C35.6,29,47.2,22.7,59.7,22.7c21,0,38,17.5,37.8,38.8l0,0l-7-7.7
		c-0.2-0.2-0.6-0.3-0.8,0l-5.9,6c-0.2,0.2-0.2,0.6,0,0.8l16,17.3c0.1,0.1,0.3,0.2,0.4,0.2h2c0.2,0,0.3-0.1,0.4-0.2l16-17.3
		c0.2-0.2,0.2-0.6,0-0.8l-5.9-6c-0.2-0.2-0.6-0.2-0.8,0l-5.6,6.2c-0.6-25.7-21.3-46.3-46.7-46.3c-15.4,0-29.9,7.7-38.6,20.8
		c-0.2,0.3-0.1,0.6,0.2,0.8L27.7,39.7z"/>
</g>
</svg>
