<?xml version="1.0" encoding="utf-8"?>
<!-- Generator: Adobe Illustrator 21.0.0, SVG Export Plug-In . SVG Version: 6.00 Build 0)  -->
<svg version="1.1" id="Layer_1" xmlns="http://www.w3.org/2000/svg" xmlns:xlink="http://www.w3.org/1999/xlink" x="0px" y="0px"
	 viewBox="0 0 120 120" style="enable-background:new 0 0 120 120;" xml:space="preserve">
<style type="text/css">
	.st0{fill:#6FF34D;}
</style>
<g>
	<path class="st0" d="M59.4,21.9c0,0.4,0.2,0.6,0.6,0.6c12.6,0.2,24.2,6.5,31.1,17c11.5,17.6,6.1,41.4-11.9,52.8l0,0l2.7-10.1
		c0.1-0.3-0.1-0.7-0.4-0.7l-8.2-1.7c-0.3-0.1-0.6,0.2-0.7,0.4L66.8,103c0,0.1,0,0.4,0.1,0.5l1.1,1.7c0.1,0.2,0.3,0.2,0.4,0.2l23.2,4
		c0.3,0.1,0.5-0.1,0.7-0.4l1.7-8.1c0.1-0.3-0.2-0.6-0.4-0.7l-8.2-1.3c21.2-14.5,27.2-43.1,13.3-64.4c-8.5-13-22.8-20.9-38.6-21
		c-0.4,0-0.6,0.2-0.6,0.6L59.4,21.9z"/>
	<path class="st0" d="M60.6,98.1c0-0.4-0.2-0.6-0.6-0.6c-12.6-0.2-24.2-6.5-31.1-17C17.5,63,22.8,39.2,40.8,27.8l0,0l-2.6,10.1
		c-0.1,0.3,0.1,0.7,0.4,0.7l8.2,1.7c0.3,0.1,0.6-0.2,0.7-0.4l5.7-22.9c0-0.1,0-0.4-0.1-0.5l-1.1-1.7c-0.1-0.2-0.3-0.2-0.4-0.2
		l-23.2-4c-0.3-0.1-0.6,0.2-0.7,0.4L26,19.1c-0.1,0.3,0.2,0.6,0.4,0.7l8.2,1.3C13.5,35.7,7.5,64.3,21.4,85.5
		c8.4,12.9,22.8,20.8,38.5,21c0.4,0,0.6-0.2,0.6-0.6L60.6,98.1z"/>
</g>
</svg>
