<?xml version="1.0" encoding="utf-8"?>
<!-- Generator: Adobe Illustrator 21.0.0, SVG Export Plug-In . SVG Version: 6.00 Build 0)  -->
<svg version="1.1" id="Layer_1" xmlns="http://www.w3.org/2000/svg" xmlns:xlink="http://www.w3.org/1999/xlink" x="0px" y="0px"
	 viewBox="0 0 120 120" style="enable-background:new 0 0 120 120;" xml:space="preserve">
<style type="text/css">
	.st0{fill:#6FF34D;}
</style>
<g>
	<path class="st0" d="M52.8,22.5c0.1,0.4,0.3,0.5,0.7,0.5c12.5-1.9,25,2.2,33.5,11.4c14.3,15.4,13.1,39.7-2.6,54.1l0,0L85.4,78
		c0-0.3-0.2-0.7-0.6-0.6l-8.4-0.2c-0.3,0-0.6,0.3-0.6,0.6l-1.7,23.5c0,0.1,0.1,0.4,0.1,0.4l1.4,1.5c0.1,0.1,0.3,0.2,0.4,0.2l23.6,0
		c0.3,0,0.5-0.2,0.6-0.6l0.3-8.3c0-0.3-0.3-0.6-0.6-0.6l-8.3,0.1c18.4-18,19.3-47.2,2-65.7C83.1,16.8,67.6,11.6,52,14.1
		c-0.4,0.1-0.5,0.3-0.5,0.7L52.8,22.5z"/>
	<path class="st0" d="M67.2,97.5c-0.1-0.4-0.3-0.5-0.7-0.5C54,98.9,41.5,94.8,33,85.6C18.6,70.3,19.8,46,35.6,31.6l0,0l-0.9,10.4
		c0,0.3,0.2,0.7,0.6,0.6l8.4,0.2c0.3,0,0.6-0.3,0.6-0.6l1.7-23.5c0-0.1-0.1-0.4-0.1-0.4l-1.4-1.5c-0.1-0.1-0.3-0.2-0.4-0.2l-23.6,0
		c-0.3,0-0.6,0.3-0.6,0.6l-0.4,8.4c0,0.3,0.3,0.6,0.6,0.6l8.3-0.1C10,44,9,73.2,26.3,91.8c10.5,11.3,26,16.6,41.5,14
		c0.4-0.1,0.5-0.3,0.5-0.7L67.2,97.5z"/>
</g>
</svg>
