<?xml version="1.0" encoding="utf-8"?>
<!-- Generator: Adobe Illustrator 21.0.0, SVG Export Plug-In . SVG Version: 6.00 Build 0)  -->
<svg version="1.1" id="Layer_1" xmlns="http://www.w3.org/2000/svg" xmlns:xlink="http://www.w3.org/1999/xlink" x="0px" y="0px"
	 viewBox="0 0 120 120" style="enable-background:new 0 0 120 120;" xml:space="preserve">
<style type="text/css">
	.st0{fill:#6FF34D;}
</style>
<g>
	<path class="st0" d="M98.1,59.3c-0.4,0-0.6,0.2-0.6,0.6C97.4,72.5,91.1,84.1,80.7,91c-17.6,11.5-41.3,6.2-52.9-11.7l0,0L38,82
		c0.3,0.1,0.7-0.1,0.7-0.4l1.6-8.2c0.1-0.3-0.2-0.6-0.4-0.7L17,67c-0.1,0-0.4,0-0.5,0.1l-1.7,1.1c-0.2,0.1-0.2,0.3-0.2,0.4
		l-3.9,23.2c-0.1,0.3,0.1,0.5,0.4,0.7l8.2,1.7c0.3,0.1,0.6-0.2,0.7-0.4l1.3-8.2c14.6,21.1,43.2,27,64.4,13.1
		c13-8.5,20.8-22.9,20.9-38.6c0-0.4-0.2-0.6-0.6-0.6L98.1,59.3z"/>
	<path class="st0" d="M21.9,60.7c0.4,0,0.6-0.2,0.6-0.6c0.2-12.6,6.4-24.3,16.9-31.1c17.6-11.5,41.3-6.2,52.9,11.7l0,0l-10.1-2.6
		c-0.3-0.1-0.7,0.1-0.7,0.4l-1.6,8.2c-0.1,0.3,0.2,0.6,0.4,0.7l22.9,5.6c0.1,0,0.4,0,0.5-0.1l1.7-1.1c0.2-0.1,0.2-0.3,0.2-0.4
		l3.9-23.2c0.1-0.3-0.2-0.6-0.4-0.7l-8.2-1.8c-0.3-0.1-0.6,0.2-0.7,0.4l-1.3,8.2c-14.6-21.1-43.2-27-64.4-13.1
		C21.4,29.9,13.6,44.3,13.5,60c0,0.4,0.2,0.6,0.6,0.6L21.9,60.7z"/>
</g>
</svg>
