<?xml version="1.0" encoding="utf-8"?>
<!-- Generator: Adobe Illustrator 21.0.0, SVG Export Plug-In . SVG Version: 6.00 Build 0)  -->
<svg version="1.1" id="Layer_1" xmlns="http://www.w3.org/2000/svg" xmlns:xlink="http://www.w3.org/1999/xlink" x="0px" y="0px"
	 viewBox="0 0 120 120" style="enable-background:new 0 0 120 120;" xml:space="preserve">
<style type="text/css">
	.st0{fill:#6FF34D;}
</style>
<g>
	<path class="st0" d="M24,47.4c0.3,0.1,0.6,0,0.7-0.4c4.6-11.8,14.5-20.5,26.6-23.3c20.5-4.7,40.9,8.5,45.5,29.4l0,0l-8.6-6.1
		c-0.2-0.2-0.7-0.2-0.8,0.2l-4.4,7.2c-0.2,0.2-0.1,0.6,0.2,0.8l19.5,13.2c0.1,0.1,0.3,0.1,0.4,0.1l2-0.5c0.2,0,0.3-0.2,0.4-0.3
		l11.8-20.4c0.2-0.2,0.1-0.5-0.2-0.8l-7.1-4.4c-0.2-0.2-0.6-0.1-0.8,0.2l-4.1,7.3C98.9,24.7,74.1,9.3,49.3,14.9
		c-15.1,3.5-27.5,14.2-33,28.9c-0.1,0.3,0,0.6,0.4,0.7L24,47.4z"/>
	<path class="st0" d="M96,72.6c-0.3-0.1-0.6,0-0.7,0.4c-4.6,11.8-14.5,20.5-26.6,23.3c-20.5,4.7-40.9-8.5-45.5-29.4l0,0l8.6,6
		c0.2,0.2,0.7,0.2,0.8-0.2l4.4-7.2c0.2-0.2,0.1-0.6-0.2-0.8L17.2,51.5c-0.1-0.1-0.3-0.1-0.4-0.1l-2,0.5c-0.2,0-0.3,0.2-0.4,0.3
		L2.7,72.5c-0.2,0.2-0.1,0.6,0.2,0.8l7.1,4.5c0.2,0.2,0.6,0.1,0.8-0.2l4.1-7.3c6.3,24.9,31.1,40.4,55.9,34.7
		c15-3.5,27.4-14.2,32.9-28.9c0.1-0.3,0-0.6-0.4-0.7L96,72.6z"/>
</g>
</svg>
