<?xml version="1.0" encoding="utf-8"?>
<!-- Generator: Adobe Illustrator 21.0.0, SVG Export Plug-In . SVG Version: 6.00 Build 0)  -->
<svg version="1.1" id="Layer_1" xmlns="http://www.w3.org/2000/svg" xmlns:xlink="http://www.w3.org/1999/xlink" x="0px" y="0px"
	 viewBox="0 0 120 120" style="enable-background:new 0 0 120 120;" xml:space="preserve">
<style type="text/css">
	.st0{fill:#6FF34D;}
</style>
<g>
	<path class="st0" d="M89.6,84c-0.3-0.2-0.6-0.2-0.8,0.1c-8.3,9.5-20.6,14.4-33,12.9C35,94.5,20.2,75.1,23,54l0,0l6,8.6
		c0.2,0.2,0.6,0.4,0.8,0.1l6.6-5.2c0.2-0.2,0.3-0.6,0.1-0.8L22.6,37.6c-0.1-0.1-0.3-0.2-0.4-0.3l-2-0.2c-0.2,0-0.3,0.1-0.4,0.2
		l-18,15.2c-0.2,0.2-0.3,0.5-0.1,0.8l5.1,6.6C7,60,7.4,60.1,7.6,59.9l6.3-5.5C11.5,80,29.5,103,54.7,106c15.4,1.9,30.7-4.1,40.9-16
		c0.2-0.3,0.2-0.6-0.1-0.8L89.6,84z"/>
	<path class="st0" d="M30.4,36c0.3,0.2,0.6,0.2,0.8-0.1c8.3-9.5,20.6-14.4,33-12.9C85,25.5,99.8,44.9,97,66l0,0l-6-8.5
		c-0.2-0.2-0.6-0.4-0.8-0.1l-6.6,5.2c-0.2,0.2-0.3,0.6-0.1,0.8l13.9,19.1c0.1,0.1,0.3,0.2,0.4,0.3l2,0.2c0.2,0,0.3-0.1,0.4-0.2
		l18-15.2c0.2-0.2,0.3-0.6,0.1-0.8l-5.1-6.7c-0.2-0.2-0.6-0.3-0.8-0.1l-6.3,5.5C108.5,40,90.5,17,65.3,14
		c-15.3-1.9-30.6,4.1-40.8,16c-0.2,0.3-0.2,0.6,0.1,0.8L30.4,36z"/>
</g>
</svg>
