<?xml version="1.0" encoding="utf-8"?>
<!-- Generator: Adobe Illustrator 21.0.0, SVG Export Plug-In . SVG Version: 6.00 Build 0)  -->
<svg version="1.1" id="Layer_1" xmlns="http://www.w3.org/2000/svg" xmlns:xlink="http://www.w3.org/1999/xlink" x="0px" y="0px"
	 viewBox="0 0 120 120" style="enable-background:new 0 0 120 120;" xml:space="preserve">
<style type="text/css">
	.st0{fill:#6FF34D;}
</style>
<g>
	<path class="st0" d="M30.5,84.1c0.3-0.2,0.3-0.5,0.1-0.8c-7.7-10.1-9.9-23-6-34.9C31.3,28.5,53.2,18,73.4,25l0,0l-9.6,4.2
		c-0.3,0.1-0.5,0.5-0.3,0.8l3.8,7.5c0.1,0.3,0.5,0.4,0.8,0.3l21.5-9.7c0.1-0.1,0.3-0.2,0.3-0.3l0.6-1.9c0.1-0.2,0-0.3-0.1-0.4
		L79.2,4.5c-0.1-0.3-0.4-0.4-0.8-0.3L70.9,8c-0.3,0.1-0.4,0.5-0.3,0.8l4.1,7.3C50.2,8.4,24.1,21.5,16,45.6
		c-4.9,14.7-2.2,30.9,7.4,43.3c0.2,0.3,0.5,0.3,0.8,0.1L30.5,84.1z"/>
	<path class="st0" d="M89.5,35.9c-0.3,0.2-0.3,0.5-0.1,0.8c7.7,10.1,9.9,23,6,34.9C88.7,91.5,66.8,102,46.6,95l0,0l9.5-4.2
		c0.3-0.1,0.5-0.5,0.3-0.8l-3.8-7.5c-0.1-0.3-0.5-0.4-0.8-0.3L30.4,92c-0.1,0.1-0.3,0.2-0.3,0.3l-0.6,1.9c-0.1,0.2,0,0.3,0.1,0.4
		l11.3,20.7c0.1,0.3,0.5,0.4,0.8,0.3l7.6-3.7c0.3-0.1,0.4-0.5,0.3-0.8l-4.1-7.3c24.5,7.6,50.7-5.5,58.8-29.5
		c4.9-14.6,2.2-30.8-7.5-43.2C96.3,31,96,31,95.7,31.2L89.5,35.9z"/>
</g>
</svg>
